Playpen-Rg18LongSlow.ufo
<glyph name="dollar" format="2">
  <advance width="1066"/>
  <unicode hex="0024"/>
  <outline>
    <contour>
      <point x="509" y="-32" type="curve" smooth="yes"/>
      <point x="804" y="-32"/>
      <point x="1008" y="153"/>
      <point x="1008" y="436" type="curve" smooth="yes"/>
      <point x="1008" y="624"/>
      <point x="888" y="715"/>
      <point x="725" y="805" type="curve" smooth="yes"/>
      <point x="584" y="883"/>
      <point x="484" y="951"/>
      <point x="484" y="1108" type="curve" smooth="yes"/>
      <point x="484" y="1300"/>
      <point x="629" y="1430"/>
      <point x="829" y="1430" type="curve" smooth="yes"/>
      <point x="955" y="1430"/>
      <point x="1066" y="1373"/>
      <point x="1159" y="1290" type="curve" smooth="yes"/>
      <point x="1171" y="1279"/>
      <point x="1189" y="1281"/>
      <point x="1204" y="1296" type="curve" smooth="yes"/>
      <point x="1221" y="1313"/>
      <point x="1225" y="1328"/>
      <point x="1211" y="1341" type="curve" smooth="yes"/>
      <point x="1118" y="1435"/>
      <point x="974" y="1515"/>
      <point x="829" y="1515" type="curve" smooth="yes"/>
      <point x="573" y="1515"/>
      <point x="391" y="1348"/>
      <point x="391" y="1106" type="curve" smooth="yes"/>
      <point x="391" y="905"/>
      <point x="519" y="814"/>
      <point x="676" y="726" type="curve" smooth="yes"/>
      <point x="813" y="651"/>
      <point x="915" y="588"/>
      <point x="915" y="429" type="curve" smooth="yes"/>
      <point x="915" y="200"/>
      <point x="750" y="53"/>
      <point x="513" y="53" type="curve" smooth="yes"/>
      <point x="353" y="53"/>
      <point x="245" y="124"/>
      <point x="166" y="203" type="curve" smooth="yes"/>
      <point x="153" y="216"/>
      <point x="139" y="211"/>
      <point x="121" y="196" type="curve" smooth="yes"/>
      <point x="108" y="184"/>
      <point x="96" y="169"/>
      <point x="109" y="154" type="curve" smooth="yes"/>
      <point x="179" y="70"/>
      <point x="303" y="-32"/>
    </contour>
    <contour>
      <point x="389" y="-150" type="curve" smooth="yes"/>
      <point x="415" y="-150"/>
      <point x="431" y="-141"/>
      <point x="438" y="-122" type="curve" smooth="yes"/>
      <point x="1010" y="1634" type="line" smooth="yes"/>
      <point x="1016" y="1653"/>
      <point x="1005" y="1661"/>
      <point x="979" y="1661" type="curve" smooth="yes"/>
      <point x="953" y="1661"/>
      <point x="936" y="1653"/>
      <point x="930" y="1634" type="curve" smooth="yes"/>
      <point x="358" y="-122" type="line" smooth="yes"/>
      <point x="351" y="-141"/>
      <point x="363" y="-150"/>
    </contour>
  </outline>
</glyph>
<glyph name="percent" format="2">
  <advance width="1020"/>
  <unicode hex="0025"/>
  <outline>
    <contour>
      <point x="433" y="696" type="curve" smooth="yes"/>
      <point x="601" y="696"/>
      <point x="696" y="907"/>
      <point x="696" y="1037" type="curve" smooth="yes"/>
      <point x="696" y="1144"/>
      <point x="635" y="1212"/>
      <point x="531" y="1212" type="curve" smooth="yes"/>
      <point x="370" y="1212"/>
      <point x="268" y="1024"/>
      <point x="268" y="873" type="curve" smooth="yes"/>
      <point x="268" y="768"/>
      <point x="329" y="696"/>
    </contour>
    <contour>
      <point x="441" y="757" type="curve" smooth="yes"/>
      <point x="372" y="757"/>
      <point x="336" y="798"/>
      <point x="336" y="873" type="curve" smooth="yes"/>
      <point x="336" y="984"/>
      <point x="412" y="1151"/>
      <point x="524" y="1151" type="curve" smooth="yes"/>
      <point x="593" y="1151"/>
      <point x="628" y="1112"/>
      <point x="628" y="1037" type="curve" smooth="yes"/>
      <point x="628" y="927"/>
      <point x="553" y="757"/>
    </contour>
    <contour>
      <point x="156" y="-7" type="curve" smooth="yes"/>
      <point x="1163" y="1170" type="line" smooth="yes"/>
      <point x="1174" y="1183"/>
      <point x="1174" y="1191"/>
      <point x="1158" y="1204" type="curve" smooth="yes"/>
      <point x="1143" y="1216"/>
      <point x="1132" y="1217"/>
      <point x="1121" y="1204" type="curve" smooth="yes"/>
      <point x="114" y="27" type="line" smooth="yes"/>
      <point x="103" y="14"/>
      <point x="102" y="7"/>
      <point x="119" y="-7" type="curve" smooth="yes"/>
      <point x="136" y="-21"/>
      <point x="145" y="-19"/>
    </contour>
    <contour>
      <point x="750" y="-15" type="curve" smooth="yes"/>
      <point x="918" y="-15"/>
      <point x="1013" y="196"/>
      <point x="1013" y="326" type="curve" smooth="yes"/>
      <point x="1013" y="433"/>
      <point x="952" y="501"/>
      <point x="848" y="501" type="curve" smooth="yes"/>
      <point x="687" y="501"/>
      <point x="585" y="313"/>
      <point x="585" y="162" type="curve" smooth="yes"/>
      <point x="585" y="57"/>
      <point x="646" y="-15"/>
    </contour>
    <contour>
      <point x="758" y="46" type="curve" smooth="yes"/>
      <point x="689" y="46"/>
      <point x="653" y="87"/>
      <point x="653" y="162" type="curve" smooth="yes"/>
      <point x="653" y="273"/>
      <point x="729" y="440"/>
      <point x="841" y="440" type="curve" smooth="yes"/>
      <point x="910" y="440"/>
      <point x="945" y="401"/>
      <point x="945" y="326" type="curve" smooth="yes"/>
      <point x="945" y="216"/>
      <point x="870" y="46"/>
    </contour>
  </outline>
</glyph>
<glyph name="ampersand" format="2">
  <advance width="1200"/>
  <unicode hex="0026"/>
  <outline>
    <contour>
      <point x="70" y="189" type="curve" smooth="yes"/>
      <point x="70" y="68"/>
      <point x="150" y="-15"/>
      <point x="270" y="-15" type="curve" smooth="yes"/>
      <point x="432" y="-15"/>
      <point x="577" y="136"/>
      <point x="577" y="357" type="curve" smooth="yes"/>
      <point x="577" y="366"/>
      <point x="573" y="369"/>
      <point x="562" y="369" type="curve" smooth="yes"/>
      <point x="551" y="369"/>
      <point x="547" y="366"/>
      <point x="547" y="357" type="curve" smooth="yes"/>
      <point x="547" y="149"/>
      <point x="411" y="15"/>
      <point x="270" y="15" type="curve" smooth="yes"/>
      <point x="170" y="15"/>
      <point x="102" y="81"/>
      <point x="102" y="189" type="curve" smooth="yes"/>
      <point x="102" y="408"/>
      <point x="434" y="375"/>
      <point x="434" y="569" type="curve" smooth="yes"/>
      <point x="434" y="660"/>
      <point x="363" y="712"/>
      <point x="282" y="712" type="curve" smooth="yes"/>
      <point x="189" y="712"/>
      <point x="123" y="643"/>
      <point x="123" y="551" type="curve" smooth="yes"/>
      <point x="123" y="461"/>
      <point x="169" y="418"/>
      <point x="218" y="367" type="curve" smooth="yes"/>
      <point x="583" y="-10" type="line" smooth="yes"/>
      <point x="590" y="-18"/>
      <point x="598" y="-16"/>
      <point x="604" y="-9" type="curve" smooth="yes"/>
      <point x="612" y="-2"/>
      <point x="612" y="3"/>
      <point x="606" y="10" type="curve" smooth="yes"/>
      <point x="240" y="388" type="line" smooth="yes"/>
      <point x="198" y="432"/>
      <point x="155" y="476"/>
      <point x="155" y="551" type="curve" smooth="yes"/>
      <point x="155" y="622"/>
      <point x="195" y="682"/>
      <point x="282" y="682" type="curve" smooth="yes"/>
      <point x="355" y="682"/>
      <point x="402" y="639"/>
      <point x="402" y="569" type="curve" smooth="yes"/>
      <point x="402" y="393"/>
      <point x="70" y="427"/>
    </contour>
  </outline>
</glyph>
<glyph name="asterisk" format="2">
  <advance width="358"/>
  <unicode hex="002A"/>
  <outline>
    <contour>
      <point x="473" y="1129" type="curve" smooth="yes"/>
      <point x="492" y="1129"/>
      <point x="502" y="1135"/>
      <point x="506" y="1148" type="curve" smooth="yes"/>
      <point x="621" y="1500" type="line" smooth="yes"/>
      <point x="624" y="1513"/>
      <point x="614" y="1519"/>
      <point x="596" y="1519" type="curve" smooth="yes"/>
      <point x="577" y="1519"/>
      <point x="567" y="1513"/>
      <point x="563" y="1500" type="curve" smooth="yes"/>
      <point x="448" y="1148" type="line" smooth="yes"/>
      <point x="444" y="1135"/>
      <point x="454" y="1129"/>
    </contour>
    <contour>
      <point x="333" y="1260" type="curve" smooth="yes"/>
      <point x="338" y="1243"/>
      <point x="347" y="1238"/>
      <point x="361" y="1241" type="curve" smooth="yes"/>
      <point x="734" y="1366" type="line" smooth="yes"/>
      <point x="748" y="1371"/>
      <point x="749" y="1383"/>
      <point x="744" y="1399" type="curve" smooth="yes"/>
      <point x="739" y="1415"/>
      <point x="732" y="1421"/>
      <point x="718" y="1416" type="curve" smooth="yes"/>
      <point x="344" y="1293" type="line" smooth="yes"/>
      <point x="331" y="1288"/>
      <point x="329" y="1276"/>
    </contour>
    <contour>
      <point x="682" y="1190" type="curve" smooth="yes"/>
      <point x="696" y="1201"/>
      <point x="697" y="1211"/>
      <point x="687" y="1221" type="curve" smooth="yes"/>
      <point x="417" y="1474" type="line" smooth="yes"/>
      <point x="406" y="1485"/>
      <point x="394" y="1480"/>
      <point x="383" y="1469" type="curve" smooth="yes"/>
      <point x="369" y="1456"/>
      <point x="369" y="1445"/>
      <point x="379" y="1436" type="curve" smooth="yes"/>
      <point x="649" y="1183" type="line" smooth="yes"/>
      <point x="661" y="1173"/>
      <point x="671" y="1178"/>
    </contour>
  </outline>
</glyph>
<glyph name="comma" format="2">
  <advance width="313"/>
  <unicode hex="002C"/>
  <outline>
    <contour>
      <point x="-9" y="-180" type="curve" smooth="yes"/>
      <point x="-1" y="-180"/>
      <point x="9" y="-176"/>
      <point x="20" y="-167" type="curve" smooth="yes"/>
      <point x="90" y="-114"/>
      <point x="141" y="-16"/>
      <point x="141" y="50" type="curve" smooth="yes"/>
      <point x="141" y="73"/>
      <point x="126" y="90"/>
      <point x="94" y="90" type="curve" smooth="yes"/>
      <point x="61" y="90"/>
      <point x="43" y="71"/>
      <point x="41" y="46" type="curve" smooth="yes"/>
      <point x="39" y="-15"/>
      <point x="20" y="-57"/>
      <point x="-35" y="-130" type="curve" smooth="yes"/>
      <point x="-40" y="-137"/>
      <point x="-42" y="-144"/>
      <point x="-42" y="-150" type="curve" smooth="yes"/>
      <point x="-42" y="-164"/>
      <point x="-22" y="-180"/>
    </contour>
  </outline>
</glyph>
<glyph name="hyphen" format="2">
  <advance width="460"/>
  <unicode hex="002D"/>
  <outline>
    <contour>
      <point x="114" y="241" type="curve" smooth="yes"/>
      <point x="374" y="241" type="line" smooth="yes"/>
      <point x="390" y="241"/>
      <point x="398" y="249"/>
      <point x="406" y="273" type="curve" smooth="yes"/>
      <point x="414" y="297"/>
      <point x="410" y="305"/>
      <point x="394" y="305" type="curve" smooth="yes"/>
      <point x="134" y="305" type="line" smooth="yes"/>
      <point x="118" y="305"/>
      <point x="110" y="297"/>
      <point x="102" y="273" type="curve" smooth="yes"/>
      <point x="94" y="249"/>
      <point x="98" y="241"/>
    </contour>
  </outline>
</glyph>
<glyph name="slash" format="2">
	<unicode hex="002F"/>
	<advance width="420"/>
	<outline>
		<contour>
			<point x="-36" y="-60" type="curve" smooth="yes"/>
			<point x="-15" y="-66"/>
			<point x="4" y="-61"/>
			<point x="12" y="-47" type="curve" smooth="yes"/>
			<point x="738" y="1229" type="line" smooth="yes"/>
			<point x="746" y="1243"/>
			<point x="736" y="1254"/>
			<point x="716" y="1260" type="curve" smooth="yes"/>
			<point x="695" y="1266"/>
			<point x="676" y="1261"/>
			<point x="668" y="1247" type="curve" smooth="yes"/>
			<point x="-58" y="-29" type="line" smooth="yes"/>
			<point x="-66" y="-43"/>
			<point x="-56" y="-54"/>
		</contour>
	</outline>
</glyph>
<glyph name="zero" format="2">
  <advance width="1180"/>
  <unicode hex="0030"/>
  <outline>
    <contour>
      <point x="560" y="-19" type="curve" smooth="yes"/>
      <point x="958" y="-19"/>
      <point x="1308" y="538"/>
      <point x="1314" y="1073" type="curve" smooth="yes"/>
      <point x="1314" y="1355"/>
      <point x="1180" y="1515"/>
      <point x="953" y="1515" type="curve" smooth="yes"/>
      <point x="554" y="1515"/>
      <point x="196" y="959"/>
      <point x="196" y="449" type="curve" smooth="yes"/>
      <point x="196" y="116"/>
      <point x="331" y="-19"/>
    </contour>
    <contour>
      <point x="573" y="71" type="curve" smooth="yes"/>
      <point x="390" y="71"/>
      <point x="293" y="170"/>
      <point x="293" y="449" type="curve" smooth="yes"/>
      <point x="293" y="906"/>
      <point x="604" y="1426"/>
      <point x="941" y="1426" type="curve" smooth="yes"/>
      <point x="1121" y="1426"/>
      <point x="1218" y="1308"/>
      <point x="1218" y="1073" type="curve" smooth="yes"/>
      <point x="1211" y="590"/>
      <point x="908" y="71"/>
    </contour>
  </outline>
</glyph>
<glyph name="three" format="2">
  <advance width="1126"/>
  <unicode hex="0033"/>
  <outline>
    <contour>
      <point x="544" y="-19" type="curve" smooth="yes"/>
      <point x="858" y="-19"/>
      <point x="1060" y="171"/>
      <point x="1060" y="445" type="curve" smooth="yes"/>
      <point x="1060" y="623"/>
      <point x="965" y="754"/>
      <point x="830" y="790" type="curve"/>
      <point x="1074" y="834"/>
      <point x="1199" y="970"/>
      <point x="1199" y="1179" type="curve" smooth="yes"/>
      <point x="1199" y="1408"/>
      <point x="1039" y="1515"/>
      <point x="846" y="1515" type="curve" smooth="yes"/>
      <point x="694" y="1515"/>
      <point x="539" y="1453"/>
      <point x="439" y="1374" type="curve" smooth="yes"/>
      <point x="409" y="1350"/>
      <point x="406" y="1335"/>
      <point x="423" y="1316" type="curve" smooth="yes"/>
      <point x="445" y="1291"/>
      <point x="460" y="1293"/>
      <point x="488" y="1311" type="curve" smooth="yes"/>
      <point x="605" y="1391"/>
      <point x="704" y="1430"/>
      <point x="844" y="1430" type="curve" smooth="yes"/>
      <point x="988" y="1430"/>
      <point x="1108" y="1353"/>
      <point x="1108" y="1179" type="curve" smooth="yes"/>
      <point x="1108" y="946"/>
      <point x="920" y="839"/>
      <point x="678" y="839" type="curve" smooth="yes"/>
      <point x="571" y="839" type="line" smooth="yes"/>
      <point x="556" y="839"/>
      <point x="543" y="825"/>
      <point x="535" y="799" type="curve" smooth="yes"/>
      <point x="528" y="771"/>
      <point x="534" y="759"/>
      <point x="549" y="759" type="curve" smooth="yes"/>
      <point x="655" y="759" type="line" smooth="yes"/>
      <point x="846" y="759"/>
      <point x="968" y="645"/>
      <point x="968" y="445" type="curve" smooth="yes"/>
      <point x="968" y="220"/>
      <point x="808" y="66"/>
      <point x="544" y="66" type="curve" smooth="yes"/>
      <point x="386" y="66"/>
      <point x="250" y="114"/>
      <point x="139" y="245" type="curve" smooth="yes"/>
      <point x="118" y="270"/>
      <point x="105" y="270"/>
      <point x="81" y="249" type="curve" smooth="yes"/>
      <point x="55" y="226"/>
      <point x="64" y="211"/>
      <point x="89" y="183" type="curve" smooth="yes"/>
      <point x="203" y="46"/>
      <point x="363" y="-19"/>
    </contour>
  </outline>
</glyph>
<glyph name="four" format="2">
  <advance width="918"/>
  <unicode hex="0034"/>
  <outline>
    <contour>
      <point x="141" y="351" type="curve" smooth="yes"/>
      <point x="908" y="351" type="line" smooth="yes"/>
      <point x="924" y="351"/>
      <point x="940" y="370"/>
      <point x="940" y="399" type="curve" smooth="yes"/>
      <point x="940" y="409"/>
      <point x="935" y="415"/>
      <point x="925" y="415" type="curve" smooth="yes"/>
      <point x="232" y="415" type="line"/>
      <point x="878" y="1172" type="line" smooth="yes"/>
      <point x="892" y="1189"/>
      <point x="887" y="1200"/>
      <point x="861" y="1210" type="curve" smooth="yes"/>
      <point x="841" y="1218"/>
      <point x="826" y="1216"/>
      <point x="815" y="1203" type="curve" smooth="yes"/>
      <point x="128" y="398" type="line" smooth="yes"/>
      <point x="111" y="379"/>
      <point x="117" y="351"/>
    </contour>
    <contour>
      <point x="615" y="-11" type="curve" smooth="yes"/>
      <point x="639" y="-11"/>
      <point x="651" y="-4"/>
      <point x="656" y="11" type="curve" smooth="yes"/>
      <point x="928" y="846" type="line" smooth="yes"/>
      <point x="933" y="863"/>
      <point x="921" y="870"/>
      <point x="897" y="870" type="curve" smooth="yes"/>
      <point x="873" y="870"/>
      <point x="861" y="863"/>
      <point x="856" y="848" type="curve" smooth="yes"/>
      <point x="584" y="13" type="line" smooth="yes"/>
      <point x="579" y="-4"/>
      <point x="591" y="-11"/>
    </contour>
  </outline>
</glyph>
<glyph name="five" format="2">
  <advance width="1126"/>
  <unicode hex="0035"/>
  <outline>
    <contour>
      <point x="564" y="-19" type="curve" smooth="yes"/>
      <point x="868" y="-19"/>
      <point x="1101" y="200"/>
      <point x="1101" y="561" type="curve" smooth="yes"/>
      <point x="1101" y="809"/>
      <point x="950" y="931"/>
      <point x="729" y="931" type="curve" smooth="yes"/>
      <point x="623" y="931"/>
      <point x="501" y="889"/>
      <point x="416" y="836" type="curve"/>
      <point x="613" y="1408" type="line"/>
      <point x="1266" y="1408" type="line" smooth="yes"/>
      <point x="1286" y="1408"/>
      <point x="1306" y="1431"/>
      <point x="1306" y="1468" type="curve" smooth="yes"/>
      <point x="1306" y="1480"/>
      <point x="1300" y="1488"/>
      <point x="1288" y="1488" type="curve" smooth="yes"/>
      <point x="584" y="1488" type="line" smooth="yes"/>
      <point x="565" y="1488"/>
      <point x="554" y="1476"/>
      <point x="550" y="1465" type="curve" smooth="yes"/>
      <point x="306" y="760" type="line" smooth="yes"/>
      <point x="291" y="715"/>
      <point x="340" y="699"/>
      <point x="376" y="729" type="curve" smooth="yes"/>
      <point x="474" y="809"/>
      <point x="609" y="851"/>
      <point x="729" y="851" type="curve" smooth="yes"/>
      <point x="900" y="851"/>
      <point x="1010" y="759"/>
      <point x="1010" y="561" type="curve" smooth="yes"/>
      <point x="1010" y="275"/>
      <point x="836" y="61"/>
      <point x="564" y="61" type="curve" smooth="yes"/>
      <point x="426" y="61"/>
      <point x="285" y="113"/>
      <point x="173" y="246" type="curve" smooth="yes"/>
      <point x="151" y="271"/>
      <point x="139" y="271"/>
      <point x="115" y="250" type="curve" smooth="yes"/>
      <point x="89" y="228"/>
      <point x="98" y="213"/>
      <point x="123" y="184" type="curve" smooth="yes"/>
      <point x="236" y="48"/>
      <point x="403" y="-19"/>
    </contour>
  </outline>
</glyph>
<glyph name="six" format="2">
  <advance width="968"/>
  <unicode hex="0036"/>
  <outline>
    <contour>
      <point x="538" y="-15" type="curve" smooth="yes"/>
      <point x="789" y="-15"/>
      <point x="942" y="168"/>
      <point x="942" y="435" type="curve" smooth="yes"/>
      <point x="942" y="621"/>
      <point x="834" y="725"/>
      <point x="650" y="725" type="curve" smooth="yes"/>
      <point x="491" y="725"/>
      <point x="338" y="639"/>
      <point x="244" y="484" type="curve"/>
      <point x="254" y="399" type="line"/>
      <point x="319" y="538"/>
      <point x="468" y="661"/>
      <point x="650" y="661" type="curve" smooth="yes"/>
      <point x="788" y="661"/>
      <point x="869" y="580"/>
      <point x="869" y="435" type="curve" smooth="yes"/>
      <point x="869" y="201"/>
      <point x="741" y="49"/>
      <point x="538" y="49" type="curve" smooth="yes"/>
      <point x="373" y="49"/>
      <point x="272" y="173"/>
      <point x="272" y="402" type="curve" smooth="yes"/>
      <point x="272" y="827"/>
      <point x="523" y="1139"/>
      <point x="978" y="1150" type="curve" smooth="yes"/>
      <point x="1004" y="1151"/>
      <point x="1011" y="1158"/>
      <point x="1010" y="1187" type="curve" smooth="yes"/>
      <point x="1009" y="1212"/>
      <point x="994" y="1212"/>
      <point x="977" y="1212" type="curve" smooth="yes"/>
      <point x="487" y="1212"/>
      <point x="199" y="869"/>
      <point x="199" y="402" type="curve" smooth="yes"/>
      <point x="199" y="140"/>
      <point x="321" y="-15"/>
    </contour>
  </outline>
</glyph>
<glyph name="eight" format="2">
	<unicode hex="0038"/>
	<advance width="901"/>
	<outline>
		<contour>
			<point x="472" y="-15" type="curve" smooth="yes"/>
			<point x="723" y="-15"/>
			<point x="905" y="128"/>
			<point x="905" y="325" type="curve" smooth="yes"/>
			<point x="905" y="449"/>
			<point x="820" y="568"/>
			<point x="681" y="640" type="curve"/>
			<point x="872" y="709"/>
			<point x="988" y="830"/>
			<point x="988" y="960" type="curve" smooth="yes"/>
			<point x="988" y="1106"/>
			<point x="862" y="1212"/>
			<point x="689" y="1212" type="curve" smooth="yes"/>
			<point x="479" y="1212"/>
			<point x="327" y="1092"/>
			<point x="327" y="927" type="curve" smooth="yes"/>
			<point x="327" y="816"/>
			<point x="401" y="710"/>
			<point x="522" y="648" type="curve"/>
			<point x="276" y="574"/>
			<point x="126" y="429"/>
			<point x="126" y="264" type="curve" smooth="yes"/>
			<point x="126" y="91"/>
			<point x="257" y="-15"/>
		</contour>
		<contour>
			<point x="486" y="53" type="curve" smooth="yes"/>
			<point x="309" y="53"/>
			<point x="201" y="133"/>
			<point x="201" y="264" type="curve" smooth="yes"/>
			<point x="201" y="408"/>
			<point x="350" y="539"/>
			<point x="594" y="611" type="curve"/>
			<point x="741" y="547"/>
			<point x="830" y="439"/>
			<point x="830" y="325" type="curve" smooth="yes"/>
			<point x="830" y="167"/>
			<point x="686" y="53"/>
		</contour>
		<contour>
			<point x="612" y="677" type="curve"/>
			<point x="482" y="732"/>
			<point x="402" y="826"/>
			<point x="402" y="927" type="curve" smooth="yes"/>
			<point x="402" y="1053"/>
			<point x="518" y="1144"/>
			<point x="678" y="1144" type="curve" smooth="yes"/>
			<point x="814" y="1144"/>
			<point x="913" y="1067"/>
			<point x="913" y="960" type="curve" smooth="yes"/>
			<point x="913" y="844"/>
			<point x="799" y="737"/>
		</contour>
	</outline>
</glyph>
<glyph name="question" format="2">
  <advance width="677"/>
  <unicode hex="003F"/>
  <outline>
    <contour>
      <point x="250" y="173" type="curve" smooth="yes"/>
      <point x="273" y="173"/>
      <point x="287" y="180"/>
      <point x="292" y="195" type="curve" smooth="yes"/>
      <point x="385" y="482" type="line"/>
      <point x="680" y="489"/>
      <point x="893" y="691"/>
      <point x="893" y="962" type="curve" smooth="yes"/>
      <point x="893" y="1117"/>
      <point x="789" y="1212"/>
      <point x="618" y="1212" type="curve" smooth="yes"/>
      <point x="511" y="1212"/>
      <point x="392" y="1165"/>
      <point x="305" y="1088" type="curve" smooth="yes"/>
      <point x="296" y="1080"/>
      <point x="296" y="1069"/>
      <point x="305" y="1055" type="curve" smooth="yes"/>
      <point x="316" y="1038"/>
      <point x="328" y="1032"/>
      <point x="338" y="1040" type="curve" smooth="yes"/>
      <point x="423" y="1107"/>
      <point x="527" y="1148"/>
      <point x="612" y="1148" type="curve" smooth="yes"/>
      <point x="741" y="1148"/>
      <point x="820" y="1078"/>
      <point x="820" y="962" type="curve" smooth="yes"/>
      <point x="820" y="720"/>
      <point x="628" y="544"/>
      <point x="363" y="544" type="curve" smooth="yes"/>
      <point x="345" y="544"/>
      <point x="333" y="535"/>
      <point x="329" y="522" type="curve" smooth="yes"/>
      <point x="222" y="195" type="line" smooth="yes"/>
      <point x="217" y="180"/>
      <point x="227" y="173"/>
    </contour>
    <contour>
      <point x="206" y="-11" type="curve" smooth="yes"/>
      <point x="246" y="-11"/>
      <point x="263" y="20"/>
      <point x="263" y="49" type="curve" smooth="yes"/>
      <point x="263" y="76"/>
      <point x="246" y="90"/>
      <point x="224" y="90" type="curve" smooth="yes"/>
      <point x="184" y="90"/>
      <point x="167" y="59"/>
      <point x="167" y="30" type="curve" smooth="yes"/>
      <point x="167" y="3"/>
      <point x="184" y="-11"/>
    </contour>
  </outline>
</glyph>
<glyph name="A" format="2">
  <advance width="1162"/>
  <unicode hex="0041"/>
  <anchor x="500" y="0" name="bottom"/>
  <anchor x="1029" y="0" name="ogonek"/>
  <anchor x="903" y="1424" name="top"/>
  <outline>
    <contour>
      <point x="5" y="-14" type="curve" smooth="yes"/>
      <point x="39" y="-14"/>
      <point x="48" y="-9"/>
      <point x="70" y="26" type="curve" smooth="yes"/>
      <point x="338" y="448" type="line"/>
      <point x="945" y="448" type="line"/>
      <point x="958" y="23" type="line" smooth="yes"/>
      <point x="959" y="-4"/>
      <point x="965" y="-14"/>
      <point x="995" y="-14" type="curve" smooth="yes"/>
      <point x="1030" y="-14"/>
      <point x="1044" y="4"/>
      <point x="1043" y="31" type="curve" smooth="yes"/>
      <point x="999" y="1464" type="line" smooth="yes"/>
      <point x="998" y="1506"/>
      <point x="981" y="1515"/>
      <point x="956" y="1515" type="curve" smooth="yes"/>
      <point x="924" y="1515"/>
      <point x="906" y="1505"/>
      <point x="888" y="1475" type="curve" smooth="yes"/>
      <point x="-22" y="39" type="line" smooth="yes"/>
      <point x="-41" y="10"/>
      <point x="-30" y="-14"/>
    </contour>
    <contour>
      <point x="389" y="528" type="line"/>
      <point x="919" y="1374" type="line"/>
      <point x="944" y="528" type="line"/>
    </contour>
  </outline>
</glyph>
<glyph name="B" format="2">
	<unicode hex="0042"/>
	<advance width="900"/>
	<outline>
		<contour>
			<point x="143" y="0" type="curve" smooth="yes"/>
			<point x="393" y="0" type="line" smooth="yes"/>
			<point x="697" y="0"/>
			<point x="899" y="168"/>
			<point x="899" y="421" type="curve" smooth="yes"/>
			<point x="899" y="552"/>
			<point x="800" y="620"/>
			<point x="676" y="628" type="curve"/>
			<point x="678" y="634" type="line"/>
			<point x="879" y="652"/>
			<point x="1031" y="802"/>
			<point x="1031" y="983" type="curve" smooth="yes"/>
			<point x="1031" y="1118"/>
			<point x="933" y="1190"/>
			<point x="762" y="1190" type="curve" smooth="yes"/>
			<point x="530" y="1190" type="line" smooth="yes"/>
			<point x="506" y="1190"/>
			<point x="492" y="1183"/>
			<point x="487" y="1168" type="curve" smooth="yes"/>
			<point x="115" y="22" type="line" smooth="yes"/>
			<point x="110" y="7"/>
			<point x="120" y="0"/>
		</contour>
		<contour>
			<point x="199" y="64" type="line"/>
			<point x="371" y="597" type="line"/>
			<point x="579" y="597" type="line" smooth="yes"/>
			<point x="729" y="597"/>
			<point x="825" y="528"/>
			<point x="825" y="415" type="curve" smooth="yes"/>
			<point x="825" y="204"/>
			<point x="649" y="64"/>
			<point x="389" y="64" type="curve" smooth="yes"/>
		</contour>
		<contour>
			<point x="392" y="661" type="line"/>
			<point x="544" y="1126" type="line"/>
			<point x="742" y="1126" type="line" smooth="yes"/>
			<point x="886" y="1126"/>
			<point x="954" y="1073"/>
			<point x="954" y="971" type="curve" smooth="yes"/>
			<point x="954" y="784"/>
			<point x="765" y="661"/>
			<point x="578" y="661" type="curve" smooth="yes"/>
		</contour>
	</outline>
	<anchor name="bottom" x="383" y="0"/>
	<anchor name="center" x="255" y="350"/>
	<anchor name="top" x="755" y="1139"/>
</glyph>
<glyph name="C" format="2">
  <advance width="1201"/>
  <unicode hex="0043"/>
  <anchor x="594" y="0" name="bottom"/>
  <anchor x="1036" y="1424" name="top"/>
  <outline>
    <contour>
      <point x="665" y="-19" type="curve" smooth="yes"/>
      <point x="823" y="-19"/>
      <point x="975" y="68"/>
      <point x="1149" y="236" type="curve" smooth="yes"/>
      <point x="1164" y="251"/>
      <point x="1161" y="263"/>
      <point x="1144" y="284" type="curve" smooth="yes"/>
      <point x="1130" y="300"/>
      <point x="1115" y="306"/>
      <point x="1099" y="293" type="curve" smooth="yes"/>
      <point x="938" y="156"/>
      <point x="825" y="66"/>
      <point x="678" y="66" type="curve" smooth="yes"/>
      <point x="468" y="66"/>
      <point x="345" y="221"/>
      <point x="345" y="475" type="curve" smooth="yes"/>
      <point x="345" y="913"/>
      <point x="648" y="1431"/>
      <point x="1066" y="1431" type="curve" smooth="yes"/>
      <point x="1201" y="1431"/>
      <point x="1284" y="1381"/>
      <point x="1371" y="1294" type="curve" smooth="yes"/>
      <point x="1389" y="1278"/>
      <point x="1400" y="1281"/>
      <point x="1418" y="1295" type="curve" smooth="yes"/>
      <point x="1436" y="1310"/>
      <point x="1443" y="1319"/>
      <point x="1433" y="1334" type="curve" smooth="yes"/>
      <point x="1363" y="1433"/>
      <point x="1236" y="1515"/>
      <point x="1078" y="1515" type="curve" smooth="yes"/>
      <point x="566" y="1515"/>
      <point x="251" y="938"/>
      <point x="251" y="468" type="curve" smooth="yes"/>
      <point x="251" y="170"/>
      <point x="414" y="-19"/>
    </contour>
  </outline>
</glyph>
<glyph name="E" format="2">
  <advance width="821"/>
  <unicode hex="0045"/>
  <anchor x="428" y="0" name="bottom"/>
  <anchor x="699" y="17" name="ogonek"/>
  <anchor x="753" y="1139" name="top"/>
  <outline>
    <contour>
      <point x="152" y="0" type="curve" smooth="yes"/>
      <point x="683" y="0" type="line" smooth="yes"/>
      <point x="695" y="0"/>
      <point x="706" y="11"/>
      <point x="712" y="32" type="curve" smooth="yes"/>
      <point x="718" y="54"/>
      <point x="713" y="64"/>
      <point x="701" y="64" type="curve" smooth="yes"/>
      <point x="202" y="64" type="line"/>
      <point x="373" y="597" type="line"/>
      <point x="798" y="597" type="line" smooth="yes"/>
      <point x="810" y="597"/>
      <point x="821" y="608"/>
      <point x="827" y="629" type="curve" smooth="yes"/>
      <point x="833" y="651"/>
      <point x="828" y="661"/>
      <point x="816" y="661" type="curve" smooth="yes"/>
      <point x="394" y="661" type="line"/>
      <point x="544" y="1126" type="line"/>
      <point x="1047" y="1126" type="line" smooth="yes"/>
      <point x="1059" y="1126"/>
      <point x="1070" y="1137"/>
      <point x="1076" y="1158" type="curve" smooth="yes"/>
      <point x="1082" y="1180"/>
      <point x="1077" y="1190"/>
      <point x="1065" y="1190" type="curve" smooth="yes"/>
      <point x="525" y="1190" type="line" smooth="yes"/>
      <point x="503" y="1190"/>
      <point x="492" y="1182"/>
      <point x="487" y="1168" type="curve" smooth="yes"/>
      <point x="121" y="32" type="line" smooth="yes"/>
      <point x="114" y="9"/>
      <point x="125" y="0"/>
    </contour>
  </outline>
</glyph>
<glyph name="F" format="2">
	<unicode hex="0046"/>
	<advance width="774"/>
	<outline>
		<contour>
			<point x="139" y="-11" type="curve"/>
			<point x="162" y="-11"/>
			<point x="178" y="-4"/>
			<point x="183" y="11" type="curve" smooth="yes"/>
			<point x="361" y="563" type="line"/>
			<point x="775" y="563" type="line" smooth="yes"/>
			<point x="787" y="563"/>
			<point x="798" y="573"/>
			<point x="805" y="594" type="curve" smooth="yes"/>
			<point x="812" y="615"/>
			<point x="808" y="627"/>
			<point x="796" y="627" type="curve" smooth="yes"/>
			<point x="382" y="627" type="line"/>
			<point x="544" y="1126" type="line"/>
			<point x="1033" y="1126" type="line" smooth="yes"/>
			<point x="1045" y="1126"/>
			<point x="1056" y="1137"/>
			<point x="1062" y="1158" type="curve" smooth="yes"/>
			<point x="1068" y="1180"/>
			<point x="1063" y="1190"/>
			<point x="1051" y="1190" type="curve" smooth="yes"/>
			<point x="530" y="1190" type="line" smooth="yes"/>
			<point x="507" y="1190"/>
			<point x="492" y="1183"/>
			<point x="487" y="1168" type="curve" smooth="yes"/>
			<point x="112" y="11" type="line" smooth="yes"/>
			<point x="107" y="-4"/>
			<point x="116" y="-11"/>
		</contour>
	</outline>
</glyph>
<glyph name="G" format="2">
  <advance width="1085"/>
  <unicode hex="0047"/>
  <anchor x="490" y="0" name="bottom"/>
  <anchor x="832" y="1139" name="top"/>
  <outline>
    <contour>
      <point x="537" y="-15" type="curve" smooth="yes"/>
      <point x="754" y="-15"/>
      <point x="958" y="147"/>
      <point x="1093" y="590" type="curve" smooth="yes"/>
      <point x="1100" y="614"/>
      <point x="1097" y="622"/>
      <point x="1081" y="622" type="curve" smooth="yes"/>
      <point x="729" y="622" type="line" smooth="yes"/>
      <point x="713" y="622"/>
      <point x="705" y="614"/>
      <point x="697" y="590" type="curve" smooth="yes"/>
      <point x="689" y="566"/>
      <point x="692" y="558"/>
      <point x="708" y="558" type="curve" smooth="yes"/>
      <point x="1010" y="558" type="line"/>
      <point x="882" y="188"/>
      <point x="727" y="53"/>
      <point x="545" y="53" type="curve" smooth="yes"/>
      <point x="369" y="53"/>
      <point x="275" y="179"/>
      <point x="275" y="374" type="curve" smooth="yes"/>
      <point x="275" y="724"/>
      <point x="516" y="1144"/>
      <point x="851" y="1144" type="curve" smooth="yes"/>
      <point x="962" y="1144"/>
      <point x="1026" y="1108"/>
      <point x="1094" y="1034" type="curve" smooth="yes"/>
      <point x="1107" y="1021"/>
      <point x="1117" y="1024"/>
      <point x="1131" y="1035" type="curve" smooth="yes"/>
      <point x="1146" y="1047"/>
      <point x="1151" y="1054"/>
      <point x="1143" y="1066" type="curve" smooth="yes"/>
      <point x="1081" y="1160"/>
      <point x="979" y="1212"/>
      <point x="851" y="1212" type="curve" smooth="yes"/>
      <point x="451" y="1212"/>
      <point x="200" y="744"/>
      <point x="200" y="367" type="curve" smooth="yes"/>
      <point x="200" y="136"/>
      <point x="326" y="-15"/>
    </contour>
  </outline>
</glyph>
<glyph name="H" format="2">
	<unicode hex="0048"/>
	<advance width="1100"/>
	<outline>
		<contour>
			<point x="141" y="-11" type="curve" smooth="yes"/>
			<point x="164" y="-11"/>
			<point x="178" y="-4"/>
			<point x="183" y="11" type="curve" smooth="yes"/>
			<point x="371" y="592" type="line"/>
			<point x="983" y="592" type="line"/>
			<point x="796" y="11" type="line" smooth="yes"/>
			<point x="791" y="-4"/>
			<point x="801" y="-11"/>
			<point x="824" y="-11" type="curve" smooth="yes"/>
			<point x="847" y="-11"/>
			<point x="861" y="-4"/>
			<point x="866" y="11" type="curve" smooth="yes"/>
			<point x="1247" y="1190" type="line" smooth="yes"/>
			<point x="1252" y="1205"/>
			<point x="1242" y="1212"/>
			<point x="1219" y="1212" type="curve" smooth="yes"/>
			<point x="1196" y="1212"/>
			<point x="1182" y="1204"/>
			<point x="1177" y="1190" type="curve" smooth="yes"/>
			<point x="1004" y="656" type="line"/>
			<point x="392" y="656" type="line"/>
			<point x="564" y="1190" type="line" smooth="yes"/>
			<point x="569" y="1204"/>
			<point x="559" y="1212"/>
			<point x="536" y="1212" type="curve" smooth="yes"/>
			<point x="513" y="1212"/>
			<point x="499" y="1205"/>
			<point x="494" y="1190" type="curve" smooth="yes"/>
			<point x="113" y="11" type="line" smooth="yes"/>
			<point x="108" y="-4"/>
			<point x="118" y="-11"/>
		</contour>
	</outline>
	<anchor name="bottom" x="485" y="0"/>
	<anchor name="center" x="785" y="920"/>
	<anchor name="top" x="834" y="1139"/>
</glyph>
<glyph name="I" format="2">
  <advance width="418"/>
  <unicode hex="0049"/>
  <anchor x="145" y="0" name="bottom"/>
  <anchor x="165" y="-9" name="ogonek"/>
  <anchor x="506" y="1139" name="top"/>
  <outline>
    <contour>
      <point x="144" y="-11" type="curve" smooth="yes"/>
      <point x="168" y="-11"/>
      <point x="180" y="-4"/>
      <point x="185" y="11" type="curve" smooth="yes"/>
      <point x="565" y="1188" type="line" smooth="yes"/>
      <point x="571" y="1205"/>
      <point x="558" y="1212"/>
      <point x="534" y="1212" type="curve" smooth="yes"/>
      <point x="510" y="1212"/>
      <point x="498" y="1205"/>
      <point x="493" y="1190" type="curve" smooth="yes"/>
      <point x="113" y="13" type="line" smooth="yes"/>
      <point x="107" y="-4"/>
      <point x="120" y="-11"/>
    </contour>
  </outline>
</glyph>
<glyph name="J" format="2">
	<unicode hex="004A"/>
	<advance width="805"/>
	<outline>
		<contour>
			<point x="319" y="-15" type="curve" smooth="yes"/>
			<point x="492" y="-15"/>
			<point x="624" y="109"/>
			<point x="701" y="343" type="curve" smooth="yes"/>
			<point x="977" y="1190" type="line" smooth="yes"/>
			<point x="982" y="1205"/>
			<point x="972" y="1212"/>
			<point x="949" y="1212" type="curve" smooth="yes"/>
			<point x="926" y="1212"/>
			<point x="912" y="1205"/>
			<point x="907" y="1190" type="curve" smooth="yes"/>
			<point x="638" y="359" type="line" smooth="yes"/>
			<point x="570" y="152"/>
			<point x="468" y="53"/>
			<point x="323" y="53" type="curve" smooth="yes"/>
			<point x="205" y="53"/>
			<point x="143" y="108"/>
			<point x="143" y="225" type="curve" smooth="yes"/>
			<point x="143" y="244"/>
			<point x="132" y="252"/>
			<point x="110" y="250" type="curve" smooth="yes"/>
			<point x="81" y="247"/>
			<point x="78" y="235"/>
			<point x="78" y="211" type="curve" smooth="yes"/>
			<point x="80" y="69"/>
			<point x="170" y="-15"/>
		</contour>
	</outline>
	<anchor name="bottom" x="338" y="0"/>
	<anchor name="top" x="915" y="1139"/>
</glyph>
<glyph name="L" format="2">
	<unicode hex="004C"/>
	<advance width="775"/>
	<outline>
		<contour>
			<point x="146" y="0" type="curve" smooth="yes"/>
			<point x="660" y="0" type="line" smooth="yes"/>
			<point x="672" y="0"/>
			<point x="683" y="11"/>
			<point x="689" y="32" type="curve" smooth="yes"/>
			<point x="695" y="54"/>
			<point x="690" y="64"/>
			<point x="678" y="64" type="curve" smooth="yes"/>
			<point x="200" y="64" type="line"/>
			<point x="563" y="1188" type="line" smooth="yes"/>
			<point x="569" y="1205"/>
			<point x="556" y="1212"/>
			<point x="532" y="1212" type="curve" smooth="yes"/>
			<point x="508" y="1212"/>
			<point x="499" y="1205"/>
			<point x="494" y="1190" type="curve" smooth="yes"/>
			<point x="120" y="32" type="line" smooth="yes"/>
			<point x="113" y="10"/>
			<point x="123" y="0"/>
		</contour>
	</outline>
	<anchor name="bottom" x="400" y="0"/>
	<anchor name="center" x="339" y="612"/>
	<anchor name="centerCase" x="370" y="612"/>
	<anchor name="top" x="514" y="1139"/>
	<anchor name="topright" x="586" y="1190"/>
</glyph>
<glyph name="Q" format="2">
	<unicode hex="0051"/>
	<advance width="1147"/>
	<outline>
		<contour>
			<point x="755" y="-239" type="curve" smooth="yes"/>
			<point x="783" y="-233"/>
			<point x="785" y="-220"/>
			<point x="779" y="-198" type="curve" smooth="yes"/>
			<point x="663" y="224" type="line" smooth="yes"/>
			<point x="657" y="246"/>
			<point x="647" y="253"/>
			<point x="626" y="248" type="curve" smooth="yes"/>
			<point x="599" y="242"/>
			<point x="594" y="231"/>
			<point x="601" y="206" type="curve" smooth="yes"/>
			<point x="717" y="-215" type="line" smooth="yes"/>
			<point x="724" y="-239"/>
			<point x="733" y="-243"/>
		</contour>
		<component base="O"/>
	</outline>
	<anchor name="bottom" x="508" y="0"/>
	<anchor name="center" x="702" y="595"/>
	<anchor name="ogonek" x="972" y="17"/>
	<anchor name="top" x="850" y="1139"/>
	<anchor name="topright" x="1069" y="1139"/>
</glyph>
<glyph name="R" format="2">
	<unicode hex="0052"/>
	<advance width="860"/>
	<outline>
		<contour>
			<point x="144" y="-11" type="curve" smooth="yes"/>
			<point x="168" y="-11"/>
			<point x="178" y="-4"/>
			<point x="183" y="11" type="curve" smooth="yes"/>
			<point x="355" y="545" type="line"/>
			<point x="440" y="359"/>
			<point x="537" y="154"/>
			<point x="691" y="0" type="curve" smooth="yes"/>
			<point x="704" y="-13"/>
			<point x="720" y="-17"/>
			<point x="736" y="-3" type="curve" smooth="yes"/>
			<point x="760" y="18"/>
			<point x="751" y="32"/>
			<point x="742" y="41" type="curve" smooth="yes"/>
			<point x="593" y="190"/>
			<point x="509" y="367"/>
			<point x="428" y="549" type="curve"/>
			<point x="799" y="567"/>
			<point x="1016" y="721"/>
			<point x="1016" y="966" type="curve" smooth="yes"/>
			<point x="1016" y="1134"/>
			<point x="916" y="1190"/>
			<point x="707" y="1190" type="curve" smooth="yes"/>
			<point x="528" y="1190" type="line" smooth="yes"/>
			<point x="504" y="1190"/>
			<point x="492" y="1183"/>
			<point x="487" y="1168" type="curve" smooth="yes"/>
			<point x="113" y="13" type="line" smooth="yes"/>
			<point x="108" y="-4"/>
			<point x="120" y="-11"/>
		</contour>
		<contour>
			<point x="376" y="608" type="curve"/>
			<point x="544" y="1126" type="line"/>
			<point x="700" y="1126" type="line" smooth="yes"/>
			<point x="871" y="1126"/>
			<point x="944" y="1087"/>
			<point x="944" y="963" type="curve" smooth="yes"/>
			<point x="944" y="740"/>
			<point x="730" y="608"/>
		</contour>
	</outline>
	<anchor name="bottom" x="411" y="0"/>
	<anchor name="top" x="734" y="1139"/>
</glyph>
<glyph name="S" format="2">
	<unicode hex="0053"/>
	<advance width="853"/>
	<outline>
		<contour>
			<point x="407" y="-26" type="curve" smooth="yes"/>
			<point x="643" y="-26"/>
			<point x="806" y="122"/>
			<point x="806" y="349" type="curve" smooth="yes"/>
			<point x="806" y="499"/>
			<point x="710" y="572"/>
			<point x="580" y="644" type="curve" smooth="yes"/>
			<point x="467" y="706"/>
			<point x="387" y="761"/>
			<point x="387" y="886" type="curve" smooth="yes"/>
			<point x="387" y="1040"/>
			<point x="503" y="1144"/>
			<point x="663" y="1144" type="curve" smooth="yes"/>
			<point x="764" y="1144"/>
			<point x="853" y="1098"/>
			<point x="927" y="1032" type="curve" smooth="yes"/>
			<point x="937" y="1023"/>
			<point x="951" y="1025"/>
			<point x="963" y="1037" type="curve" smooth="yes"/>
			<point x="977" y="1050"/>
			<point x="980" y="1062"/>
			<point x="969" y="1073" type="curve" smooth="yes"/>
			<point x="894" y="1148"/>
			<point x="779" y="1212"/>
			<point x="663" y="1212" type="curve" smooth="yes"/>
			<point x="458" y="1212"/>
			<point x="313" y="1078"/>
			<point x="313" y="885" type="curve" smooth="yes"/>
			<point x="313" y="724"/>
			<point x="415" y="651"/>
			<point x="541" y="581" type="curve" smooth="yes"/>
			<point x="650" y="521"/>
			<point x="732" y="470"/>
			<point x="732" y="343" type="curve" smooth="yes"/>
			<point x="732" y="160"/>
			<point x="600" y="42"/>
			<point x="410" y="42" type="curve" smooth="yes"/>
			<point x="282" y="42"/>
			<point x="196" y="99"/>
			<point x="133" y="162" type="curve" smooth="yes"/>
			<point x="122" y="173"/>
			<point x="111" y="169"/>
			<point x="97" y="157" type="curve" smooth="yes"/>
			<point x="86" y="147"/>
			<point x="77" y="135"/>
			<point x="87" y="123" type="curve" smooth="yes"/>
			<point x="143" y="56"/>
			<point x="242" y="-26"/>
		</contour>
	</outline>
	<anchor name="bottom" x="391" y="0"/>
	<anchor name="top" x="668" y="1139"/>
</glyph>
<glyph name="T" format="2">
  <advance width="856"/>
  <unicode hex="0054"/>
  <anchor x="361" y="0" name="bottom"/>
  <anchor x="564" y="595" name="center"/>
  <anchor x="729" y="1139" name="top"/>
  <outline>
    <contour>
      <point x="364" y="-12" type="curve" smooth="yes"/>
      <point x="387" y="-12"/>
      <point x="401" y="-5"/>
      <point x="406" y="10" type="curve" smooth="yes"/>
      <point x="770" y="1126" type="line"/>
      <point x="1108" y="1126" type="line" smooth="yes"/>
      <point x="1124" y="1126"/>
      <point x="1132" y="1134"/>
      <point x="1140" y="1158" type="curve" smooth="yes"/>
      <point x="1148" y="1182"/>
      <point x="1145" y="1190"/>
      <point x="1129" y="1190" type="curve" smooth="yes"/>
      <point x="371" y="1190" type="line" smooth="yes"/>
      <point x="355" y="1190"/>
      <point x="346" y="1182"/>
      <point x="338" y="1158" type="curve" smooth="yes"/>
      <point x="330" y="1134"/>
      <point x="334" y="1126"/>
      <point x="350" y="1126" type="curve" smooth="yes"/>
      <point x="700" y="1126" type="line"/>
      <point x="336" y="10" type="line" smooth="yes"/>
      <point x="331" y="-5"/>
      <point x="341" y="-12"/>
    </contour>
  </outline>
</glyph>
<glyph name="U" format="2">
	<unicode hex="0055"/>
	<advance width="1069"/>
	<outline>
		<contour>
			<point x="482" y="-15" type="curve" smooth="yes"/>
			<point x="724" y="-15"/>
			<point x="883" y="113"/>
			<point x="969" y="380" type="curve" smooth="yes"/>
			<point x="1228" y="1188" type="line" smooth="yes"/>
			<point x="1233" y="1204"/>
			<point x="1221" y="1212"/>
			<point x="1197" y="1212" type="curve" smooth="yes"/>
			<point x="1172" y="1212"/>
			<point x="1161" y="1205"/>
			<point x="1156" y="1190" type="curve" smooth="yes"/>
			<point x="900" y="389" type="line" smooth="yes"/>
			<point x="827" y="161"/>
			<point x="695" y="53"/>
			<point x="493" y="53" type="curve" smooth="yes"/>
			<point x="283" y="53"/>
			<point x="228" y="178"/>
			<point x="296" y="389" type="curve" smooth="yes"/>
			<point x="553" y="1188" type="line" smooth="yes"/>
			<point x="558" y="1204"/>
			<point x="545" y="1212"/>
			<point x="521" y="1212" type="curve" smooth="yes"/>
			<point x="496" y="1212"/>
			<point x="485" y="1205"/>
			<point x="480" y="1190" type="curve" smooth="yes"/>
			<point x="227" y="398" type="line" smooth="yes"/>
			<point x="144" y="138"/>
			<point x="244" y="-15"/>
		</contour>
	</outline>
	<anchor name="bottom" x="468" y="0"/>
	<anchor name="ogonek" x="673" y="17"/>
	<anchor name="top" x="812" y="1139"/>
	<anchor name="topright" x="1200" y="1207"/>
</glyph>
<glyph name="W" format="2">
	<unicode hex="0057"/>
	<advance width="1450"/>
	<outline>
		<contour>
			<point x="363" y="-11" type="curve" smooth="yes"/>
			<point x="389" y="-11"/>
			<point x="404" y="-3"/>
			<point x="418" y="21" type="curve" smooth="yes"/>
			<point x="1013" y="1075" type="line"/>
			<point x="987" y="30" type="line" smooth="yes"/>
			<point x="986" y="1"/>
			<point x="1003" y="-11"/>
			<point x="1023" y="-11" type="curve" smooth="yes"/>
			<point x="1049" y="-11"/>
			<point x="1064" y="-3"/>
			<point x="1078" y="21" type="curve" smooth="yes"/>
			<point x="1733" y="1170" type="line" smooth="yes"/>
			<point x="1746" y="1193"/>
			<point x="1739" y="1212"/>
			<point x="1711" y="1212" type="curve" smooth="yes"/>
			<point x="1684" y="1212"/>
			<point x="1677" y="1208"/>
			<point x="1661" y="1180" type="curve" smooth="yes"/>
			<point x="1053" y="107" type="line"/>
			<point x="1081" y="1183" type="line" smooth="yes"/>
			<point x="1082" y="1203"/>
			<point x="1073" y="1212"/>
			<point x="1049" y="1212" type="curve" smooth="yes"/>
			<point x="1021" y="1212"/>
			<point x="1012" y="1209"/>
			<point x="996" y="1180" type="curve" smooth="yes"/>
			<point x="394" y="109" type="line"/>
			<point x="418" y="1183" type="line" smooth="yes"/>
			<point x="418" y="1204"/>
			<point x="412" y="1212"/>
			<point x="389" y="1212" type="curve" smooth="yes"/>
			<point x="362" y="1212"/>
			<point x="351" y="1198"/>
			<point x="351" y="1176" type="curve" smooth="yes"/>
			<point x="329" y="30" type="line" smooth="yes"/>
			<point x="328" y="-4"/>
			<point x="343" y="-11"/>
		</contour>
	</outline>
	<anchor name="bottom" x="717" y="0"/>
	<anchor name="top" x="1013" y="1139"/>
</glyph>
<glyph name="Y" format="2">
  <advance width="1000"/>
  <unicode hex="0059"/>
  <anchor x="435" y="0" name="bottom"/>
  <anchor x="838" y="1424" name="top"/>
  <outline>
    <contour>
      <point x="414" y="-14" type="curve" smooth="yes"/>
      <point x="443" y="-14"/>
      <point x="463" y="-5"/>
      <point x="469" y="14" type="curve" smooth="yes"/>
      <point x="676" y="650" type="line"/>
      <point x="1388" y="1463" type="line" smooth="yes"/>
      <point x="1415" y="1493"/>
      <point x="1401" y="1515"/>
      <point x="1355" y="1515" type="curve" smooth="yes"/>
      <point x="1334" y="1515"/>
      <point x="1321" y="1510"/>
      <point x="1309" y="1496" type="curve" smooth="yes"/>
      <point x="653" y="744" type="line"/>
      <point x="490" y="1479" type="line" smooth="yes"/>
      <point x="485" y="1503"/>
      <point x="476" y="1515"/>
      <point x="446" y="1515" type="curve" smooth="yes"/>
      <point x="411" y="1515"/>
      <point x="398" y="1496"/>
      <point x="404" y="1470" type="curve" smooth="yes"/>
      <point x="586" y="653" type="line"/>
      <point x="379" y="14" type="line" smooth="yes"/>
      <point x="373" y="-5"/>
      <point x="385" y="-14"/>
    </contour>
  </outline>
</glyph>
<glyph name="Z" format="2">
  <advance width="950"/>
  <unicode hex="005A"/>
  <anchor x="413" y="0" name="bottom"/>
  <anchor x="636" y="784" name="center"/>
  <anchor x="796" y="1424" name="top"/>
  <outline>
    <contour>
      <point x="-20" y="0" type="curve" smooth="yes"/>
      <point x="815" y="0" type="line" smooth="yes"/>
      <point x="830" y="0"/>
      <point x="844" y="14"/>
      <point x="851" y="40" type="curve" smooth="yes"/>
      <point x="859" y="68"/>
      <point x="853" y="80"/>
      <point x="838" y="80" type="curve" smooth="yes"/>
      <point x="101" y="80" type="line"/>
      <point x="1259" y="1430" type="line" smooth="yes"/>
      <point x="1279" y="1454"/>
      <point x="1271" y="1488"/>
      <point x="1248" y="1488" type="curve" smooth="yes"/>
      <point x="480" y="1488" type="line" smooth="yes"/>
      <point x="465" y="1488"/>
      <point x="451" y="1474"/>
      <point x="444" y="1448" type="curve" smooth="yes"/>
      <point x="436" y="1420"/>
      <point x="443" y="1408"/>
      <point x="458" y="1408" type="curve" smooth="yes"/>
      <point x="1125" y="1408" type="line"/>
      <point x="-31" y="58" type="line" smooth="yes"/>
      <point x="-51" y="34"/>
      <point x="-44" y="0"/>
    </contour>
  </outline>
</glyph>
<glyph name="backslash" format="2">
  <advance width="525"/>
  <unicode hex="005C"/>
  <outline>
    <contour>
      <point x="490" y="-76" type="curve" smooth="yes"/>
      <point x="519" y="-74"/>
      <point x="534" y="-64"/>
      <point x="533" y="-44" type="curve" smooth="yes"/>
      <point x="408" y="1553" type="line" smooth="yes"/>
      <point x="406" y="1573"/>
      <point x="390" y="1580"/>
      <point x="361" y="1578" type="curve" smooth="yes"/>
      <point x="333" y="1575"/>
      <point x="319" y="1565"/>
      <point x="320" y="1545" type="curve" smooth="yes"/>
      <point x="445" y="-51" type="line" smooth="yes"/>
      <point x="446" y="-71"/>
      <point x="461" y="-79"/>
    </contour>
  </outline>
</glyph>
<glyph name="asciicircum" format="2">
  <advance width="610"/>
  <unicode hex="005E"/>
  <outline>
    <contour>
      <point x="330" y="916" type="line" smooth="yes"/>
      <point x="311" y="897"/>
      <point x="311" y="888"/>
      <point x="327" y="874" type="curve" smooth="yes"/>
      <point x="345" y="859"/>
      <point x="358" y="859"/>
      <point x="377" y="879" type="curve" smooth="yes"/>
      <point x="614" y="1129" type="line"/>
      <point x="681" y="898" type="line" smooth="yes"/>
      <point x="688" y="873"/>
      <point x="701" y="866"/>
      <point x="724" y="875" type="curve" smooth="yes"/>
      <point x="746" y="883"/>
      <point x="751" y="894"/>
      <point x="745" y="915" type="curve" smooth="yes"/>
      <point x="664" y="1187" type="line" smooth="yes"/>
      <point x="659" y="1204"/>
      <point x="652" y="1212"/>
      <point x="634" y="1212" type="curve" smooth="yes"/>
      <point x="616" y="1212"/>
      <point x="605" y="1205"/>
      <point x="588" y="1187" type="curve" smooth="yes"/>
    </contour>
  </outline>
</glyph>
<glyph name="a" format="2">
  <advance width="498"/>
  <unicode hex="0061"/>
  <anchor x="185" y="0" name="bottom"/>
  <anchor x="436" y="10" name="ogonek"/>
  <anchor x="299" y="400" name="top"/>
  <outline>
    <contour>
      <point x="152" y="-14" type="curve" smooth="yes"/>
      <point x="188" y="-14"/>
      <point x="245" y="0"/>
      <point x="296" y="65" type="curve"/>
      <point x="296" y="62"/>
      <point x="296" y="60"/>
      <point x="296" y="57" type="curve" smooth="yes"/>
      <point x="297" y="16"/>
      <point x="318" y="-14"/>
      <point x="378" y="-14" type="curve" smooth="yes"/>
      <point x="429" y="-14"/>
      <point x="464" y="23"/>
      <point x="481" y="53" type="curve" smooth="yes"/>
      <point x="487" y="64"/>
      <point x="490" y="76"/>
      <point x="472" y="87" type="curve" smooth="yes"/>
      <point x="454" y="98"/>
      <point x="443" y="92"/>
      <point x="437" y="83" type="curve" smooth="yes"/>
      <point x="427" y="68"/>
      <point x="409" y="46"/>
      <point x="385" y="46" type="curve" smooth="yes"/>
      <point x="356" y="46"/>
      <point x="363" y="77"/>
      <point x="369" y="95" type="curve" smooth="yes"/>
      <point x="462" y="381" type="line" smooth="yes"/>
      <point x="469" y="402"/>
      <point x="462" y="412"/>
      <point x="429" y="412" type="curve" smooth="yes"/>
      <point x="408" y="412"/>
      <point x="400" y="408"/>
      <point x="393" y="386" type="curve" smooth="yes"/>
      <point x="392" y="383" type="line"/>
      <point x="363" y="402"/>
      <point x="328" y="415"/>
      <point x="291" y="415" type="curve" smooth="yes"/>
      <point x="113" y="415"/>
      <point x="35" y="238"/>
      <point x="35" y="121" type="curve" smooth="yes"/>
      <point x="35" y="37"/>
      <point x="78" y="-14"/>
    </contour>
    <contour>
      <point x="107" y="128" type="curve" smooth="yes"/>
      <point x="107" y="207"/>
      <point x="155" y="352"/>
      <point x="296" y="352" type="curve" smooth="yes"/>
      <point x="323" y="352"/>
      <point x="347" y="347"/>
      <point x="375" y="331" type="curve"/>
      <point x="321" y="167" type="line"/>
      <point x="279" y="94"/>
      <point x="227" y="50"/>
      <point x="175" y="50" type="curve" smooth="yes"/>
      <point x="130" y="50"/>
      <point x="107" y="77"/>
    </contour>
  </outline>
</glyph>
<glyph name="b" format="2">
  <advance width="478"/>
  <unicode hex="0062"/>
  <anchor x="194" y="0" name="bottom"/>
  <anchor x="259" y="200" name="center"/>
  <anchor x="324" y="400" name="top"/>
  <outline>
    <contour>
      <point x="50" y="-12" type="curve" smooth="yes"/>
      <point x="74" y="-12"/>
      <point x="83" y="-6"/>
      <point x="88" y="9" type="curve" smooth="yes"/>
      <point x="90" y="16" type="line"/>
      <point x="119" y="-2"/>
      <point x="152" y="-14"/>
      <point x="187" y="-14" type="curve" smooth="yes"/>
      <point x="361" y="-14"/>
      <point x="442" y="157"/>
      <point x="442" y="280" type="curve" smooth="yes"/>
      <point x="442" y="363"/>
      <point x="400" y="415"/>
      <point x="326" y="415" type="curve" smooth="yes"/>
      <point x="293" y="415"/>
      <point x="246" y="403"/>
      <point x="200" y="353" type="curve"/>
      <point x="471" y="1182" type="line" smooth="yes"/>
      <point x="477" y="1201"/>
      <point x="471" y="1212"/>
      <point x="438" y="1212" type="curve" smooth="yes"/>
      <point x="417" y="1212"/>
      <point x="409" y="1207"/>
      <point x="402" y="1186" type="curve" smooth="yes"/>
      <point x="20" y="14" type="line" smooth="yes"/>
      <point x="14" y="-5"/>
      <point x="33" y="-12"/>
    </contour>
    <contour>
      <point x="107" y="68" type="curve"/>
      <point x="168" y="253" type="line"/>
      <point x="208" y="314"/>
      <point x="256" y="351"/>
      <point x="303" y="351" type="curve" smooth="yes"/>
      <point x="348" y="351"/>
      <point x="370" y="324"/>
      <point x="370" y="273" type="curve" smooth="yes"/>
      <point x="370" y="190"/>
      <point x="321" y="49"/>
      <point x="182" y="49" type="curve" smooth="yes"/>
      <point x="157" y="49"/>
      <point x="134" y="54"/>
    </contour>
  </outline>
</glyph>
<glyph name="c" format="2">
	<unicode hex="0063"/>
	<advance width="418"/>
	<outline>
		<contour>
			<point x="193" y="-15" type="curve" smooth="yes"/>
			<point x="235" y="-15"/>
			<point x="309" y="-2"/>
			<point x="359" y="66" type="curve" smooth="yes"/>
			<point x="371" y="82"/>
			<point x="371" y="94"/>
			<point x="355" y="108" type="curve" smooth="yes"/>
			<point x="342" y="120"/>
			<point x="327" y="123"/>
			<point x="313" y="110" type="curve" smooth="yes"/>
			<point x="273" y="70"/>
			<point x="254" y="49"/>
			<point x="201" y="49" type="curve" smooth="yes"/>
			<point x="146" y="49"/>
			<point x="112" y="83"/>
			<point x="112" y="145" type="curve" smooth="yes"/>
			<point x="112" y="223"/>
			<point x="167" y="351"/>
			<point x="274" y="351" type="curve" smooth="yes"/>
			<point x="322" y="351"/>
			<point x="350" y="339"/>
			<point x="370" y="317" type="curve" smooth="yes"/>
			<point x="384" y="301"/>
			<point x="398" y="304"/>
			<point x="412" y="315" type="curve" smooth="yes"/>
			<point x="425" y="326"/>
			<point x="433" y="339"/>
			<point x="417" y="358" type="curve" smooth="yes"/>
			<point x="385" y="395"/>
			<point x="344" y="415"/>
			<point x="281" y="415" type="curve" smooth="yes"/>
			<point x="124" y="415"/>
			<point x="40" y="253"/>
			<point x="40" y="142" type="curve" smooth="yes"/>
			<point x="40" y="50"/>
			<point x="87" y="-15"/>
		</contour>
	</outline>
	<anchor name="bottom" x="172" y="0"/>
	<anchor name="top" x="292" y="400"/>
</glyph>
<glyph name="d" format="2">
	<unicode hex="0064"/>
	<advance width="503"/>
	<outline>
		<contour>
			<point x="152" y="-14" type="curve" smooth="yes"/>
			<point x="189" y="-14"/>
			<point x="246" y="1"/>
			<point x="298" y="67" type="curve"/>
			<point x="298" y="66"/>
			<point x="298" y="66"/>
			<point x="298" y="65" type="curve" smooth="yes"/>
			<point x="297" y="15"/>
			<point x="326" y="-14"/>
			<point x="380" y="-14" type="curve" smooth="yes"/>
			<point x="431" y="-14"/>
			<point x="467" y="23"/>
			<point x="484" y="53" type="curve" smooth="yes"/>
			<point x="490" y="64"/>
			<point x="493" y="76"/>
			<point x="475" y="87" type="curve" smooth="yes"/>
			<point x="457" y="98"/>
			<point x="446" y="92"/>
			<point x="440" y="83" type="curve" smooth="yes"/>
			<point x="430" y="68"/>
			<point x="412" y="46"/>
			<point x="388" y="46" type="curve" smooth="yes"/>
			<point x="366" y="46"/>
			<point x="361" y="65"/>
			<point x="372" y="99" type="curve" smooth="yes"/>
			<point x="724" y="1181" type="line" smooth="yes"/>
			<point x="731" y="1202"/>
			<point x="724" y="1212"/>
			<point x="691" y="1212" type="curve" smooth="yes"/>
			<point x="670" y="1212"/>
			<point x="662" y="1208"/>
			<point x="655" y="1186" type="curve" smooth="yes"/>
			<point x="393" y="383" type="line"/>
			<point x="363" y="402"/>
			<point x="329" y="415"/>
			<point x="291" y="415" type="curve" smooth="yes"/>
			<point x="113" y="415"/>
			<point x="35" y="238"/>
			<point x="35" y="121" type="curve" smooth="yes"/>
			<point x="35" y="37"/>
			<point x="78" y="-14"/>
		</contour>
		<contour>
			<point x="107" y="128" type="curve" smooth="yes"/>
			<point x="107" y="207"/>
			<point x="155" y="352"/>
			<point x="296" y="352" type="curve" smooth="yes"/>
			<point x="323" y="352"/>
			<point x="347" y="346"/>
			<point x="376" y="331" type="curve"/>
			<point x="326" y="175" type="line"/>
			<point x="282" y="98"/>
			<point x="229" y="50"/>
			<point x="175" y="50" type="curve" smooth="yes"/>
			<point x="130" y="50"/>
			<point x="107" y="77"/>
		</contour>
	</outline>
	<anchor name="bottom" x="157" y="0"/>
	<anchor name="center" x="534" y="758"/>
	<anchor name="top" x="257" y="400"/>
	<anchor name="topright" x="706" y="1200"/>
</glyph>
<glyph name="e" format="2">
  <advance width="526"/>
  <unicode hex="0065"/>
  <guideline x="363"/>
  <anchor x="218" y="0" name="bottom"/>
  <anchor x="355" y="13" name="ogonek"/>
  <anchor x="360" y="500" name="top"/>
  <outline>
    <contour>
      <point x="238" y="-19" type="curve" smooth="yes"/>
      <point x="309" y="-19"/>
      <point x="370" y="10"/>
      <point x="434" y="70" type="curve" smooth="yes"/>
      <point x="451" y="86"/>
      <point x="448" y="105"/>
      <point x="429" y="123" type="curve" smooth="yes"/>
      <point x="414" y="138"/>
      <point x="398" y="141"/>
      <point x="379" y="125" type="curve" smooth="yes"/>
      <point x="338" y="90"/>
      <point x="304" y="61"/>
      <point x="248" y="61" type="curve" smooth="yes"/>
      <point x="188" y="61"/>
      <point x="140" y="104"/>
      <point x="140" y="181" type="curve" smooth="yes"/>
      <point x="140" y="279"/>
      <point x="208" y="439"/>
      <point x="360" y="439" type="curve" smooth="yes"/>
      <point x="410" y="439"/>
      <point x="428" y="420"/>
      <point x="428" y="386" type="curve" smooth="yes"/>
      <point x="428" y="329"/>
      <point x="315" y="259"/>
      <point x="129" y="259" type="curve"/>
      <point x="106" y="189" type="line"/>
      <point x="359" y="190"/>
      <point x="516" y="279"/>
      <point x="516" y="405" type="curve" smooth="yes"/>
      <point x="516" y="480"/>
      <point x="453" y="519"/>
      <point x="370" y="519" type="curve" smooth="yes"/>
      <point x="155" y="519"/>
      <point x="50" y="323"/>
      <point x="50" y="178" type="curve" smooth="yes"/>
      <point x="50" y="63"/>
      <point x="120" y="-19"/>
    </contour>
  </outline>
</glyph>
<glyph name="g" format="2">
	<unicode hex="0067"/>
	<advance width="478"/>
	<outline>
		<contour>
			<point x="-82" y="-815" type="curve" smooth="yes"/>
			<point x="33" y="-815"/>
			<point x="90" y="-760"/>
			<point x="136" y="-620" type="curve" smooth="yes"/>
			<point x="463" y="381" type="line" smooth="yes"/>
			<point x="470" y="401"/>
			<point x="463" y="412"/>
			<point x="430" y="412" type="curve" smooth="yes"/>
			<point x="409" y="412"/>
			<point x="401" y="407"/>
			<point x="394" y="386" type="curve" smooth="yes"/>
			<point x="68" y="-618" type="line" smooth="yes"/>
			<point x="36" y="-715"/>
			<point x="0" y="-753"/>
			<point x="-76" y="-753" type="curve" smooth="yes"/>
			<point x="-111" y="-753"/>
			<point x="-140" y="-747"/>
			<point x="-160" y="-711" type="curve" smooth="yes"/>
			<point x="-170" y="-693"/>
			<point x="-183" y="-691"/>
			<point x="-201" y="-699" type="curve" smooth="yes"/>
			<point x="-224" y="-709"/>
			<point x="-225" y="-723"/>
			<point x="-216" y="-743" type="curve" smooth="yes"/>
			<point x="-198" y="-782"/>
			<point x="-145" y="-815"/>
		</contour>
		<contour>
			<point x="154" y="-14" type="curve" smooth="yes"/>
			<point x="202" y="-14"/>
			<point x="282" y="11"/>
			<point x="342" y="143" type="curve"/>
			<point x="331" y="181" type="line"/>
			<point x="287" y="100"/>
			<point x="232" y="50"/>
			<point x="177" y="50" type="curve" smooth="yes"/>
			<point x="132" y="50"/>
			<point x="109" y="77"/>
			<point x="109" y="128" type="curve" smooth="yes"/>
			<point x="109" y="207"/>
			<point x="157" y="352"/>
			<point x="298" y="352" type="curve" smooth="yes"/>
			<point x="334" y="352"/>
			<point x="366" y="342"/>
			<point x="409" y="311" type="curve"/>
			<point x="418" y="366" type="line"/>
			<point x="384" y="394"/>
			<point x="341" y="415"/>
			<point x="293" y="415" type="curve" smooth="yes"/>
			<point x="115" y="415"/>
			<point x="37" y="238"/>
			<point x="37" y="121" type="curve" smooth="yes"/>
			<point x="37" y="37"/>
			<point x="80" y="-14"/>
		</contour>
	</outline>
	<anchor name="top" x="290" y="400"/>
	<guideline x="409" y="261" angle="72"/>
</glyph>
<glyph name="h" format="2">
  <advance width="652"/>
  <unicode hex="0068"/>
  <guideline x="204" y="507" angle="72"/>
  <anchor x="267" y="0" name="bottom"/>
  <anchor x="402" y="948" name="center"/>
  <anchor x="527" y="1424" name="top"/>
  <outline>
    <contour>
      <point x="502" y="-17" type="curve" smooth="yes"/>
      <point x="566" y="-17"/>
      <point x="610" y="29"/>
      <point x="631" y="66" type="curve" smooth="yes"/>
      <point x="639" y="80"/>
      <point x="642" y="95"/>
      <point x="620" y="109" type="curve" smooth="yes"/>
      <point x="597" y="123"/>
      <point x="584" y="115"/>
      <point x="576" y="104" type="curve" smooth="yes"/>
      <point x="564" y="85"/>
      <point x="541" y="58"/>
      <point x="511" y="58" type="curve" smooth="yes"/>
      <point x="475" y="58"/>
      <point x="484" y="96"/>
      <point x="491" y="119" type="curve" smooth="yes"/>
      <point x="551" y="308" type="line" smooth="yes"/>
      <point x="590" y="430"/>
      <point x="561" y="519"/>
      <point x="442" y="519" type="curve" smooth="yes"/>
      <point x="372" y="519"/>
      <point x="304" y="485"/>
      <point x="247" y="425" type="curve"/>
      <point x="587" y="1476" type="line" smooth="yes"/>
      <point x="596" y="1503"/>
      <point x="587" y="1515"/>
      <point x="546" y="1515" type="curve" smooth="yes"/>
      <point x="520" y="1515"/>
      <point x="510" y="1510"/>
      <point x="501" y="1483" type="curve" smooth="yes"/>
      <point x="29" y="18" type="line" smooth="yes"/>
      <point x="21" y="-6"/>
      <point x="45" y="-15"/>
      <point x="66" y="-15" type="curve" smooth="yes"/>
      <point x="96" y="-15"/>
      <point x="107" y="-7"/>
      <point x="114" y="11" type="curve" smooth="yes"/>
      <point x="205" y="293" type="line"/>
      <point x="257" y="383"/>
      <point x="336" y="440"/>
      <point x="411" y="440" type="curve" smooth="yes"/>
      <point x="472" y="440"/>
      <point x="495" y="406"/>
      <point x="475" y="344" type="curve" smooth="yes"/>
      <point x="417" y="166" type="line" smooth="yes"/>
      <point x="387" y="75"/>
      <point x="385" y="-17"/>
    </contour>
  </outline>
</glyph>
<glyph name="i" format="2">
  <advance width="305"/>
  <unicode hex="0069"/>
  <guideline x="183" y="489" angle="72"/>
  <anchor x="124" y="0" name="bottom"/>
  <anchor x="178" y="0" name="ogonek"/>
  <outline>
    <contour>
      <point x="150" y="-17" type="curve" smooth="yes"/>
      <point x="214" y="-17"/>
      <point x="260" y="29"/>
      <point x="281" y="66" type="curve" smooth="yes"/>
      <point x="289" y="80"/>
      <point x="293" y="95"/>
      <point x="270" y="109" type="curve" smooth="yes"/>
      <point x="248" y="123"/>
      <point x="234" y="115"/>
      <point x="226" y="104" type="curve" smooth="yes"/>
      <point x="214" y="85"/>
      <point x="190" y="58"/>
      <point x="160" y="58" type="curve" smooth="yes"/>
      <point x="133" y="58"/>
      <point x="126" y="81"/>
      <point x="140" y="124" type="curve" smooth="yes"/>
      <point x="254" y="476" type="line" smooth="yes"/>
      <point x="263" y="503"/>
      <point x="254" y="515"/>
      <point x="213" y="515" type="curve" smooth="yes"/>
      <point x="186" y="515"/>
      <point x="176" y="510"/>
      <point x="168" y="483" type="curve" smooth="yes"/>
      <point x="60" y="150" type="line" smooth="yes"/>
      <point x="26" y="46"/>
      <point x="61" y="-17"/>
    </contour>
    <contour>
      <point x="275" y="669" type="curve" smooth="yes"/>
      <point x="325" y="669"/>
      <point x="348" y="708"/>
      <point x="348" y="744" type="curve" smooth="yes"/>
      <point x="348" y="778"/>
      <point x="326" y="795"/>
      <point x="299" y="795" type="curve" smooth="yes"/>
      <point x="249" y="795"/>
      <point x="226" y="756"/>
      <point x="226" y="720" type="curve" smooth="yes"/>
      <point x="226" y="686"/>
      <point x="248" y="669"/>
    </contour>
  </outline>
</glyph>
<glyph name="j" format="2">
	<unicode hex="006A"/>
	<advance width="214"/>
	<outline>
		<contour>
			<point x="-270" y="-815" type="curve" smooth="yes"/>
			<point x="-220" y="-815"/>
			<point x="-185" y="-798"/>
			<point x="-152" y="-698" type="curve" smooth="yes"/>
			<point x="201" y="381" type="line" smooth="yes"/>
			<point x="208" y="402"/>
			<point x="201" y="412"/>
			<point x="168" y="412" type="curve" smooth="yes"/>
			<point x="147" y="412"/>
			<point x="139" y="407"/>
			<point x="132" y="386" type="curve" smooth="yes"/>
			<point x="-217" y="-681" type="line" smooth="yes"/>
			<point x="-235" y="-735"/>
			<point x="-243" y="-755"/>
			<point x="-264" y="-755" type="curve" smooth="yes"/>
			<point x="-278" y="-755"/>
			<point x="-289" y="-747"/>
			<point x="-308" y="-724" type="curve" smooth="yes"/>
			<point x="-318" y="-711"/>
			<point x="-331" y="-711"/>
			<point x="-347" y="-723" type="curve" smooth="yes"/>
			<point x="-367" y="-738"/>
			<point x="-364" y="-749"/>
			<point x="-353" y="-765" type="curve" smooth="yes"/>
			<point x="-332" y="-797"/>
			<point x="-301" y="-815"/>
		</contour>
		<contour>
			<point x="221" y="535" type="curve" smooth="yes"/>
			<point x="261" y="535"/>
			<point x="279" y="566"/>
			<point x="279" y="595" type="curve" smooth="yes"/>
			<point x="279" y="622"/>
			<point x="262" y="636"/>
			<point x="240" y="636" type="curve" smooth="yes"/>
			<point x="200" y="636"/>
			<point x="182" y="605"/>
			<point x="182" y="576" type="curve" smooth="yes"/>
			<point x="182" y="549"/>
			<point x="199" y="535"/>
		</contour>
	</outline>
</glyph>
<glyph name="k" format="2">
  <advance width="565"/>
  <unicode hex="006B"/>
  <anchor x="217" y="0" name="bottom"/>
  <anchor x="334" y="838" name="top"/>
  <outline>
    <contour>
      <point x="66" y="-15" type="curve" smooth="yes"/>
      <point x="96" y="-15"/>
      <point x="107" y="-7"/>
      <point x="114" y="11" type="curve" smooth="yes"/>
      <point x="184" y="226" type="line"/>
      <point x="265" y="20"/>
      <point x="302" y="-19"/>
      <point x="362" y="-19" type="curve" smooth="yes"/>
      <point x="389" y="-19"/>
      <point x="437" y="-7"/>
      <point x="499" y="51" type="curve" smooth="yes"/>
      <point x="515" y="66"/>
      <point x="511" y="83"/>
      <point x="499" y="98" type="curve" smooth="yes"/>
      <point x="487" y="111"/>
      <point x="472" y="115"/>
      <point x="456" y="103" type="curve" smooth="yes"/>
      <point x="429" y="80"/>
      <point x="395" y="58"/>
      <point x="375" y="58" type="curve" smooth="yes"/>
      <point x="342" y="58"/>
      <point x="334" y="75"/>
      <point x="254" y="276" type="curve"/>
      <point x="549" y="444" type="line" smooth="yes"/>
      <point x="575" y="459"/>
      <point x="571" y="476"/>
      <point x="560" y="496" type="curve" smooth="yes"/>
      <point x="546" y="520"/>
      <point x="531" y="520"/>
      <point x="509" y="508" type="curve" smooth="yes"/>
      <point x="222" y="345" type="line"/>
      <point x="587" y="1476" type="line" smooth="yes"/>
      <point x="596" y="1503"/>
      <point x="587" y="1515"/>
      <point x="546" y="1515" type="curve" smooth="yes"/>
      <point x="520" y="1515"/>
      <point x="510" y="1509"/>
      <point x="501" y="1483" type="curve" smooth="yes"/>
      <point x="29" y="18" type="line" smooth="yes"/>
      <point x="21" y="-6"/>
      <point x="45" y="-15"/>
    </contour>
  </outline>
</glyph>
<glyph name="l" format="2">
	<unicode hex="006C"/>
	<advance width="244"/>
	<outline>
		<contour>
			<point x="121" y="-14" type="curve" smooth="yes"/>
			<point x="172" y="-14"/>
			<point x="208" y="23"/>
			<point x="225" y="53" type="curve" smooth="yes"/>
			<point x="231" y="64"/>
			<point x="234" y="76"/>
			<point x="216" y="87" type="curve" smooth="yes"/>
			<point x="198" y="98"/>
			<point x="187" y="92"/>
			<point x="181" y="83" type="curve" smooth="yes"/>
			<point x="171" y="68"/>
			<point x="153" y="46"/>
			<point x="129" y="46" type="curve" smooth="yes"/>
			<point x="107" y="46"/>
			<point x="103" y="67"/>
			<point x="113" y="99" type="curve" smooth="yes"/>
			<point x="465" y="1181" type="line" smooth="yes"/>
			<point x="472" y="1201"/>
			<point x="465" y="1212"/>
			<point x="432" y="1212" type="curve" smooth="yes"/>
			<point x="411" y="1212"/>
			<point x="403" y="1207"/>
			<point x="396" y="1186" type="curve" smooth="yes"/>
			<point x="49" y="120" type="line" smooth="yes"/>
			<point x="23" y="39"/>
			<point x="50" y="-14"/>
		</contour>
	</outline>
	<anchor name="bottom" x="100" y="0"/>
	<anchor name="center" x="232" y="570"/>
	<anchor name="top" x="424" y="1139"/>
	<anchor name="topright" x="459" y="1200"/>
</glyph>
<glyph name="m" format="2">
  <advance width="771"/>
  <unicode hex="006D"/>
  <anchor x="310" y="0" name="bottom"/>
  <anchor x="431" y="400" name="top"/>
  <outline>
    <contour>
      <point x="651" y="-14" type="curve" smooth="yes"/>
      <point x="702" y="-14"/>
      <point x="737" y="23"/>
      <point x="754" y="53" type="curve" smooth="yes"/>
      <point x="760" y="64"/>
      <point x="763" y="76"/>
      <point x="745" y="87" type="curve" smooth="yes"/>
      <point x="727" y="98"/>
      <point x="716" y="92"/>
      <point x="710" y="83" type="curve" smooth="yes"/>
      <point x="700" y="68"/>
      <point x="682" y="46"/>
      <point x="658" y="46" type="curve" smooth="yes"/>
      <point x="629" y="46"/>
      <point x="636" y="77"/>
      <point x="642" y="95" type="curve" smooth="yes"/>
      <point x="690" y="246" type="line" smooth="yes"/>
      <point x="718" y="333"/>
      <point x="703" y="415"/>
      <point x="614" y="415" type="curve" smooth="yes"/>
      <point x="535" y="415"/>
      <point x="457" y="362"/>
      <point x="405" y="272" type="curve"/>
      <point x="415" y="222" type="line"/>
      <point x="457" y="301"/>
      <point x="525" y="352"/>
      <point x="586" y="352" type="curve" smooth="yes"/>
      <point x="639" y="352"/>
      <point x="642" y="314"/>
      <point x="629" y="275" type="curve" smooth="yes"/>
      <point x="583" y="133" type="line" smooth="yes"/>
      <point x="559" y="60"/>
      <point x="557" y="-14"/>
    </contour>
    <contour>
      <point x="45" y="-12" type="curve" smooth="yes"/>
      <point x="69" y="-12"/>
      <point x="78" y="-6"/>
      <point x="83" y="9" type="curve" smooth="yes"/>
      <point x="204" y="381" type="line" smooth="yes"/>
      <point x="211" y="402"/>
      <point x="204" y="412"/>
      <point x="171" y="412" type="curve" smooth="yes"/>
      <point x="150" y="412"/>
      <point x="142" y="408"/>
      <point x="135" y="386" type="curve" smooth="yes"/>
      <point x="15" y="14" type="line" smooth="yes"/>
      <point x="8" y="-6"/>
      <point x="28" y="-12"/>
    </contour>
    <contour>
      <point x="310" y="-12" type="curve"/>
      <point x="334" y="-12"/>
      <point x="343" y="-6"/>
      <point x="348" y="9" type="curve" smooth="yes"/>
      <point x="425" y="246" type="line" smooth="yes"/>
      <point x="453" y="333"/>
      <point x="438" y="415"/>
      <point x="349" y="415" type="curve" smooth="yes"/>
      <point x="270" y="415"/>
      <point x="192" y="362"/>
      <point x="140" y="272" type="curve"/>
      <point x="150" y="222" type="line"/>
      <point x="192" y="301"/>
      <point x="260" y="352"/>
      <point x="321" y="352" type="curve" smooth="yes"/>
      <point x="374" y="352"/>
      <point x="377" y="314"/>
      <point x="364" y="275" type="curve" smooth="yes"/>
      <point x="280" y="14" type="line" smooth="yes"/>
      <point x="274" y="-6"/>
      <point x="293" y="-12"/>
    </contour>
  </outline>
</glyph>
<glyph name="n" format="2">
	<unicode hex="006E"/>
	<advance width="517"/>
	<outline>
		<contour>
			<point x="397" y="-14" type="curve" smooth="yes"/>
			<point x="448" y="-14"/>
			<point x="483" y="23"/>
			<point x="500" y="53" type="curve" smooth="yes"/>
			<point x="506" y="64"/>
			<point x="509" y="76"/>
			<point x="491" y="87" type="curve" smooth="yes"/>
			<point x="473" y="98"/>
			<point x="462" y="92"/>
			<point x="456" y="83" type="curve" smooth="yes"/>
			<point x="446" y="68"/>
			<point x="428" y="46"/>
			<point x="404" y="46" type="curve" smooth="yes"/>
			<point x="375" y="46"/>
			<point x="382" y="77"/>
			<point x="388" y="95" type="curve" smooth="yes"/>
			<point x="436" y="246" type="line" smooth="yes"/>
			<point x="467" y="344"/>
			<point x="444" y="415"/>
			<point x="349" y="415" type="curve" smooth="yes"/>
			<point x="293" y="415"/>
			<point x="237" y="388"/>
			<point x="191" y="340" type="curve"/>
			<point x="204" y="381" type="line" smooth="yes"/>
			<point x="211" y="402"/>
			<point x="204" y="412"/>
			<point x="171" y="412" type="curve" smooth="yes"/>
			<point x="150" y="412"/>
			<point x="142" y="408"/>
			<point x="135" y="386" type="curve" smooth="yes"/>
			<point x="15" y="14" type="line" smooth="yes"/>
			<point x="8" y="-6"/>
			<point x="28" y="-12"/>
			<point x="45" y="-12" type="curve" smooth="yes"/>
			<point x="69" y="-12"/>
			<point x="78" y="-6"/>
			<point x="83" y="9" type="curve" smooth="yes"/>
			<point x="157" y="235" type="line"/>
			<point x="200" y="307"/>
			<point x="264" y="352"/>
			<point x="324" y="352" type="curve" smooth="yes"/>
			<point x="373" y="352"/>
			<point x="391" y="325"/>
			<point x="375" y="275" type="curve" smooth="yes"/>
			<point x="329" y="133" type="line" smooth="yes"/>
			<point x="305" y="60"/>
			<point x="303" y="-14"/>
		</contour>
	</outline>
	<anchor name="bottom" x="200" y="0"/>
	<anchor name="top" x="287" y="400"/>
</glyph>
<glyph name="p" format="2">
	<unicode hex="0070"/>
	<advance width="478"/>
	<outline>
		<contour>
			<point x="-210" y="-812" type="curve" smooth="yes"/>
			<point x="-186" y="-812"/>
			<point x="-177" y="-806"/>
			<point x="-172" y="-791" type="curve" smooth="yes"/>
			<point x="90" y="16" type="line"/>
			<point x="119" y="-2"/>
			<point x="152" y="-14"/>
			<point x="187" y="-14" type="curve" smooth="yes"/>
			<point x="361" y="-14"/>
			<point x="442" y="157"/>
			<point x="442" y="280" type="curve" smooth="yes"/>
			<point x="442" y="363"/>
			<point x="400" y="415"/>
			<point x="326" y="415" type="curve" smooth="yes"/>
			<point x="293" y="415"/>
			<point x="246" y="403"/>
			<point x="200" y="353" type="curve"/>
			<point x="209" y="381" type="line" smooth="yes"/>
			<point x="216" y="402"/>
			<point x="209" y="412"/>
			<point x="176" y="412" type="curve" smooth="yes"/>
			<point x="155" y="412"/>
			<point x="147" y="407"/>
			<point x="140" y="386" type="curve" smooth="yes"/>
			<point x="-240" y="-786" type="line" smooth="yes"/>
			<point x="-246" y="-805"/>
			<point x="-227" y="-812"/>
		</contour>
		<contour>
			<point x="107" y="68" type="curve"/>
			<point x="167" y="252" type="line"/>
			<point x="207" y="314"/>
			<point x="256" y="351"/>
			<point x="303" y="351" type="curve" smooth="yes"/>
			<point x="348" y="351"/>
			<point x="370" y="324"/>
			<point x="370" y="273" type="curve" smooth="yes"/>
			<point x="370" y="190"/>
			<point x="321" y="49"/>
			<point x="182" y="49" type="curve" smooth="yes"/>
			<point x="157" y="49"/>
			<point x="133" y="54"/>
		</contour>
	</outline>
	<guideline x="82" y="159" angle="72"/>
</glyph>
<glyph name="q" format="2">
	<unicode hex="0071"/>
	<advance width="478"/>
	<outline>
		<contour>
			<point x="152" y="-14" type="curve" smooth="yes"/>
			<point x="186" y="-14"/>
			<point x="237" y="-2"/>
			<point x="285" y="52" type="curve"/>
			<point x="13" y="-786" type="line" smooth="yes"/>
			<point x="7" y="-805"/>
			<point x="26" y="-812"/>
			<point x="43" y="-812" type="curve" smooth="yes"/>
			<point x="67" y="-812"/>
			<point x="76" y="-806"/>
			<point x="81" y="-791" type="curve" smooth="yes"/>
			<point x="463" y="381" type="line" smooth="yes"/>
			<point x="470" y="402"/>
			<point x="463" y="412"/>
			<point x="430" y="412" type="curve" smooth="yes"/>
			<point x="409" y="412"/>
			<point x="401" y="407"/>
			<point x="394" y="386" type="curve" smooth="yes"/>
			<point x="393" y="383" type="line"/>
			<point x="363" y="402"/>
			<point x="329" y="415"/>
			<point x="291" y="415" type="curve" smooth="yes"/>
			<point x="113" y="415"/>
			<point x="35" y="238"/>
			<point x="35" y="121" type="curve" smooth="yes"/>
			<point x="35" y="37"/>
			<point x="78" y="-14"/>
		</contour>
		<contour>
			<point x="107" y="128" type="curve" smooth="yes"/>
			<point x="107" y="207"/>
			<point x="155" y="352"/>
			<point x="296" y="352" type="curve" smooth="yes"/>
			<point x="323" y="352"/>
			<point x="347" y="346"/>
			<point x="376" y="331" type="curve"/>
			<point x="325" y="174" type="line"/>
			<point x="282" y="97"/>
			<point x="228" y="50"/>
			<point x="175" y="50" type="curve" smooth="yes"/>
			<point x="130" y="50"/>
			<point x="107" y="77"/>
		</contour>
	</outline>
</glyph>
<glyph name="r" format="2">
	<unicode hex="0072"/>
	<advance width="363"/>
	<outline>
		<contour>
			<point x="45" y="-12" type="curve" smooth="yes"/>
			<point x="69" y="-12"/>
			<point x="78" y="-6"/>
			<point x="83" y="9" type="curve" smooth="yes"/>
			<point x="157" y="235" type="line"/>
			<point x="200" y="307"/>
			<point x="264" y="352"/>
			<point x="324" y="352" type="curve" smooth="yes"/>
			<point x="340" y="352"/>
			<point x="352" y="350"/>
			<point x="372" y="339" type="curve" smooth="yes"/>
			<point x="385" y="333"/>
			<point x="395" y="334"/>
			<point x="407" y="356" type="curve" smooth="yes"/>
			<point x="419" y="377"/>
			<point x="416" y="386"/>
			<point x="403" y="396" type="curve" smooth="yes"/>
			<point x="391" y="406"/>
			<point x="368" y="415"/>
			<point x="342" y="415" type="curve" smooth="yes"/>
			<point x="291" y="415"/>
			<point x="237" y="388"/>
			<point x="191" y="340" type="curve"/>
			<point x="204" y="381" type="line" smooth="yes"/>
			<point x="211" y="402"/>
			<point x="204" y="412"/>
			<point x="171" y="412" type="curve" smooth="yes"/>
			<point x="150" y="412"/>
			<point x="142" y="408"/>
			<point x="135" y="386" type="curve" smooth="yes"/>
			<point x="15" y="14" type="line" smooth="yes"/>
			<point x="8" y="-6"/>
			<point x="28" y="-12"/>
		</contour>
	</outline>
	<anchor name="bottom" x="41" y="0"/>
	<anchor name="top" x="268" y="400"/>
</glyph>
<glyph name="u" format="2">
	<unicode hex="0075"/>
	<advance width="517"/>
	<outline>
		<contour>
			<point x="156" y="-14" type="curve" smooth="yes"/>
			<point x="228" y="-14"/>
			<point x="306" y="39"/>
			<point x="356" y="129" type="curve"/>
			<point x="344" y="179" type="line"/>
			<point x="304" y="100"/>
			<point x="234" y="49"/>
			<point x="181" y="49" type="curve" smooth="yes"/>
			<point x="123" y="49"/>
			<point x="107" y="77"/>
			<point x="129" y="144" type="curve" smooth="yes"/>
			<point x="206" y="381" type="line" smooth="yes"/>
			<point x="213" y="402"/>
			<point x="206" y="412"/>
			<point x="173" y="412" type="curve" smooth="yes"/>
			<point x="152" y="412"/>
			<point x="144" y="408"/>
			<point x="137" y="386" type="curve" smooth="yes"/>
			<point x="58" y="144" type="line" smooth="yes"/>
			<point x="27" y="49"/>
			<point x="66" y="-14"/>
		</contour>
		<contour>
			<point x="394" y="-14" type="curve" smooth="yes"/>
			<point x="445" y="-14"/>
			<point x="481" y="23"/>
			<point x="498" y="53" type="curve" smooth="yes"/>
			<point x="504" y="64"/>
			<point x="507" y="76"/>
			<point x="489" y="87" type="curve" smooth="yes"/>
			<point x="471" y="98"/>
			<point x="460" y="92"/>
			<point x="454" y="83" type="curve" smooth="yes"/>
			<point x="444" y="68"/>
			<point x="425" y="46"/>
			<point x="401" y="46" type="curve" smooth="yes"/>
			<point x="372" y="46"/>
			<point x="378" y="77"/>
			<point x="384" y="95" type="curve" smooth="yes"/>
			<point x="477" y="381" type="line" smooth="yes"/>
			<point x="484" y="402"/>
			<point x="477" y="412"/>
			<point x="444" y="412" type="curve" smooth="yes"/>
			<point x="423" y="412"/>
			<point x="415" y="408"/>
			<point x="408" y="386" type="curve" smooth="yes"/>
			<point x="326" y="133" type="line" smooth="yes"/>
			<point x="302" y="60"/>
			<point x="300" y="-14"/>
		</contour>
	</outline>
	<anchor name="bottom" x="173" y="0"/>
	<anchor name="ogonek" x="403" y="10"/>
	<anchor name="top" x="303" y="400"/>
	<anchor name="topright" x="440" y="411"/>
</glyph>
<glyph name="y" format="2">
  <advance width="492"/>
  <unicode hex="0079"/>
  <anchor x="181" y="0" name="bottom"/>
  <anchor x="297" y="400" name="top"/>
  <outline>
    <contour>
      <point x="156" y="-14" type="curve" smooth="yes"/>
      <point x="205" y="-14"/>
      <point x="256" y="10"/>
      <point x="299" y="53" type="curve"/>
      <point x="84" y="-618" type="line" smooth="yes"/>
      <point x="53" y="-716"/>
      <point x="16" y="-753"/>
      <point x="-60" y="-753" type="curve" smooth="yes"/>
      <point x="-98" y="-753"/>
      <point x="-132" y="-747"/>
      <point x="-149" y="-708" type="curve" smooth="yes"/>
      <point x="-156" y="-692"/>
      <point x="-166" y="-691"/>
      <point x="-188" y="-701" type="curve" smooth="yes"/>
      <point x="-212" y="-712"/>
      <point x="-208" y="-725"/>
      <point x="-200" y="-743" type="curve" smooth="yes"/>
      <point x="-182" y="-782"/>
      <point x="-131" y="-815"/>
      <point x="-66" y="-815" type="curve" smooth="yes"/>
      <point x="49" y="-815"/>
      <point x="107" y="-760"/>
      <point x="152" y="-620" type="curve" smooth="yes"/>
      <point x="476" y="381" type="line" smooth="yes"/>
      <point x="483" y="401"/>
      <point x="476" y="412"/>
      <point x="443" y="412" type="curve" smooth="yes"/>
      <point x="422" y="412"/>
      <point x="414" y="407"/>
      <point x="407" y="386" type="curve" smooth="yes"/>
      <point x="334" y="161" type="line"/>
      <point x="293" y="92"/>
      <point x="230" y="49"/>
      <point x="181" y="49" type="curve" smooth="yes"/>
      <point x="123" y="49"/>
      <point x="107" y="77"/>
      <point x="129" y="144" type="curve" smooth="yes"/>
      <point x="206" y="381" type="line" smooth="yes"/>
      <point x="213" y="402"/>
      <point x="206" y="412"/>
      <point x="173" y="412" type="curve" smooth="yes"/>
      <point x="152" y="412"/>
      <point x="144" y="408"/>
      <point x="137" y="386" type="curve" smooth="yes"/>
      <point x="58" y="144" type="line" smooth="yes"/>
      <point x="27" y="49"/>
      <point x="66" y="-14"/>
    </contour>
  </outline>
</glyph>
<glyph name="braceright" format="2">
	<unicode hex="007D"/>
	<advance width="443"/>
	<outline>
		<contour>
			<point x="38" y="-60" type="curve" smooth="yes"/>
			<point x="199" y="-60"/>
			<point x="298" y="-2"/>
			<point x="298" y="141" type="curve" smooth="yes"/>
			<point x="298" y="226"/>
			<point x="276" y="293"/>
			<point x="276" y="354" type="curve" smooth="yes"/>
			<point x="276" y="476"/>
			<point x="330" y="554"/>
			<point x="447" y="568" type="curve" smooth="yes"/>
			<point x="464" y="570"/>
			<point x="470" y="576"/>
			<point x="478" y="600" type="curve" smooth="yes"/>
			<point x="485" y="620"/>
			<point x="484" y="628"/>
			<point x="466" y="632" type="curve" smooth="yes"/>
			<point x="429" y="640"/>
			<point x="391" y="665"/>
			<point x="391" y="723" type="curve" smooth="yes"/>
			<point x="391" y="856"/>
			<point x="615" y="983"/>
			<point x="615" y="1136" type="curve" smooth="yes"/>
			<point x="615" y="1213"/>
			<point x="559" y="1260"/>
			<point x="466" y="1260" type="curve" smooth="yes"/>
			<point x="450" y="1260"/>
			<point x="442" y="1252"/>
			<point x="434" y="1228" type="curve" smooth="yes"/>
			<point x="427" y="1208"/>
			<point x="428" y="1196"/>
			<point x="446" y="1196" type="curve" smooth="yes"/>
			<point x="505" y="1196"/>
			<point x="541" y="1173"/>
			<point x="541" y="1136" type="curve" smooth="yes"/>
			<point x="541" y="1009"/>
			<point x="320" y="883"/>
			<point x="320" y="723" type="curve" smooth="yes"/>
			<point x="320" y="671"/>
			<point x="355" y="621"/>
			<point x="403" y="603" type="curve"/>
			<point x="271" y="575"/>
			<point x="204" y="491"/>
			<point x="204" y="354" type="curve" smooth="yes"/>
			<point x="204" y="280"/>
			<point x="225" y="193"/>
			<point x="225" y="141" type="curve" smooth="yes"/>
			<point x="225" y="39"/>
			<point x="162" y="4"/>
			<point x="58" y="4" type="curve" smooth="yes"/>
			<point x="42" y="4"/>
			<point x="33" y="-4"/>
			<point x="26" y="-28" type="curve" smooth="yes"/>
			<point x="21" y="-45"/>
			<point x="18" y="-60"/>
		</contour>
	</outline>
</glyph>
<glyph name="asciitilde" format="2">
	<unicode hex="007E"/>
	<advance width="610"/>
	<outline>
		<contour>
			<point x="467" y="253" type="curve" smooth="yes"/>
			<point x="543" y="253"/>
			<point x="594" y="304"/>
			<point x="614" y="401" type="curve" smooth="yes"/>
			<point x="620" y="428"/>
			<point x="612" y="436"/>
			<point x="584" y="436" type="curve" smooth="yes"/>
			<point x="562" y="436"/>
			<point x="550" y="427"/>
			<point x="546" y="406" type="curve" smooth="yes"/>
			<point x="535" y="344"/>
			<point x="503" y="320"/>
			<point x="476" y="320" type="curve" smooth="yes"/>
			<point x="448" y="320"/>
			<point x="423" y="336"/>
			<point x="372" y="384" type="curve" smooth="yes"/>
			<point x="327" y="426"/>
			<point x="289" y="445"/>
			<point x="241" y="445" type="curve" smooth="yes"/>
			<point x="165" y="445"/>
			<point x="113" y="394"/>
			<point x="93" y="297" type="curve" smooth="yes"/>
			<point x="87" y="270"/>
			<point x="95" y="262"/>
			<point x="123" y="262" type="curve" smooth="yes"/>
			<point x="145" y="262"/>
			<point x="157" y="271"/>
			<point x="161" y="292" type="curve" smooth="yes"/>
			<point x="172" y="354"/>
			<point x="205" y="378"/>
			<point x="236" y="378" type="curve" smooth="yes"/>
			<point x="268" y="378"/>
			<point x="292" y="365"/>
			<point x="332" y="327" type="curve" smooth="yes"/>
			<point x="385" y="276"/>
			<point x="424" y="253"/>
		</contour>
	</outline>
</glyph>
<glyph name="cent" format="2">
  <advance width="821"/>
  <unicode hex="00A2"/>
  <outline>
    <contour>
      <point x="406" y="-19" type="curve" smooth="yes"/>
      <point x="496" y="-19"/>
      <point x="625" y="21"/>
      <point x="730" y="146" type="curve" smooth="yes"/>
      <point x="743" y="163"/>
      <point x="738" y="180"/>
      <point x="721" y="195" type="curve" smooth="yes"/>
      <point x="709" y="206"/>
      <point x="698" y="211"/>
      <point x="680" y="195" type="curve" smooth="yes"/>
      <point x="583" y="100"/>
      <point x="519" y="61"/>
      <point x="418" y="61" type="curve" smooth="yes"/>
      <point x="304" y="61"/>
      <point x="235" y="144"/>
      <point x="235" y="279" type="curve" smooth="yes"/>
      <point x="235" y="558"/>
      <point x="409" y="803"/>
      <point x="620" y="803" type="curve" smooth="yes"/>
      <point x="693" y="803"/>
      <point x="765" y="770"/>
      <point x="813" y="718" type="curve" smooth="yes"/>
      <point x="826" y="703"/>
      <point x="838" y="689"/>
      <point x="863" y="709" type="curve" smooth="yes"/>
      <point x="885" y="726"/>
      <point x="886" y="740"/>
      <point x="873" y="759" type="curve" smooth="yes"/>
      <point x="815" y="836"/>
      <point x="723" y="883"/>
      <point x="629" y="883" type="curve" smooth="yes"/>
      <point x="361" y="883"/>
      <point x="145" y="604"/>
      <point x="145" y="279" type="curve" smooth="yes"/>
      <point x="145" y="94"/>
      <point x="244" y="-19"/>
    </contour>
    <contour>
      <point x="324" y="-150" type="curve" smooth="yes"/>
      <point x="350" y="-150"/>
      <point x="366" y="-141"/>
      <point x="373" y="-122" type="curve" smooth="yes"/>
      <point x="735" y="990" type="line" smooth="yes"/>
      <point x="741" y="1009"/>
      <point x="730" y="1018"/>
      <point x="704" y="1018" type="curve" smooth="yes"/>
      <point x="678" y="1018"/>
      <point x="661" y="1009"/>
      <point x="655" y="990" type="curve" smooth="yes"/>
      <point x="293" y="-122" type="line" smooth="yes"/>
      <point x="286" y="-141"/>
      <point x="298" y="-150"/>
    </contour>
  </outline>
</glyph>
<glyph name="sterling" format="2">
  <advance width="837"/>
  <unicode hex="00A3"/>
  <outline>
    <contour>
      <point x="11" y="0" type="curve" smooth="yes"/>
      <point x="719" y="0" type="line" smooth="yes"/>
      <point x="737" y="0"/>
      <point x="745" y="11"/>
      <point x="752" y="34" type="curve" smooth="yes"/>
      <point x="759" y="57"/>
      <point x="755" y="64"/>
      <point x="740" y="64" type="curve" smooth="yes"/>
      <point x="266" y="64" type="line"/>
      <point x="402" y="482" type="line"/>
      <point x="676" y="482" type="line" smooth="yes"/>
      <point x="694" y="482"/>
      <point x="702" y="493"/>
      <point x="709" y="516" type="curve" smooth="yes"/>
      <point x="716" y="539"/>
      <point x="712" y="546"/>
      <point x="697" y="546" type="curve" smooth="yes"/>
      <point x="423" y="546" type="line"/>
      <point x="551" y="940" type="line" smooth="yes"/>
      <point x="599" y="1086"/>
      <point x="668" y="1147"/>
      <point x="782" y="1147" type="curve" smooth="yes"/>
      <point x="848" y="1147"/>
      <point x="914" y="1116"/>
      <point x="980" y="1055" type="curve" smooth="yes"/>
      <point x="996" y="1040"/>
      <point x="1009" y="1040"/>
      <point x="1025" y="1056" type="curve" smooth="yes"/>
      <point x="1042" y="1073"/>
      <point x="1041" y="1084"/>
      <point x="1028" y="1098" type="curve" smooth="yes"/>
      <point x="958" y="1174"/>
      <point x="874" y="1212"/>
      <point x="786" y="1212" type="curve" smooth="yes"/>
      <point x="636" y="1212"/>
      <point x="545" y="1133"/>
      <point x="483" y="945" type="curve" smooth="yes"/>
      <point x="353" y="546" type="line"/>
      <point x="216" y="546" type="line" smooth="yes"/>
      <point x="201" y="546"/>
      <point x="192" y="540"/>
      <point x="184" y="516" type="curve" smooth="yes"/>
      <point x="177" y="494"/>
      <point x="177" y="482"/>
      <point x="195" y="482" type="curve" smooth="yes"/>
      <point x="332" y="482" type="line"/>
      <point x="196" y="64" type="line"/>
      <point x="32" y="64" type="line" smooth="yes"/>
      <point x="17" y="64"/>
      <point x="8" y="58"/>
      <point x="0" y="34" type="curve" smooth="yes"/>
      <point x="-7" y="12"/>
      <point x="-7" y="0"/>
    </contour>
  </outline>
</glyph>
<glyph name="section" format="2">
  <advance width="1033"/>
  <unicode hex="00A7"/>
  <outline>
    <contour>
      <point x="1021" y="430" type="curve" smooth="yes"/>
      <point x="1021" y="779"/>
      <point x="555" y="799"/>
      <point x="555" y="1133" type="curve" smooth="yes"/>
      <point x="555" y="1305"/>
      <point x="669" y="1430"/>
      <point x="825" y="1430" type="curve" smooth="yes"/>
      <point x="950" y="1430"/>
      <point x="1048" y="1380"/>
      <point x="1138" y="1290" type="curve" smooth="yes"/>
      <point x="1150" y="1278"/>
      <point x="1168" y="1280"/>
      <point x="1184" y="1296" type="curve" smooth="yes"/>
      <point x="1200" y="1313"/>
      <point x="1203" y="1326"/>
      <point x="1190" y="1341" type="curve" smooth="yes"/>
      <point x="1103" y="1446"/>
      <point x="971" y="1515"/>
      <point x="834" y="1515" type="curve" smooth="yes"/>
      <point x="619" y="1515"/>
      <point x="463" y="1351"/>
      <point x="463" y="1126" type="curve" smooth="yes"/>
      <point x="463" y="743"/>
      <point x="929" y="725"/>
      <point x="929" y="424" type="curve" smooth="yes"/>
      <point x="929" y="233"/>
      <point x="786" y="123"/>
      <point x="585" y="54" type="curve"/>
      <point x="649" y="4" type="line"/>
      <point x="859" y="78"/>
      <point x="1021" y="208"/>
    </contour>
    <contour>
      <point x="213" y="479" type="curve" smooth="yes"/>
      <point x="213" y="130"/>
      <point x="670" y="114"/>
      <point x="670" y="-237" type="curve" smooth="yes"/>
      <point x="670" y="-472"/>
      <point x="486" y="-585"/>
      <point x="338" y="-585" type="curve" smooth="yes"/>
      <point x="200" y="-585"/>
      <point x="84" y="-527"/>
      <point x="8" y="-437" type="curve" smooth="yes"/>
      <point x="-4" y="-424"/>
      <point x="-16" y="-422"/>
      <point x="-37" y="-440" type="curve" smooth="yes"/>
      <point x="-56" y="-456"/>
      <point x="-61" y="-471"/>
      <point x="-52" y="-485" type="curve" smooth="yes"/>
      <point x="14" y="-572"/>
      <point x="148" y="-670"/>
      <point x="333" y="-670" type="curve" smooth="yes"/>
      <point x="546" y="-670"/>
      <point x="763" y="-510"/>
      <point x="763" y="-230" type="curve" smooth="yes"/>
      <point x="763" y="168"/>
      <point x="305" y="185"/>
      <point x="305" y="485" type="curve" smooth="yes"/>
      <point x="305" y="676"/>
      <point x="436" y="785"/>
      <point x="636" y="855" type="curve"/>
      <point x="570" y="904" type="line"/>
      <point x="365" y="830"/>
      <point x="213" y="703"/>
    </contour>
  </outline>
</glyph>
<glyph name="copyright" format="2">
  <advance width="1406"/>
  <unicode hex="00A9"/>
  <outline>
    <contour>
      <point x="860" y="119" type="curve" smooth="yes"/>
      <point x="1185" y="119"/>
      <point x="1421" y="378"/>
      <point x="1421" y="734" type="curve" smooth="yes"/>
      <point x="1421" y="1090"/>
      <point x="1185" y="1348"/>
      <point x="860" y="1348" type="curve" smooth="yes"/>
      <point x="535" y="1348"/>
      <point x="300" y="1090"/>
      <point x="300" y="734" type="curve" smooth="yes"/>
      <point x="300" y="378"/>
      <point x="535" y="119"/>
    </contour>
    <contour>
      <point x="860" y="169" type="curve" smooth="yes"/>
      <point x="568" y="169"/>
      <point x="355" y="406"/>
      <point x="355" y="734" type="curve" smooth="yes"/>
      <point x="355" y="1061"/>
      <point x="568" y="1298"/>
      <point x="860" y="1298" type="curve" smooth="yes"/>
      <point x="1154" y="1298"/>
      <point x="1366" y="1061"/>
      <point x="1366" y="734" type="curve" smooth="yes"/>
      <point x="1366" y="406"/>
      <point x="1154" y="169"/>
    </contour>
    <contour>
      <point x="866" y="389" type="curve" smooth="yes"/>
      <point x="948" y="389"/>
      <point x="1016" y="433"/>
      <point x="1071" y="520" type="curve" smooth="yes"/>
      <point x="1079" y="533"/>
      <point x="1076" y="544"/>
      <point x="1061" y="554" type="curve" smooth="yes"/>
      <point x="1045" y="565"/>
      <point x="1031" y="564"/>
      <point x="1021" y="549" type="curve" smooth="yes"/>
      <point x="979" y="490"/>
      <point x="928" y="460"/>
      <point x="870" y="460" type="curve" smooth="yes"/>
      <point x="750" y="460"/>
      <point x="676" y="565"/>
      <point x="676" y="738" type="curve" smooth="yes"/>
      <point x="676" y="898"/>
      <point x="758" y="1014"/>
      <point x="869" y="1014" type="curve" smooth="yes"/>
      <point x="923" y="1014"/>
      <point x="970" y="994"/>
      <point x="1009" y="954" type="curve" smooth="yes"/>
      <point x="1021" y="941"/>
      <point x="1033" y="940"/>
      <point x="1046" y="953" type="curve" smooth="yes"/>
      <point x="1063" y="966"/>
      <point x="1066" y="976"/>
      <point x="1056" y="989" type="curve" smooth="yes"/>
      <point x="1008" y="1051"/>
      <point x="944" y="1084"/>
      <point x="869" y="1084" type="curve" smooth="yes"/>
      <point x="713" y="1084"/>
      <point x="599" y="939"/>
      <point x="599" y="738" type="curve" smooth="yes"/>
      <point x="599" y="521"/>
      <point x="700" y="389"/>
    </contour>
  </outline>
</glyph>
<glyph name="ordfeminine" format="2">
  <advance width="383"/>
  <unicode hex="00AA"/>
  <outline>
    <contour>
      <point x="392" y="889" type="curve" smooth="yes"/>
      <point x="424" y="889"/>
      <point x="465" y="903"/>
      <point x="500" y="948" type="curve"/>
      <point x="501" y="947"/>
      <point x="501" y="946"/>
      <point x="501" y="944" type="curve" smooth="yes"/>
      <point x="503" y="913"/>
      <point x="518" y="889"/>
      <point x="570" y="889" type="curve" smooth="yes"/>
      <point x="606" y="889"/>
      <point x="636" y="915"/>
      <point x="650" y="940" type="curve" smooth="yes"/>
      <point x="656" y="951"/>
      <point x="658" y="961"/>
      <point x="642" y="971" type="curve" smooth="yes"/>
      <point x="626" y="981"/>
      <point x="616" y="975"/>
      <point x="612" y="969" type="curve" smooth="yes"/>
      <point x="606" y="960"/>
      <point x="593" y="944"/>
      <point x="576" y="944" type="curve" smooth="yes"/>
      <point x="553" y="944"/>
      <point x="564" y="968"/>
      <point x="566" y="974" type="curve" smooth="yes"/>
      <point x="636" y="1190" type="line" smooth="yes"/>
      <point x="643" y="1211"/>
      <point x="633" y="1217"/>
      <point x="605" y="1217" type="curve" smooth="yes"/>
      <point x="587" y="1217"/>
      <point x="580" y="1214"/>
      <point x="573" y="1194" type="curve" smooth="yes"/>
      <point x="574" y="1196" type="line"/>
      <point x="551" y="1210"/>
      <point x="527" y="1220"/>
      <point x="498" y="1220" type="curve" smooth="yes"/>
      <point x="361" y="1220"/>
      <point x="301" y="1082"/>
      <point x="301" y="993" type="curve" smooth="yes"/>
      <point x="301" y="928"/>
      <point x="335" y="889"/>
    </contour>
    <contour>
      <point x="366" y="1000" type="curve" smooth="yes"/>
      <point x="366" y="1053"/>
      <point x="399" y="1162"/>
      <point x="504" y="1162" type="curve" smooth="yes"/>
      <point x="523" y="1162"/>
      <point x="540" y="1159"/>
      <point x="559" y="1149" type="curve"/>
      <point x="520" y="1033" type="line"/>
      <point x="491" y="984"/>
      <point x="454" y="948"/>
      <point x="414" y="948" type="curve" smooth="yes"/>
      <point x="384" y="948"/>
      <point x="366" y="964"/>
    </contour>
  </outline>
</glyph>
<glyph name="registered" format="2">
  <advance width="546"/>
  <unicode hex="00AE"/>
  <outline>
    <contour>
      <point x="548" y="842" type="curve" smooth="yes"/>
      <point x="673" y="842"/>
      <point x="773" y="942"/>
      <point x="773" y="1067" type="curve" smooth="yes"/>
      <point x="773" y="1192"/>
      <point x="673" y="1292"/>
      <point x="548" y="1292" type="curve" smooth="yes"/>
      <point x="423" y="1292"/>
      <point x="323" y="1192"/>
      <point x="323" y="1067" type="curve" smooth="yes"/>
      <point x="323" y="942"/>
      <point x="423" y="842"/>
    </contour>
    <contour>
      <point x="548" y="872" type="curve" smooth="yes"/>
      <point x="441" y="872"/>
      <point x="353" y="960"/>
      <point x="353" y="1067" type="curve" smooth="yes"/>
      <point x="353" y="1174"/>
      <point x="441" y="1262"/>
      <point x="548" y="1262" type="curve" smooth="yes"/>
      <point x="655" y="1262"/>
      <point x="743" y="1174"/>
      <point x="743" y="1067" type="curve" smooth="yes"/>
      <point x="743" y="960"/>
      <point x="655" y="872"/>
    </contour>
    <contour>
      <point x="488" y="929" type="curve" smooth="yes"/>
      <point x="508" y="929"/>
      <point x="515" y="935"/>
      <point x="515" y="946" type="curve" smooth="yes"/>
      <point x="515" y="1047" type="line"/>
      <point x="544" y="1003"/>
      <point x="577" y="968"/>
      <point x="614" y="938" type="curve" smooth="yes"/>
      <point x="628" y="927"/>
      <point x="639" y="929"/>
      <point x="652" y="943" type="curve" smooth="yes"/>
      <point x="665" y="958"/>
      <point x="663" y="968"/>
      <point x="649" y="979" type="curve" smooth="yes"/>
      <point x="620" y="1002"/>
      <point x="594" y="1026"/>
      <point x="569" y="1059" type="curve"/>
      <point x="615" y="1071"/>
      <point x="647" y="1097"/>
      <point x="647" y="1139" type="curve" smooth="yes"/>
      <point x="647" y="1194"/>
      <point x="608" y="1213"/>
      <point x="541" y="1213" type="curve" smooth="yes"/>
      <point x="493" y="1213" type="line" smooth="yes"/>
      <point x="473" y="1213"/>
      <point x="462" y="1207"/>
      <point x="462" y="1196" type="curve" smooth="yes"/>
      <point x="462" y="946" type="line" smooth="yes"/>
      <point x="462" y="935"/>
      <point x="469" y="929"/>
    </contour>
    <contour>
      <point x="515" y="1095" type="curve"/>
      <point x="515" y="1160" type="line"/>
      <point x="555" y="1160" type="line" smooth="yes"/>
      <point x="575" y="1160"/>
      <point x="593" y="1152"/>
      <point x="593" y="1134" type="curve" smooth="yes"/>
      <point x="593" y="1107"/>
      <point x="561" y="1095"/>
    </contour>
  </outline>
</glyph>
<glyph name="ordmasculine" format="2">
  <advance width="454"/>
  <unicode hex="00BA"/>
  <outline>
    <contour>
      <point x="536" y="1110" type="curve" smooth="yes"/>
      <point x="693" y="1110"/>
      <point x="768" y="1275"/>
      <point x="768" y="1378" type="curve" smooth="yes"/>
      <point x="768" y="1464"/>
      <point x="714" y="1525"/>
      <point x="614" y="1525" type="curve" smooth="yes"/>
      <point x="460" y="1525"/>
      <point x="383" y="1370"/>
      <point x="383" y="1264" type="curve" smooth="yes"/>
      <point x="383" y="1175"/>
      <point x="436" y="1110"/>
    </contour>
    <contour>
      <point x="546" y="1184" type="curve" smooth="yes"/>
      <point x="496" y="1184"/>
      <point x="464" y="1214"/>
      <point x="464" y="1270" type="curve" smooth="yes"/>
      <point x="464" y="1339"/>
      <point x="513" y="1451"/>
      <point x="606" y="1451" type="curve" smooth="yes"/>
      <point x="653" y="1451"/>
      <point x="684" y="1425"/>
      <point x="684" y="1368" type="curve" smooth="yes"/>
      <point x="684" y="1296"/>
      <point x="635" y="1184"/>
    </contour>
  </outline>
</glyph>
<glyph name="AE" format="2">
  <advance width="1195"/>
  <unicode hex="00C6"/>
  <anchor x="1140" y="1139" name="top"/>
  <outline>
    <contour>
      <point x="1057" y="0" type="line" smooth="yes"/>
      <point x="1069" y="0"/>
      <point x="1080" y="11"/>
      <point x="1086" y="32" type="curve" smooth="yes"/>
      <point x="1092" y="54"/>
      <point x="1087" y="64"/>
      <point x="1075" y="64" type="curve" smooth="yes"/>
      <point x="640" y="64" type="line"/>
      <point x="984" y="1126" type="line"/>
      <point x="1421" y="1126" type="line" smooth="yes"/>
      <point x="1433" y="1126"/>
      <point x="1444" y="1137"/>
      <point x="1450" y="1158" type="curve" smooth="yes"/>
      <point x="1456" y="1180"/>
      <point x="1451" y="1190"/>
      <point x="1439" y="1190" type="curve" smooth="yes"/>
      <point x="904" y="1190" type="line" smooth="yes"/>
      <point x="885" y="1190"/>
      <point x="873" y="1182"/>
      <point x="860" y="1165" type="curve" smooth="yes"/>
      <point x="-27" y="27" type="line" smooth="yes"/>
      <point x="-39" y="11"/>
      <point x="-33" y="-2"/>
      <point x="-11" y="-10" type="curve" smooth="yes"/>
      <point x="10" y="-17"/>
      <point x="24" y="-15"/>
      <point x="35" y="-1" type="curve" smooth="yes"/>
      <point x="914" y="1130" type="line"/>
      <point x="558" y="32" type="line" smooth="yes"/>
      <point x="550" y="8"/>
      <point x="562" y="0"/>
      <point x="589" y="0" type="curve" smooth="yes"/>
    </contour>
    <contour>
      <point x="1161" y="563" type="line" smooth="yes"/>
      <point x="1173" y="563"/>
      <point x="1184" y="574"/>
      <point x="1190" y="595" type="curve" smooth="yes"/>
      <point x="1196" y="617"/>
      <point x="1191" y="627"/>
      <point x="1179" y="627" type="curve" smooth="yes"/>
      <point x="485" y="627" type="line"/>
      <point x="437" y="563" type="line"/>
    </contour>
  </outline>
</glyph>
<glyph name="Thorn" format="2">
  <advance width="890"/>
  <unicode hex="00DE"/>
  <outline>
    <contour>
      <point x="144" y="-11" type="curve" smooth="yes"/>
      <point x="168" y="-11"/>
      <point x="178" y="-3"/>
      <point x="183" y="11" type="curve" smooth="yes"/>
      <point x="275" y="292" type="line"/>
      <point x="354" y="295"/>
      <point x="424" y="299"/>
      <point x="497" y="309" type="curve" smooth="yes"/>
      <point x="809" y="352"/>
      <point x="981" y="508"/>
      <point x="981" y="754" type="curve" smooth="yes"/>
      <point x="981" y="922"/>
      <point x="874" y="990"/>
      <point x="670" y="990" type="curve" smooth="yes"/>
      <point x="501" y="990" type="line"/>
      <point x="565" y="1188" type="line" smooth="yes"/>
      <point x="571" y="1205"/>
      <point x="558" y="1212"/>
      <point x="535" y="1212" type="curve" smooth="yes"/>
      <point x="512" y="1212"/>
      <point x="500" y="1205"/>
      <point x="495" y="1190" type="curve" smooth="yes"/>
      <point x="113" y="13" type="line" smooth="yes"/>
      <point x="107" y="-4"/>
      <point x="120" y="-11"/>
    </contour>
    <contour>
      <point x="295" y="356" type="curve"/>
      <point x="480" y="926" type="line"/>
      <point x="662" y="926" type="line" smooth="yes"/>
      <point x="827" y="926"/>
      <point x="906" y="876"/>
      <point x="906" y="747" type="curve" smooth="yes"/>
      <point x="906" y="543"/>
      <point x="767" y="413"/>
      <point x="506" y="373" type="curve" smooth="yes"/>
      <point x="441" y="363"/>
      <point x="362" y="357"/>
    </contour>
  </outline>
</glyph>
<glyph name="germandbls" format="2">
  <advance width="700"/>
  <unicode hex="00DF"/>
  <outline>
    <contour>
      <point x="-240" y="-1015" type="curve" smooth="yes"/>
      <point x="-210" y="-1015"/>
      <point x="-199" y="-1007"/>
      <point x="-192" y="-989" type="curve" smooth="yes"/>
      <point x="535" y="1243" type="line" smooth="yes"/>
      <point x="578" y="1370"/>
      <point x="641" y="1435"/>
      <point x="725" y="1435" type="curve" smooth="yes"/>
      <point x="819" y="1435"/>
      <point x="866" y="1373"/>
      <point x="866" y="1249" type="curve" smooth="yes"/>
      <point x="866" y="954"/>
      <point x="633" y="524"/>
      <point x="428" y="524" type="curve" smooth="yes"/>
      <point x="414" y="524" type="line" smooth="yes"/>
      <point x="395" y="524"/>
      <point x="388" y="510"/>
      <point x="383" y="493" type="curve" smooth="yes"/>
      <point x="375" y="470"/>
      <point x="371" y="444"/>
      <point x="394" y="444" type="curve" smooth="yes"/>
      <point x="400" y="444" type="line" smooth="yes"/>
      <point x="489" y="444"/>
      <point x="543" y="386"/>
      <point x="543" y="293" type="curve" smooth="yes"/>
      <point x="543" y="164"/>
      <point x="466" y="61"/>
      <point x="360" y="61" type="curve" smooth="yes"/>
      <point x="315" y="61"/>
      <point x="295" y="66"/>
      <point x="251" y="84" type="curve" smooth="yes"/>
      <point x="236" y="90"/>
      <point x="220" y="85"/>
      <point x="209" y="64" type="curve" smooth="yes"/>
      <point x="196" y="40"/>
      <point x="201" y="24"/>
      <point x="219" y="13" type="curve" smooth="yes"/>
      <point x="248" y="-2"/>
      <point x="285" y="-19"/>
      <point x="354" y="-19" type="curve" smooth="yes"/>
      <point x="515" y="-19"/>
      <point x="629" y="116"/>
      <point x="629" y="290" type="curve" smooth="yes"/>
      <point x="629" y="386"/>
      <point x="580" y="453"/>
      <point x="496" y="478" type="curve"/>
      <point x="744" y="545"/>
      <point x="953" y="964"/>
      <point x="953" y="1255" type="curve" smooth="yes"/>
      <point x="953" y="1416"/>
      <point x="866" y="1515"/>
      <point x="736" y="1515" type="curve" smooth="yes"/>
      <point x="599" y="1515"/>
      <point x="508" y="1426"/>
      <point x="450" y="1250" type="curve" smooth="yes"/>
      <point x="-277" y="-982" type="line" smooth="yes"/>
      <point x="-286" y="-1007"/>
      <point x="-261" y="-1015"/>
    </contour>
  </outline>
</glyph>
<glyph name="eth" format="2">
  <advance width="482"/>
  <unicode hex="00F0"/>
  <guideline x="269" y="656" angle="72"/>
  <outline>
    <contour>
      <point x="203" y="-15" type="curve" smooth="yes"/>
      <point x="303" y="-15"/>
      <point x="391" y="71"/>
      <point x="436" y="212" type="curve" smooth="yes"/>
      <point x="534" y="514"/>
      <point x="562" y="928"/>
      <point x="503" y="1197" type="curve" smooth="yes"/>
      <point x="500" y="1213"/>
      <point x="488" y="1219"/>
      <point x="469" y="1215" type="curve" smooth="yes"/>
      <point x="450" y="1211"/>
      <point x="442" y="1201"/>
      <point x="445" y="1184" type="curve" smooth="yes"/>
      <point x="495" y="914"/>
      <point x="461" y="514"/>
      <point x="366" y="223" type="curve" smooth="yes"/>
      <point x="331" y="115"/>
      <point x="272" y="49"/>
      <point x="211" y="49" type="curve" smooth="yes"/>
      <point x="156" y="49"/>
      <point x="122" y="84"/>
      <point x="122" y="146" type="curve" smooth="yes"/>
      <point x="122" y="225"/>
      <point x="178" y="351"/>
      <point x="274" y="351" type="curve" smooth="yes"/>
      <point x="323" y="351"/>
      <point x="360" y="329"/>
      <point x="386" y="294" type="curve"/>
      <point x="415" y="327" type="line"/>
      <point x="379" y="382"/>
      <point x="344" y="415"/>
      <point x="276" y="415" type="curve" smooth="yes"/>
      <point x="131" y="415"/>
      <point x="50" y="254"/>
      <point x="50" y="141" type="curve" smooth="yes"/>
      <point x="50" y="50"/>
      <point x="103" y="-15"/>
    </contour>
    <contour>
      <point x="382" y="900" type="curve" smooth="yes"/>
      <point x="625" y="1001" type="line" smooth="yes"/>
      <point x="637" y="1006"/>
      <point x="641" y="1013"/>
      <point x="636" y="1030" type="curve" smooth="yes"/>
      <point x="631" y="1047"/>
      <point x="621" y="1054"/>
      <point x="608" y="1049" type="curve" smooth="yes"/>
      <point x="367" y="949" type="line" smooth="yes"/>
      <point x="356" y="944"/>
      <point x="351" y="937"/>
      <point x="354" y="923" type="curve" smooth="yes"/>
      <point x="359" y="903"/>
      <point x="371" y="895"/>
    </contour>
  </outline>
</glyph>
<glyph name="thorn" format="2">
	<unicode hex="00FE"/>
	<advance width="478"/>
	<outline>
		<contour>
			<point x="-210" y="-812" type="curve" smooth="yes"/>
			<point x="-186" y="-812"/>
			<point x="-177" y="-806"/>
			<point x="-172" y="-791" type="curve" smooth="yes"/>
			<point x="90" y="16" type="line"/>
			<point x="119" y="-2"/>
			<point x="152" y="-14"/>
			<point x="187" y="-14" type="curve" smooth="yes"/>
			<point x="361" y="-14"/>
			<point x="442" y="157"/>
			<point x="442" y="280" type="curve" smooth="yes"/>
			<point x="442" y="363"/>
			<point x="400" y="415"/>
			<point x="326" y="415" type="curve" smooth="yes"/>
			<point x="293" y="415"/>
			<point x="246" y="403"/>
			<point x="200" y="353" type="curve"/>
			<point x="469" y="1181" type="line" smooth="yes"/>
			<point x="476" y="1202"/>
			<point x="469" y="1212"/>
			<point x="436" y="1212" type="curve" smooth="yes"/>
			<point x="415" y="1212"/>
			<point x="407" y="1207"/>
			<point x="400" y="1186" type="curve" smooth="yes"/>
			<point x="-240" y="-786" type="line" smooth="yes"/>
			<point x="-246" y="-805"/>
			<point x="-227" y="-812"/>
		</contour>
		<contour>
			<point x="107" y="68" type="curve"/>
			<point x="167" y="252" type="line"/>
			<point x="207" y="314"/>
			<point x="256" y="351"/>
			<point x="303" y="351" type="curve" smooth="yes"/>
			<point x="348" y="351"/>
			<point x="370" y="324"/>
			<point x="370" y="273" type="curve" smooth="yes"/>
			<point x="370" y="190"/>
			<point x="321" y="49"/>
			<point x="182" y="49" type="curve" smooth="yes"/>
			<point x="157" y="49"/>
			<point x="133" y="54"/>
		</contour>
	</outline>
</glyph>
<glyph name="idotless" format="2">
	<unicode hex="0131"/>
	<advance width="244"/>
	<outline>
		<contour>
			<point x="120" y="-14" type="curve" smooth="yes"/>
			<point x="171" y="-14"/>
			<point x="208" y="23"/>
			<point x="225" y="53" type="curve" smooth="yes"/>
			<point x="231" y="64"/>
			<point x="234" y="76"/>
			<point x="216" y="87" type="curve" smooth="yes"/>
			<point x="198" y="98"/>
			<point x="187" y="92"/>
			<point x="181" y="83" type="curve" smooth="yes"/>
			<point x="171" y="68"/>
			<point x="151" y="46"/>
			<point x="127" y="46" type="curve" smooth="yes"/>
			<point x="98" y="46"/>
			<point x="105" y="77"/>
			<point x="111" y="95" type="curve" smooth="yes"/>
			<point x="205" y="386" type="line" smooth="yes"/>
			<point x="210" y="401"/>
			<point x="199" y="412"/>
			<point x="174" y="412" type="curve" smooth="yes"/>
			<point x="149" y="412"/>
			<point x="141" y="408"/>
			<point x="134" y="386" type="curve" smooth="yes"/>
			<point x="52" y="133" type="line" smooth="yes"/>
			<point x="28" y="60"/>
			<point x="26" y="-14"/>
		</contour>
	</outline>
	<anchor name="bottom" x="100" y="0"/>
	<anchor name="ogonek" x="143" y="0"/>
	<anchor name="top" x="171" y="400"/>
	<guideline x="184" y="489" angle="72"/>
</glyph>
<glyph name="Eng" format="2">
  <advance width="1376"/>
  <unicode hex="014A"/>
  <outline>
    <contour>
      <point x="1010" y="-211" type="curve" smooth="yes"/>
      <point x="1560" y="1488" type="line" smooth="yes"/>
      <point x="1566" y="1506"/>
      <point x="1554" y="1515"/>
      <point x="1525" y="1515" type="curve" smooth="yes"/>
      <point x="1496" y="1515"/>
      <point x="1479" y="1506"/>
      <point x="1473" y="1488" type="curve" smooth="yes"/>
      <point x="1043" y="163" type="line"/>
      <point x="711" y="1488" type="line" smooth="yes"/>
      <point x="706" y="1505"/>
      <point x="694" y="1515"/>
      <point x="670" y="1515" type="curve" smooth="yes"/>
      <point x="641" y="1515"/>
      <point x="624" y="1506"/>
      <point x="618" y="1488" type="curve" smooth="yes"/>
      <point x="140" y="14" type="line" smooth="yes"/>
      <point x="134" y="-5"/>
      <point x="146" y="-14"/>
      <point x="175" y="-14" type="curve" smooth="yes"/>
      <point x="204" y="-14"/>
      <point x="221" y="-5"/>
      <point x="228" y="14" type="curve" smooth="yes"/>
      <point x="661" y="1349" type="line"/>
      <point x="995" y="15" type="line"/>
      <point x="928" y="-195" type="line" smooth="yes"/>
      <point x="886" y="-324"/>
      <point x="858" y="-361"/>
      <point x="798" y="-361" type="curve" smooth="yes"/>
      <point x="756" y="-361"/>
      <point x="729" y="-334"/>
      <point x="701" y="-277" type="curve" smooth="yes"/>
      <point x="690" y="-255"/>
      <point x="673" y="-256"/>
      <point x="653" y="-269" type="curve" smooth="yes"/>
      <point x="626" y="-285"/>
      <point x="625" y="-301"/>
      <point x="635" y="-325" type="curve" smooth="yes"/>
      <point x="665" y="-396"/>
      <point x="721" y="-442"/>
      <point x="789" y="-442" type="curve" smooth="yes"/>
      <point x="890" y="-442"/>
      <point x="951" y="-392"/>
    </contour>
  </outline>
</glyph>
<glyph name="eng" format="2">
  <advance width="490"/>
  <unicode hex="014B"/>
  <outline>
    <contour>
      <point x="326" y="-87" type="curve" smooth="yes"/>
      <point x="436" y="246" type="line" smooth="yes"/>
      <point x="468" y="344"/>
      <point x="444" y="415"/>
      <point x="349" y="415" type="curve" smooth="yes"/>
      <point x="293" y="415"/>
      <point x="237" y="388"/>
      <point x="191" y="340" type="curve"/>
      <point x="204" y="381" type="line" smooth="yes"/>
      <point x="211" y="402"/>
      <point x="204" y="412"/>
      <point x="171" y="412" type="curve" smooth="yes"/>
      <point x="150" y="412"/>
      <point x="142" y="408"/>
      <point x="135" y="386" type="curve" smooth="yes"/>
      <point x="15" y="14" type="line" smooth="yes"/>
      <point x="8" y="-6"/>
      <point x="28" y="-12"/>
      <point x="45" y="-12" type="curve" smooth="yes"/>
      <point x="69" y="-12"/>
      <point x="78" y="-6"/>
      <point x="83" y="9" type="curve" smooth="yes"/>
      <point x="157" y="235" type="line"/>
      <point x="200" y="307"/>
      <point x="264" y="352"/>
      <point x="324" y="352" type="curve" smooth="yes"/>
      <point x="373" y="352"/>
      <point x="391" y="325"/>
      <point x="375" y="275" type="curve" smooth="yes"/>
      <point x="261" y="-70" type="line" smooth="yes"/>
      <point x="243" y="-125"/>
      <point x="235" y="-144"/>
      <point x="214" y="-144" type="curve" smooth="yes"/>
      <point x="200" y="-144"/>
      <point x="189" y="-136"/>
      <point x="170" y="-113" type="curve" smooth="yes"/>
      <point x="160" y="-100"/>
      <point x="147" y="-100"/>
      <point x="131" y="-112" type="curve" smooth="yes"/>
      <point x="111" y="-127"/>
      <point x="114" y="-138"/>
      <point x="125" y="-154" type="curve" smooth="yes"/>
      <point x="146" y="-186"/>
      <point x="177" y="-204"/>
      <point x="208" y="-204" type="curve" smooth="yes"/>
      <point x="258" y="-204"/>
      <point x="292" y="-189"/>
    </contour>
  </outline>
</glyph>
<glyph name="OE" format="2">
  <advance width="1580"/>
  <unicode hex="0152"/>
  <anchor x="1087" y="1139" name="top"/>
  <outline>
    <contour>
      <point x="540" y="-15" type="curve" smooth="yes"/>
      <point x="878" y="-15"/>
      <point x="1148" y="388"/>
      <point x="1148" y="812" type="curve" smooth="yes"/>
      <point x="1148" y="1063"/>
      <point x="1030" y="1212"/>
      <point x="830" y="1212" type="curve" smooth="yes"/>
      <point x="490" y="1212"/>
      <point x="209" y="818"/>
      <point x="209" y="394" type="curve" smooth="yes"/>
      <point x="209" y="137"/>
      <point x="334" y="-15"/>
    </contour>
    <contour>
      <point x="551" y="53" type="curve" smooth="yes"/>
      <point x="385" y="53"/>
      <point x="284" y="180"/>
      <point x="284" y="394" type="curve" smooth="yes"/>
      <point x="284" y="780"/>
      <point x="527" y="1145"/>
      <point x="818" y="1145" type="curve" smooth="yes"/>
      <point x="983" y="1145"/>
      <point x="1083" y="1021"/>
      <point x="1083" y="812" type="curve" smooth="yes"/>
      <point x="1083" y="422"/>
      <point x="842" y="53"/>
    </contour>
    <contour>
      <point x="911" y="0" type="curve" smooth="yes"/>
      <point x="1442" y="0" type="line" smooth="yes"/>
      <point x="1454" y="0"/>
      <point x="1465" y="11"/>
      <point x="1471" y="32" type="curve" smooth="yes"/>
      <point x="1477" y="54"/>
      <point x="1472" y="64"/>
      <point x="1460" y="64" type="curve" smooth="yes"/>
      <point x="961" y="64" type="line"/>
      <point x="1132" y="597" type="line"/>
      <point x="1557" y="597" type="line" smooth="yes"/>
      <point x="1569" y="597"/>
      <point x="1580" y="608"/>
      <point x="1586" y="629" type="curve" smooth="yes"/>
      <point x="1592" y="651"/>
      <point x="1587" y="661"/>
      <point x="1575" y="661" type="curve" smooth="yes"/>
      <point x="1153" y="661" type="line"/>
      <point x="1303" y="1126" type="line"/>
      <point x="1806" y="1126" type="line" smooth="yes"/>
      <point x="1818" y="1126"/>
      <point x="1829" y="1137"/>
      <point x="1835" y="1158" type="curve" smooth="yes"/>
      <point x="1841" y="1180"/>
      <point x="1836" y="1190"/>
      <point x="1824" y="1190" type="curve" smooth="yes"/>
      <point x="1284" y="1190" type="line" smooth="yes"/>
      <point x="1262" y="1190"/>
      <point x="1251" y="1182"/>
      <point x="1246" y="1168" type="curve" smooth="yes"/>
      <point x="880" y="32" type="line" smooth="yes"/>
      <point x="873" y="9"/>
      <point x="884" y="0"/>
    </contour>
  </outline>
</glyph>
<glyph name="oe" format="2">
	<unicode hex="0153"/>
	<advance width="728"/>
	<outline>
		<contour>
			<point x="169" y="-15" type="curve" smooth="yes"/>
			<point x="327" y="-15"/>
			<point x="407" y="163"/>
			<point x="407" y="274" type="curve" smooth="yes"/>
			<point x="407" y="357"/>
			<point x="354" y="415"/>
			<point x="283" y="415" type="curve" smooth="yes"/>
			<point x="120" y="415"/>
			<point x="38" y="251"/>
			<point x="38" y="131" type="curve" smooth="yes"/>
			<point x="38" y="44"/>
			<point x="84" y="-15"/>
		</contour>
		<contour>
			<point x="172" y="13" type="curve" smooth="yes"/>
			<point x="106" y="13"/>
			<point x="70" y="60"/>
			<point x="70" y="131" type="curve" smooth="yes"/>
			<point x="70" y="234"/>
			<point x="144" y="387"/>
			<point x="277" y="387" type="curve" smooth="yes"/>
			<point x="344" y="387"/>
			<point x="378" y="341"/>
			<point x="378" y="273" type="curve" smooth="yes"/>
			<point x="378" y="170"/>
			<point x="310" y="13"/>
		</contour>
		<contour>
			<point x="499" y="-15" type="curve" smooth="yes"/>
			<point x="570" y="-15"/>
			<point x="627" y="27"/>
			<point x="656" y="55" type="curve" smooth="yes"/>
			<point x="663" y="62"/>
			<point x="659" y="70"/>
			<point x="655" y="74" type="curve" smooth="yes"/>
			<point x="650" y="78"/>
			<point x="645" y="80"/>
			<point x="638" y="74" type="curve" smooth="yes"/>
			<point x="608" y="48"/>
			<point x="566" y="12"/>
			<point x="500" y="12" type="curve" smooth="yes"/>
			<point x="442" y="12"/>
			<point x="395" y="47"/>
			<point x="395" y="137" type="curve" smooth="yes"/>
			<point x="395" y="268"/>
			<point x="479" y="388"/>
			<point x="606" y="388" type="curve" smooth="yes"/>
			<point x="657" y="388"/>
			<point x="687" y="368"/>
			<point x="687" y="329" type="curve" smooth="yes"/>
			<point x="687" y="231"/>
			<point x="537" y="196"/>
			<point x="396" y="194" type="curve"/>
			<point x="387" y="167" type="line"/>
			<point x="541" y="169"/>
			<point x="720" y="201"/>
			<point x="720" y="334" type="curve" smooth="yes"/>
			<point x="720" y="377"/>
			<point x="690" y="415"/>
			<point x="610" y="415" type="curve" smooth="yes"/>
			<point x="474" y="415"/>
			<point x="368" y="293"/>
			<point x="368" y="138" type="curve" smooth="yes"/>
			<point x="368" y="56"/>
			<point x="404" y="-15"/>
		</contour>
	</outline>
	<anchor name="top" x="427" y="400"/>
</glyph>
<glyph name="ohorn" format="2">
  <advance width="589"/>
  <unicode hex="01A1"/>
  <anchor x="214" y="0" name="bottom"/>
  <anchor x="295" y="250" name="center"/>
  <anchor x="326" y="0" name="ogonek"/>
  <anchor x="351" y="500" name="top"/>
  <outline>
    <contour>
      <point x="241" y="-19" type="curve" smooth="yes"/>
      <point x="445" y="-19"/>
      <point x="541" y="196"/>
      <point x="541" y="331" type="curve" smooth="yes"/>
      <point x="541" y="380"/>
      <point x="528" y="423"/>
      <point x="503" y="455" type="curve"/>
      <point x="650" y="484"/>
      <point x="682" y="585"/>
      <point x="645" y="688" type="curve" smooth="yes"/>
      <point x="630" y="731"/>
      <point x="551" y="712"/>
      <point x="564" y="665" type="curve" smooth="yes"/>
      <point x="590" y="571"/>
      <point x="575" y="511"/>
      <point x="434" y="506" type="curve"/>
      <point x="410" y="514"/>
      <point x="382" y="519"/>
      <point x="351" y="519" type="curve" smooth="yes"/>
      <point x="151" y="519"/>
      <point x="50" y="318"/>
      <point x="50" y="176" type="curve" smooth="yes"/>
      <point x="50" y="63"/>
      <point x="116" y="-19"/>
    </contour>
    <contour>
      <point x="251" y="61" type="curve" smooth="yes"/>
      <point x="183" y="61"/>
      <point x="140" y="105"/>
      <point x="140" y="183" type="curve" smooth="yes"/>
      <point x="140" y="281"/>
      <point x="210" y="439"/>
      <point x="343" y="439" type="curve" smooth="yes"/>
      <point x="409" y="439"/>
      <point x="450" y="399"/>
      <point x="450" y="321" type="curve" smooth="yes"/>
      <point x="450" y="220"/>
      <point x="381" y="61"/>
    </contour>
  </outline>
</glyph>
<glyph name="uhorn" format="2">
  <advance width="647"/>
  <unicode hex="01B0"/>
  <anchor x="216" y="0" name="bottom"/>
  <anchor x="504" y="13" name="ogonek"/>
  <anchor x="379" y="500" name="top"/>
  <outline>
    <contour>
      <point x="195" y="-17" type="curve" smooth="yes"/>
      <point x="285" y="-17"/>
      <point x="383" y="49"/>
      <point x="445" y="161" type="curve"/>
      <point x="430" y="224" type="line"/>
      <point x="380" y="125"/>
      <point x="293" y="61"/>
      <point x="226" y="61" type="curve" smooth="yes"/>
      <point x="154" y="61"/>
      <point x="134" y="96"/>
      <point x="161" y="180" type="curve" smooth="yes"/>
      <point x="258" y="476" type="line" smooth="yes"/>
      <point x="266" y="503"/>
      <point x="258" y="515"/>
      <point x="216" y="515" type="curve" smooth="yes"/>
      <point x="190" y="515"/>
      <point x="180" y="510"/>
      <point x="171" y="483" type="curve" smooth="yes"/>
      <point x="73" y="180" type="line" smooth="yes"/>
      <point x="34" y="61"/>
      <point x="83" y="-17"/>
    </contour>
    <contour>
      <point x="493" y="-17" type="curve" smooth="yes"/>
      <point x="556" y="-17"/>
      <point x="601" y="29"/>
      <point x="623" y="66" type="curve" smooth="yes"/>
      <point x="630" y="80"/>
      <point x="634" y="95"/>
      <point x="611" y="109" type="curve" smooth="yes"/>
      <point x="589" y="123"/>
      <point x="575" y="115"/>
      <point x="568" y="104" type="curve" smooth="yes"/>
      <point x="555" y="85"/>
      <point x="531" y="58"/>
      <point x="501" y="58" type="curve" smooth="yes"/>
      <point x="465" y="58"/>
      <point x="473" y="96"/>
      <point x="480" y="119" type="curve" smooth="yes"/>
      <point x="590" y="458" type="line"/>
      <point x="761" y="480"/>
      <point x="799" y="585"/>
      <point x="760" y="693" type="curve" smooth="yes"/>
      <point x="746" y="733"/>
      <point x="667" y="714"/>
      <point x="679" y="670" type="curve" smooth="yes"/>
      <point x="705" y="577"/>
      <point x="690" y="519"/>
      <point x="555" y="515" type="curve"/>
      <point x="529" y="515"/>
      <point x="519" y="510"/>
      <point x="510" y="483" type="curve" smooth="yes"/>
      <point x="408" y="166" type="line" smooth="yes"/>
      <point x="378" y="75"/>
      <point x="375" y="-17"/>
    </contour>
  </outline>
</glyph>
<glyph name="jdotless" format="2">
	<unicode hex="0237"/>
	<advance width="214"/>
	<outline>
		<contour>
			<point x="-102" y="-315" type="curve" smooth="yes"/>
			<point x="-52" y="-315"/>
			<point x="-21" y="-300"/>
			<point x="12" y="-198" type="curve" smooth="yes"/>
			<point x="203" y="391" type="line" smooth="yes"/>
			<point x="207" y="405"/>
			<point x="198" y="412"/>
			<point x="175" y="412" type="curve" smooth="yes"/>
			<point x="152" y="412"/>
			<point x="138" y="405"/>
			<point x="134" y="391" type="curve" smooth="yes"/>
			<point x="-58" y="-201" type="line" smooth="yes"/>
			<point x="-72" y="-244"/>
			<point x="-77" y="-255"/>
			<point x="-96" y="-255" type="curve" smooth="yes"/>
			<point x="-112" y="-255"/>
			<point x="-122" y="-245"/>
			<point x="-143" y="-224" type="curve" smooth="yes"/>
			<point x="-156" y="-211"/>
			<point x="-168" y="-215"/>
			<point x="-183" y="-227" type="curve" smooth="yes"/>
			<point x="-199" y="-239"/>
			<point x="-200" y="-255"/>
			<point x="-187" y="-270" type="curve" smooth="yes"/>
			<point x="-167" y="-293"/>
			<point x="-133" y="-315"/>
		</contour>
	</outline>
	<anchor name="top" x="169" y="400"/>
</glyph>
<glyph name="gravecomb" format="2">
  <unicode hex="0300"/>
  <anchor x="81" y="500" name="_top"/>
  <anchor x="170" y="774" name="top"/>
  <outline>
    <contour>
      <point x="150" y="623" type="curve" smooth="yes"/>
      <point x="166" y="623"/>
      <point x="185" y="633"/>
      <point x="185" y="653" type="curve" smooth="yes"/>
      <point x="185" y="658"/>
      <point x="184" y="664"/>
      <point x="181" y="670" type="curve" smooth="yes"/>
      <point x="124" y="823" type="line" smooth="yes"/>
      <point x="116" y="844"/>
      <point x="105" y="855"/>
      <point x="89" y="855" type="curve" smooth="yes"/>
      <point x="63" y="855"/>
      <point x="31" y="835"/>
      <point x="31" y="813" type="curve" smooth="yes"/>
      <point x="31" y="805"/>
      <point x="35" y="799"/>
      <point x="39" y="791" type="curve" smooth="yes"/>
      <point x="120" y="646" type="line" smooth="yes"/>
      <point x="130" y="629"/>
      <point x="141" y="623"/>
    </contour>
  </outline>
</glyph>
<glyph name="acutecomb" format="2">
	<unicode hex="0301"/>
	<outline>
		<contour>
			<point x="72" y="493" type="curve" smooth="yes"/>
			<point x="78" y="493"/>
			<point x="86" y="496"/>
			<point x="95" y="505" type="curve" smooth="yes"/>
			<point x="208" y="618" type="line" smooth="yes"/>
			<point x="214" y="624"/>
			<point x="218" y="628"/>
			<point x="218" y="637" type="curve" smooth="yes"/>
			<point x="218" y="656"/>
			<point x="192" y="675"/>
			<point x="176" y="675" type="curve" smooth="yes"/>
			<point x="167" y="675"/>
			<point x="161" y="672"/>
			<point x="151" y="659" type="curve" smooth="yes"/>
			<point x="53" y="537" type="line" smooth="yes"/>
			<point x="47" y="530"/>
			<point x="45" y="524"/>
			<point x="45" y="517" type="curve" smooth="yes"/>
			<point x="45" y="505"/>
			<point x="62" y="493"/>
		</contour>
	</outline>
	<anchor name="_top" x="65" y="400"/>
	<anchor name="top" x="136" y="620"/>
</glyph>
<glyph name="circumflexcomb" format="2">
	<unicode hex="0302"/>
	<outline>
		<contour>
			<point x="-10" y="488" type="curve" smooth="yes"/>
			<point x="-1" y="488"/>
			<point x="6" y="495"/>
			<point x="13" y="500" type="curve" smooth="yes"/>
			<point x="130" y="591" type="line"/>
			<point x="199" y="501" type="line" smooth="yes"/>
			<point x="204" y="494"/>
			<point x="209" y="488"/>
			<point x="220" y="488" type="curve" smooth="yes"/>
			<point x="230" y="488"/>
			<point x="251" y="498"/>
			<point x="251" y="511" type="curve" smooth="yes"/>
			<point x="251" y="516"/>
			<point x="250" y="521"/>
			<point x="246" y="529" type="curve" smooth="yes"/>
			<point x="181" y="651" type="line" smooth="yes"/>
			<point x="174" y="665"/>
			<point x="161" y="672"/>
			<point x="147" y="672" type="curve" smooth="yes"/>
			<point x="130" y="672"/>
			<point x="116" y="668"/>
			<point x="101" y="654" type="curve" smooth="yes"/>
			<point x="-26" y="535" type="line" smooth="yes"/>
			<point x="-30" y="531"/>
			<point x="-35" y="525"/>
			<point x="-35" y="515" type="curve" smooth="yes"/>
			<point x="-35" y="502"/>
			<point x="-23" y="488"/>
		</contour>
	</outline>
	<anchor name="_top" x="65" y="400"/>
	<anchor name="top" x="147" y="654"/>
</glyph>
<glyph name="macroncomb" format="2">
	<unicode hex="0304"/>
	<outline>
		<contour>
			<point x="14" y="549" type="curve" smooth="yes"/>
			<point x="220" y="549" type="line" smooth="yes"/>
			<point x="239" y="549"/>
			<point x="247" y="560"/>
			<point x="253" y="582" type="curve" smooth="yes"/>
			<point x="258" y="602"/>
			<point x="255" y="617"/>
			<point x="234" y="617" type="curve" smooth="yes"/>
			<point x="28" y="617" type="line" smooth="yes"/>
			<point x="9" y="617"/>
			<point x="1" y="605"/>
			<point x="-5" y="582" type="curve" smooth="yes"/>
			<point x="-10" y="563"/>
			<point x="-7" y="549"/>
		</contour>
	</outline>
	<anchor name="_top" x="65" y="400"/>
	<anchor name="top" x="136" y="619"/>
</glyph>
<glyph name="brevecomb" format="2">
	<unicode hex="0306"/>
	<outline>
		<contour>
			<point x="101" y="494" type="curve" smooth="yes"/>
			<point x="189" y="494"/>
			<point x="238" y="535"/>
			<point x="276" y="650" type="curve" smooth="yes"/>
			<point x="281" y="666"/>
			<point x="270" y="677"/>
			<point x="251" y="677" type="curve" smooth="yes"/>
			<point x="236" y="677"/>
			<point x="228" y="672"/>
			<point x="220" y="653" type="curve" smooth="yes"/>
			<point x="199" y="606"/>
			<point x="160" y="563"/>
			<point x="113" y="563" type="curve" smooth="yes"/>
			<point x="73" y="563"/>
			<point x="49" y="597"/>
			<point x="53" y="656" type="curve" smooth="yes"/>
			<point x="54" y="669"/>
			<point x="43" y="678"/>
			<point x="27" y="678" type="curve" smooth="yes"/>
			<point x="11" y="678"/>
			<point x="2" y="672"/>
			<point x="-1" y="656" type="curve" smooth="yes"/>
			<point x="-19" y="553"/>
			<point x="19" y="494"/>
		</contour>
	</outline>
	<anchor name="_top" x="65" y="400"/>
	<anchor name="top" x="147" y="654"/>
</glyph>
<glyph name="hookabovecomb" format="2">
  <unicode hex="0309"/>
  <anchor x="65" y="400" name="_top"/>
  <anchor x="136" y="619" name="top"/>
  <outline>
    <contour>
      <point x="137" y="688" type="curve" smooth="yes"/>
      <point x="106" y="688"/>
      <point x="80" y="680"/>
      <point x="55" y="664" type="curve" smooth="yes"/>
      <point x="43" y="655"/>
      <point x="39" y="644"/>
      <point x="44" y="633" type="curve" smooth="yes"/>
      <point x="52" y="615"/>
      <point x="63" y="608"/>
      <point x="73" y="614" type="curve" smooth="yes"/>
      <point x="90" y="624"/>
      <point x="108" y="630"/>
      <point x="123" y="630" type="curve" smooth="yes"/>
      <point x="136" y="630"/>
      <point x="143" y="625"/>
      <point x="143" y="616" type="curve" smooth="yes"/>
      <point x="143" y="605"/>
      <point x="135" y="596"/>
      <point x="116" y="585" type="curve" smooth="yes"/>
      <point x="88" y="568"/>
      <point x="77" y="549"/>
      <point x="82" y="524" type="curve" smooth="yes"/>
      <point x="87" y="500" type="line" smooth="yes"/>
      <point x="92" y="476"/>
      <point x="146" y="482"/>
      <point x="144" y="507" type="curve" smooth="yes"/>
      <point x="143" y="518" type="line" smooth="yes"/>
      <point x="142" y="528"/>
      <point x="146" y="537"/>
      <point x="173" y="552" type="curve" smooth="yes"/>
      <point x="202" y="568"/>
      <point x="221" y="590"/>
      <point x="221" y="623" type="curve" smooth="yes"/>
      <point x="221" y="664"/>
      <point x="189" y="688"/>
    </contour>
  </outline>
</glyph>
<glyph name="commaturnedabovecomb" format="2">
	<unicode hex="0312"/>
	<outline>
		<contour>
			<point x="179" y="681" type="curve" smooth="yes"/>
			<point x="166" y="689"/>
			<point x="154" y="682"/>
			<point x="140" y="668" type="curve" smooth="yes"/>
			<point x="103" y="629"/>
			<point x="71" y="578"/>
			<point x="67" y="537" type="curve" smooth="yes"/>
			<point x="65" y="517"/>
			<point x="77" y="504"/>
			<point x="101" y="504" type="curve" smooth="yes"/>
			<point x="121" y="504"/>
			<point x="134" y="511"/>
			<point x="136" y="529" type="curve" smooth="yes"/>
			<point x="141" y="577"/>
			<point x="155" y="606"/>
			<point x="184" y="648" type="curve" smooth="yes"/>
			<point x="193" y="661"/>
			<point x="192" y="673"/>
		</contour>
	</outline>
	<anchor name="_top" x="65" y="400"/>
	<anchor name="top" x="147" y="654"/>
</glyph>
<glyph name="horncomb" format="2">
  <unicode hex="031B"/>
  <anchor x="86" y="515" name="_topright"/>
  <outline>
    <contour>
      <point x="296" y="694" type="curve" smooth="yes"/>
      <point x="284" y="728"/>
      <point x="205" y="709"/>
      <point x="215" y="671" type="curve" smooth="yes"/>
      <point x="241" y="578"/>
      <point x="226" y="520"/>
      <point x="86" y="515" type="curve"/>
      <point x="65" y="455" type="line"/>
      <point x="288" y="458"/>
      <point x="339" y="574"/>
    </contour>
  </outline>
</glyph>
<glyph name="dotbelowcomb" format="2">
	<unicode hex="0323"/>
	<outline>
		<contour>
			<point x="-119" y="-186" type="curve" smooth="yes"/>
			<point x="-79" y="-186"/>
			<point x="-61" y="-155"/>
			<point x="-61" y="-126" type="curve" smooth="yes"/>
			<point x="-61" y="-99"/>
			<point x="-78" y="-85"/>
			<point x="-100" y="-85" type="curve" smooth="yes"/>
			<point x="-140" y="-85"/>
			<point x="-158" y="-116"/>
			<point x="-158" y="-145" type="curve" smooth="yes"/>
			<point x="-158" y="-172"/>
			<point x="-141" y="-186"/>
		</contour>
	</outline>
	<anchor name="_bottom" x="-65" y="0"/>
	<anchor name="bottom" x="-115" y="-155"/>
</glyph>
<glyph name="commaaccentcomb" format="2">
	<unicode hex="0326"/>
	<outline>
		<contour>
			<point x="-157" y="-229" type="curve" smooth="yes"/>
			<point x="-144" y="-237"/>
			<point x="-132" y="-230"/>
			<point x="-118" y="-216" type="curve" smooth="yes"/>
			<point x="-81" y="-177"/>
			<point x="-50" y="-129"/>
			<point x="-46" y="-88" type="curve" smooth="yes"/>
			<point x="-44" y="-68"/>
			<point x="-56" y="-55"/>
			<point x="-80" y="-55" type="curve" smooth="yes"/>
			<point x="-100" y="-55"/>
			<point x="-113" y="-62"/>
			<point x="-115" y="-80" type="curve" smooth="yes"/>
			<point x="-120" y="-128"/>
			<point x="-133" y="-154"/>
			<point x="-162" y="-196" type="curve" smooth="yes"/>
			<point x="-171" y="-209"/>
			<point x="-170" y="-221"/>
		</contour>
	</outline>
	<anchor name="_bottom" x="-65" y="0"/>
</glyph>
<glyph name="strokeshortcomb" format="2">
	<unicode hex="0335"/>
	<outline>
		<contour>
			<point x="-105" y="245" type="curve" smooth="yes"/>
			<point x="136" y="245" type="line" smooth="yes"/>
			<point x="155" y="245"/>
			<point x="161" y="259"/>
			<point x="164" y="273" type="curve" smooth="yes"/>
			<point x="167" y="288"/>
			<point x="168" y="303"/>
			<point x="148" y="303" type="curve" smooth="yes"/>
			<point x="-91" y="303" type="line" smooth="yes"/>
			<point x="-111" y="303"/>
			<point x="-117" y="288"/>
			<point x="-120" y="273" type="curve" smooth="yes"/>
			<point x="-123" y="259"/>
			<point x="-124" y="245"/>
		</contour>
	</outline>
	<anchor name="_center" x="25" y="274"/>
</glyph>
<glyph name="strokelongcomb" format="2">
  <unicode hex="0336"/>
  <anchor x="31" y="343" name="_center"/>
  <outline>
    <contour>
      <point x="-562" y="306" type="curve" smooth="yes"/>
      <point x="606" y="306" type="line" smooth="yes"/>
      <point x="630" y="306"/>
      <point x="638" y="324"/>
      <point x="641" y="341" type="curve" smooth="yes"/>
      <point x="645" y="360"/>
      <point x="646" y="379"/>
      <point x="621" y="379" type="curve" smooth="yes"/>
      <point x="-545" y="379" type="line" smooth="yes"/>
      <point x="-570" y="379"/>
      <point x="-577" y="360"/>
      <point x="-581" y="341" type="curve" smooth="yes"/>
      <point x="-585" y="324"/>
      <point x="-586" y="306"/>
    </contour>
  </outline>
</glyph>
<glyph name="slashlongcomb" format="2">
	<unicode hex="0338"/>
	<outline>
		<contour>
			<point x="-168" y="-20" type="curve" smooth="yes"/>
			<point x="209" y="402" type="line" smooth="yes"/>
			<point x="218" y="412"/>
			<point x="213" y="425"/>
			<point x="202" y="436" type="curve" smooth="yes"/>
			<point x="189" y="448"/>
			<point x="174" y="447"/>
			<point x="166" y="438" type="curve" smooth="yes"/>
			<point x="-209" y="18" type="line" smooth="yes"/>
			<point x="-221" y="5"/>
			<point x="-217" y="-8"/>
			<point x="-205" y="-17" type="curve" smooth="yes"/>
			<point x="-194" y="-27"/>
			<point x="-177" y="-30"/>
		</contour>
	</outline>
	<anchor name="_center" x="0" y="214"/>
</glyph>
<glyph name="Germandbls" format="2">
  <advance width="1325"/>
  <unicode hex="1E9E"/>
  <outline>
    <contour>
      <point x="753" y="-19" type="curve" smooth="yes"/>
      <point x="1053" y="-19"/>
      <point x="1270" y="188"/>
      <point x="1270" y="473" type="curve" smooth="yes"/>
      <point x="1270" y="826"/>
      <point x="966" y="889"/>
      <point x="966" y="1130" type="curve" smooth="yes"/>
      <point x="966" y="1314"/>
      <point x="1129" y="1433"/>
      <point x="1326" y="1433" type="curve" smooth="yes"/>
      <point x="1346" y="1433"/>
      <point x="1358" y="1441"/>
      <point x="1368" y="1474" type="curve" smooth="yes"/>
      <point x="1378" y="1505"/>
      <point x="1374" y="1515"/>
      <point x="1354" y="1515" type="curve" smooth="yes"/>
      <point x="1303" y="1515" type="line" smooth="yes"/>
      <point x="698" y="1515"/>
      <point x="548" y="1300"/>
      <point x="423" y="918" type="curve" smooth="yes"/>
      <point x="129" y="16" type="line" smooth="yes"/>
      <point x="121" y="-5"/>
      <point x="138" y="-14"/>
      <point x="168" y="-14" type="curve" smooth="yes"/>
      <point x="198" y="-14"/>
      <point x="213" y="-5"/>
      <point x="219" y="14" type="curve" smooth="yes"/>
      <point x="514" y="920" type="line" smooth="yes"/>
      <point x="606" y="1207"/>
      <point x="706" y="1388"/>
      <point x="1077" y="1433" type="curve"/>
      <point x="961" y="1381"/>
      <point x="875" y="1279"/>
      <point x="875" y="1114" type="curve" smooth="yes"/>
      <point x="875" y="846"/>
      <point x="1176" y="788"/>
      <point x="1176" y="466" type="curve" smooth="yes"/>
      <point x="1176" y="234"/>
      <point x="1003" y="66"/>
      <point x="763" y="66" type="curve" smooth="yes"/>
      <point x="664" y="66"/>
      <point x="596" y="79"/>
      <point x="498" y="118" type="curve" smooth="yes"/>
      <point x="476" y="126"/>
      <point x="460" y="118"/>
      <point x="450" y="94" type="curve" smooth="yes"/>
      <point x="439" y="69"/>
      <point x="446" y="51"/>
      <point x="469" y="41" type="curve" smooth="yes"/>
      <point x="559" y="1"/>
      <point x="645" y="-19"/>
    </contour>
  </outline>
</glyph>
<glyph name="endash" format="2">
	<unicode hex="2013"/>
	<advance width="500"/>
	<outline>
		<contour>
			<point x="84" y="241" type="curve" smooth="yes"/>
			<point x="444" y="241" type="line" smooth="yes"/>
			<point x="460" y="241"/>
			<point x="468" y="249"/>
			<point x="476" y="273" type="curve" smooth="yes"/>
			<point x="484" y="297"/>
			<point x="480" y="305"/>
			<point x="464" y="305" type="curve" smooth="yes"/>
			<point x="104" y="305" type="line" smooth="yes"/>
			<point x="88" y="305"/>
			<point x="80" y="297"/>
			<point x="72" y="273" type="curve" smooth="yes"/>
			<point x="64" y="249"/>
			<point x="68" y="241"/>
		</contour>
	</outline>
</glyph>
<glyph name="quoteleft" format="2">
  <advance width="181"/>
  <unicode hex="2018"/>
  <outline>
    <contour>
      <point x="423" y="1225" type="curve" smooth="yes"/>
      <point x="455" y="1225"/>
      <point x="474" y="1244"/>
      <point x="475" y="1269" type="curve" smooth="yes"/>
      <point x="479" y="1348"/>
      <point x="495" y="1405"/>
      <point x="564" y="1495" type="curve" smooth="yes"/>
      <point x="569" y="1503"/>
      <point x="571" y="1509"/>
      <point x="571" y="1515" type="curve" smooth="yes"/>
      <point x="571" y="1529"/>
      <point x="551" y="1545"/>
      <point x="538" y="1545" type="curve" smooth="yes"/>
      <point x="530" y="1545"/>
      <point x="520" y="1541"/>
      <point x="509" y="1533" type="curve" smooth="yes"/>
      <point x="429" y="1470"/>
      <point x="375" y="1346"/>
      <point x="375" y="1265" type="curve" smooth="yes"/>
      <point x="375" y="1243"/>
      <point x="390" y="1225"/>
    </contour>
  </outline>
</glyph>
<glyph name="minute" format="2">
  <advance width="161"/>
  <unicode hex="2032"/>
  <outline>
    <contour>
      <point x="339" y="1223" type="curve" smooth="yes"/>
      <point x="358" y="1223"/>
      <point x="369" y="1232"/>
      <point x="377" y="1246" type="curve" smooth="yes"/>
      <point x="514" y="1498" type="line" smooth="yes"/>
      <point x="530" y="1528"/>
      <point x="517" y="1545"/>
      <point x="479" y="1545" type="curve" smooth="yes"/>
      <point x="446" y="1545"/>
      <point x="431" y="1526"/>
      <point x="422" y="1505" type="curve" smooth="yes"/>
      <point x="320" y="1262" type="line" smooth="yes"/>
      <point x="308" y="1234"/>
      <point x="313" y="1223"/>
    </contour>
  </outline>
</glyph>
<glyph name="guilsinglleft" format="2">
  <advance width="475"/>
  <unicode hex="2039"/>
  <outline>
    <contour>
      <point x="244" y="-14" type="curve" smooth="yes"/>
      <point x="280" y="-14"/>
      <point x="298" y="10"/>
      <point x="284" y="40" type="curve" smooth="yes"/>
      <point x="166" y="295" type="line"/>
      <point x="169" y="208" type="line"/>
      <point x="453" y="461" type="line" smooth="yes"/>
      <point x="480" y="486"/>
      <point x="453" y="515"/>
      <point x="416" y="515" type="curve" smooth="yes"/>
      <point x="396" y="515"/>
      <point x="378" y="508"/>
      <point x="354" y="488" type="curve" smooth="yes"/>
      <point x="130" y="289" type="line" smooth="yes"/>
      <point x="104" y="266"/>
      <point x="93" y="256"/>
      <point x="93" y="246" type="curve" smooth="yes"/>
      <point x="93" y="240"/>
      <point x="96" y="231"/>
      <point x="105" y="214" type="curve" smooth="yes"/>
      <point x="199" y="14" type="line" smooth="yes"/>
      <point x="209" y="-7"/>
      <point x="224" y="-14"/>
    </contour>
  </outline>
</glyph>
<glyph name="euro" format="2">
  <advance width="961"/>
  <unicode hex="20AC"/>
  <outline>
    <contour>
      <point x="532" y="-15" type="curve" smooth="yes"/>
      <point x="658" y="-15"/>
      <point x="780" y="54"/>
      <point x="919" y="189" type="curve" smooth="yes"/>
      <point x="931" y="201"/>
      <point x="929" y="210"/>
      <point x="915" y="227" type="curve" smooth="yes"/>
      <point x="904" y="240"/>
      <point x="892" y="245"/>
      <point x="879" y="234" type="curve" smooth="yes"/>
      <point x="750" y="125"/>
      <point x="660" y="53"/>
      <point x="542" y="53" type="curve" smooth="yes"/>
      <point x="374" y="53"/>
      <point x="276" y="177"/>
      <point x="276" y="380" type="curve" smooth="yes"/>
      <point x="276" y="730"/>
      <point x="518" y="1145"/>
      <point x="853" y="1145" type="curve" smooth="yes"/>
      <point x="961" y="1145"/>
      <point x="1027" y="1105"/>
      <point x="1097" y="1035" type="curve" smooth="yes"/>
      <point x="1111" y="1022"/>
      <point x="1120" y="1025"/>
      <point x="1134" y="1036" type="curve" smooth="yes"/>
      <point x="1149" y="1048"/>
      <point x="1154" y="1055"/>
      <point x="1146" y="1067" type="curve" smooth="yes"/>
      <point x="1090" y="1146"/>
      <point x="989" y="1212"/>
      <point x="862" y="1212" type="curve" smooth="yes"/>
      <point x="453" y="1212"/>
      <point x="201" y="750"/>
      <point x="201" y="374" type="curve" smooth="yes"/>
      <point x="201" y="136"/>
      <point x="331" y="-15"/>
    </contour>
    <contour>
      <point x="165" y="641" type="curve" smooth="yes"/>
      <point x="857" y="641" type="line" smooth="yes"/>
      <point x="873" y="641"/>
      <point x="882" y="648"/>
      <point x="889" y="672" type="curve" smooth="yes"/>
      <point x="897" y="696"/>
      <point x="894" y="703"/>
      <point x="878" y="703" type="curve" smooth="yes"/>
      <point x="186" y="703" type="line" smooth="yes"/>
      <point x="170" y="703"/>
      <point x="161" y="696"/>
      <point x="153" y="672" type="curve" smooth="yes"/>
      <point x="146" y="648"/>
      <point x="149" y="641"/>
    </contour>
    <contour>
      <point x="126" y="492" type="curve" smooth="yes"/>
      <point x="818" y="492" type="line" smooth="yes"/>
      <point x="834" y="492"/>
      <point x="843" y="499"/>
      <point x="851" y="523" type="curve" smooth="yes"/>
      <point x="858" y="547"/>
      <point x="855" y="554"/>
      <point x="839" y="554" type="curve" smooth="yes"/>
      <point x="147" y="554" type="line" smooth="yes"/>
      <point x="131" y="554"/>
      <point x="122" y="547"/>
      <point x="115" y="523" type="curve" smooth="yes"/>
      <point x="107" y="499"/>
      <point x="110" y="492"/>
    </contour>
  </outline>
</glyph>
<glyph name="trademark" format="2">
  <advance width="768"/>
  <unicode hex="2122"/>
  <outline>
    <contour>
      <point x="429" y="834" type="curve" smooth="yes"/>
      <point x="450" y="834"/>
      <point x="461" y="841"/>
      <point x="461" y="853" type="curve" smooth="yes"/>
      <point x="461" y="1133" type="line"/>
      <point x="548" y="1133" type="line" smooth="yes"/>
      <point x="564" y="1133"/>
      <point x="569" y="1137"/>
      <point x="569" y="1161" type="curve" smooth="yes"/>
      <point x="569" y="1183"/>
      <point x="565" y="1190"/>
      <point x="548" y="1190" type="curve" smooth="yes"/>
      <point x="311" y="1190" type="line" smooth="yes"/>
      <point x="294" y="1190"/>
      <point x="289" y="1185"/>
      <point x="289" y="1161" type="curve" smooth="yes"/>
      <point x="289" y="1138"/>
      <point x="294" y="1133"/>
      <point x="311" y="1133" type="curve" smooth="yes"/>
      <point x="397" y="1133" type="line"/>
      <point x="397" y="853" type="line" smooth="yes"/>
      <point x="397" y="841"/>
      <point x="408" y="834"/>
    </contour>
    <contour>
      <point x="650" y="834" type="curve" smooth="yes"/>
      <point x="670" y="834"/>
      <point x="682" y="840"/>
      <point x="682" y="853" type="curve" smooth="yes"/>
      <point x="682" y="1044" type="line"/>
      <point x="759" y="901" type="line" smooth="yes"/>
      <point x="765" y="891"/>
      <point x="772" y="890"/>
      <point x="794" y="890" type="curve" smooth="yes"/>
      <point x="813" y="890"/>
      <point x="820" y="894"/>
      <point x="825" y="902" type="curve" smooth="yes"/>
      <point x="903" y="1044" type="line"/>
      <point x="903" y="853" type="line" smooth="yes"/>
      <point x="903" y="840"/>
      <point x="914" y="834"/>
      <point x="935" y="834" type="curve" smooth="yes"/>
      <point x="955" y="834"/>
      <point x="967" y="840"/>
      <point x="967" y="853" type="curve" smooth="yes"/>
      <point x="967" y="1171" type="line" smooth="yes"/>
      <point x="967" y="1183"/>
      <point x="961" y="1190"/>
      <point x="940" y="1190" type="curve" smooth="yes"/>
      <point x="923" y="1190"/>
      <point x="913" y="1181"/>
      <point x="906" y="1169" type="curve" smooth="yes"/>
      <point x="792" y="962" type="line"/>
      <point x="679" y="1169" type="line" smooth="yes"/>
      <point x="672" y="1182"/>
      <point x="663" y="1190"/>
      <point x="645" y="1190" type="curve" smooth="yes"/>
      <point x="624" y="1190"/>
      <point x="618" y="1183"/>
      <point x="618" y="1171" type="curve" smooth="yes"/>
      <point x="618" y="853" type="line" smooth="yes"/>
      <point x="618" y="840"/>
      <point x="629" y="834"/>
    </contour>
  </outline>
</glyph>
<glyph name="product" format="2">
  <advance width="763"/>
  <unicode hex="220F"/>
  <outline>
    <contour>
      <point x="96" y="-82" type="curve" smooth="yes"/>
      <point x="123" y="-82"/>
      <point x="133" y="-77"/>
      <point x="141" y="-50" type="curve" smooth="yes"/>
      <point x="413" y="795" type="line"/>
      <point x="703" y="795" type="line"/>
      <point x="433" y="-44" type="line" smooth="yes"/>
      <point x="424" y="-70"/>
      <point x="433" y="-82"/>
      <point x="474" y="-82" type="curve" smooth="yes"/>
      <point x="500" y="-82"/>
      <point x="510" y="-77"/>
      <point x="519" y="-50" type="curve" smooth="yes"/>
      <point x="790" y="795" type="line"/>
      <point x="903" y="795" type="line" smooth="yes"/>
      <point x="918" y="795"/>
      <point x="931" y="808"/>
      <point x="939" y="833" type="curve" smooth="yes"/>
      <point x="948" y="863"/>
      <point x="941" y="875"/>
      <point x="926" y="875" type="curve" smooth="yes"/>
      <point x="240" y="875" type="line" smooth="yes"/>
      <point x="225" y="875"/>
      <point x="211" y="863"/>
      <point x="204" y="838" type="curve" smooth="yes"/>
      <point x="195" y="808"/>
      <point x="201" y="795"/>
      <point x="216" y="795" type="curve" smooth="yes"/>
      <point x="325" y="795" type="line"/>
      <point x="55" y="-44" type="line" smooth="yes"/>
      <point x="46" y="-70"/>
      <point x="55" y="-82"/>
    </contour>
  </outline>
</glyph>
<glyph name="integral" format="2">
  <advance width="647"/>
  <unicode hex="222B"/>
  <outline>
    <contour>
      <point x="-33" y="-75" type="curve" smooth="yes"/>
      <point x="103" y="-75"/>
      <point x="172" y="-34"/>
      <point x="227" y="84" type="curve" smooth="yes"/>
      <point x="800" y="1327" type="line" smooth="yes"/>
      <point x="840" y="1414"/>
      <point x="879" y="1438"/>
      <point x="978" y="1438" type="curve" smooth="yes"/>
      <point x="1009" y="1438"/>
      <point x="1022" y="1452"/>
      <point x="1022" y="1484" type="curve" smooth="yes"/>
      <point x="1022" y="1504"/>
      <point x="1011" y="1513"/>
      <point x="984" y="1513" type="curve" smooth="yes"/>
      <point x="848" y="1513"/>
      <point x="779" y="1473"/>
      <point x="724" y="1354" type="curve" smooth="yes"/>
      <point x="151" y="111" type="line" smooth="yes"/>
      <point x="111" y="24"/>
      <point x="72" y="0"/>
      <point x="-27" y="0" type="curve" smooth="yes"/>
      <point x="-58" y="0"/>
      <point x="-71" y="-14"/>
      <point x="-71" y="-46" type="curve" smooth="yes"/>
      <point x="-71" y="-66"/>
      <point x="-60" y="-75"/>
    </contour>
  </outline>
</glyph>
<glyph name="A.cur" format="2">
	<advance width="1214"/>
	<outline>
		<contour>
			<point x="484" y="-15" type="curve" smooth="yes"/>
			<point x="726" y="-15"/>
			<point x="918" y="198"/>
			<point x="1080" y="645" type="curve"/>
			<point x="1038" y="662" type="line"/>
			<point x="881" y="250"/>
			<point x="706" y="53"/>
			<point x="497" y="53" type="curve" smooth="yes"/>
			<point x="357" y="53"/>
			<point x="265" y="172"/>
			<point x="265" y="354" type="curve" smooth="yes"/>
			<point x="265" y="772"/>
			<point x="542" y="1144"/>
			<point x="852" y="1144" type="curve" smooth="yes"/>
			<point x="1004" y="1144"/>
			<point x="1092" y="1069"/>
			<point x="1124" y="913" type="curve" smooth="yes"/>
			<point x="1128" y="892"/>
			<point x="1140" y="883"/>
			<point x="1163" y="889" type="curve" smooth="yes"/>
			<point x="1182" y="895"/>
			<point x="1191" y="907"/>
			<point x="1187" y="925" type="curve" smooth="yes"/>
			<point x="1150" y="1112"/>
			<point x="1037" y="1212"/>
			<point x="862" y="1212" type="curve" smooth="yes"/>
			<point x="502" y="1212"/>
			<point x="190" y="810"/>
			<point x="190" y="350" type="curve" smooth="yes"/>
			<point x="190" y="129"/>
			<point x="306" y="-15"/>
		</contour>
		<contour>
			<point x="993" y="-15" type="curve" smooth="yes"/>
			<point x="1062" y="-15"/>
			<point x="1131" y="42"/>
			<point x="1179" y="139" type="curve" smooth="yes"/>
			<point x="1189" y="160"/>
			<point x="1185" y="173"/>
			<point x="1167" y="182" type="curve" smooth="yes"/>
			<point x="1143" y="193"/>
			<point x="1128" y="181"/>
			<point x="1120" y="164" type="curve" smooth="yes"/>
			<point x="1087" y="91"/>
			<point x="1045" y="52"/>
			<point x="999" y="52" type="curve" smooth="yes"/>
			<point x="940" y="52"/>
			<point x="930" y="109"/>
			<point x="968" y="228" type="curve" smooth="yes"/>
			<point x="1110" y="660" type="line" smooth="yes"/>
			<point x="1116" y="677"/>
			<point x="1103" y="684"/>
			<point x="1079" y="684" type="curve" smooth="yes"/>
			<point x="1055" y="684"/>
			<point x="1043" y="677"/>
			<point x="1038" y="662" type="curve" smooth="yes"/>
			<point x="898" y="236" type="line" smooth="yes"/>
			<point x="847" y="78"/>
			<point x="882" y="-15"/>
		</contour>
	</outline>
	<anchor name="bottom" x="481" y="0"/>
	<anchor name="ogonek" x="1091" y="17"/>
	<anchor name="top" x="834" y="1139"/>
</glyph>
<glyph name="A.cur.ini" format="2">
  <advance width="1152"/>
  <anchor x="481" y="0" name="bottom"/>
  <anchor x="1087" y="0" name="cnct"/>
  <anchor x="1091" y="17" name="ogonek"/>
  <anchor x="834" y="1139" name="top"/>
  <outline>
    <contour>
      <point x="484" y="-15" type="curve" smooth="yes"/>
      <point x="726" y="-15"/>
      <point x="918" y="198"/>
      <point x="1080" y="645" type="curve"/>
      <point x="1038" y="662" type="line"/>
      <point x="881" y="250"/>
      <point x="706" y="53"/>
      <point x="497" y="53" type="curve" smooth="yes"/>
      <point x="357" y="53"/>
      <point x="265" y="172"/>
      <point x="265" y="354" type="curve" smooth="yes"/>
      <point x="265" y="772"/>
      <point x="542" y="1144"/>
      <point x="852" y="1144" type="curve" smooth="yes"/>
      <point x="1004" y="1144"/>
      <point x="1092" y="1069"/>
      <point x="1124" y="913" type="curve" smooth="yes"/>
      <point x="1128" y="892"/>
      <point x="1140" y="883"/>
      <point x="1163" y="889" type="curve" smooth="yes"/>
      <point x="1182" y="895"/>
      <point x="1191" y="907"/>
      <point x="1187" y="925" type="curve" smooth="yes"/>
      <point x="1150" y="1112"/>
      <point x="1037" y="1212"/>
      <point x="862" y="1212" type="curve" smooth="yes"/>
      <point x="502" y="1212"/>
      <point x="190" y="810"/>
      <point x="190" y="350" type="curve" smooth="yes"/>
      <point x="190" y="129"/>
      <point x="306" y="-15"/>
    </contour>
    <contour>
      <point x="1042" y="-14" type="curve" smooth="yes"/>
      <point x="1082" y="-14"/>
      <point x="1102" y="46"/>
      <point x="1062" y="46" type="curve" smooth="yes"/>
      <point x="963" y="46"/>
      <point x="931" y="116"/>
      <point x="986" y="282" type="curve" smooth="yes"/>
      <point x="1110" y="660" type="line" smooth="yes"/>
      <point x="1116" y="677"/>
      <point x="1103" y="684"/>
      <point x="1079" y="684" type="curve" smooth="yes"/>
      <point x="1055" y="684"/>
      <point x="1043" y="677"/>
      <point x="1038" y="662" type="curve" smooth="yes"/>
      <point x="914" y="281" type="line" smooth="yes"/>
      <point x="852" y="90"/>
      <point x="906" y="-14"/>
    </contour>
  </outline>
</glyph>
<glyph name="A.cur_locl" format="2">
  <advance width="1518"/>
  <anchor x="601" y="0" name="bottom"/>
  <anchor x="1364" y="21" name="ogonek"/>
  <anchor x="1043" y="1424" name="top"/>
  <outline>
    <contour>
      <point x="605" y="-17" type="curve" smooth="yes"/>
      <point x="810" y="-17"/>
      <point x="988" y="105"/>
      <point x="1143" y="358" type="curve"/>
      <point x="1123" y="295" type="line" smooth="yes"/>
      <point x="1059" y="98"/>
      <point x="1103" y="-19"/>
      <point x="1241" y="-19" type="curve" smooth="yes"/>
      <point x="1328" y="-19"/>
      <point x="1414" y="53"/>
      <point x="1474" y="174" type="curve" smooth="yes"/>
      <point x="1486" y="200"/>
      <point x="1481" y="216"/>
      <point x="1459" y="228" type="curve" smooth="yes"/>
      <point x="1429" y="241"/>
      <point x="1410" y="226"/>
      <point x="1400" y="205" type="curve" smooth="yes"/>
      <point x="1359" y="114"/>
      <point x="1306" y="65"/>
      <point x="1249" y="65" type="curve" smooth="yes"/>
      <point x="1175" y="65"/>
      <point x="1161" y="134"/>
      <point x="1210" y="285" type="curve" smooth="yes"/>
      <point x="1596" y="1485" type="line" smooth="yes"/>
      <point x="1603" y="1505"/>
      <point x="1588" y="1515"/>
      <point x="1558" y="1515" type="curve" smooth="yes"/>
      <point x="1528" y="1515"/>
      <point x="1511" y="1505"/>
      <point x="1506" y="1488" type="curve" smooth="yes"/>
      <point x="1440" y="1284" type="line"/>
      <point x="1366" y="1436"/>
      <point x="1244" y="1515"/>
      <point x="1078" y="1515" type="curve" smooth="yes"/>
      <point x="628" y="1515"/>
      <point x="238" y="1013"/>
      <point x="238" y="438" type="curve" smooth="yes"/>
      <point x="238" y="163"/>
      <point x="383" y="-17"/>
    </contour>
    <contour>
      <point x="331" y="443" type="curve" smooth="yes"/>
      <point x="331" y="965"/>
      <point x="678" y="1430"/>
      <point x="1065" y="1430" type="curve" smooth="yes"/>
      <point x="1246" y="1430"/>
      <point x="1346" y="1351"/>
      <point x="1401" y="1163" type="curve"/>
      <point x="1276" y="774" type="line"/>
      <point x="1086" y="296"/>
      <point x="874" y="68"/>
      <point x="621" y="68" type="curve" smooth="yes"/>
      <point x="446" y="68"/>
      <point x="331" y="216"/>
    </contour>
  </outline>
</glyph>
<glyph name="A.cur_locl.ini" format="2">
  <advance width="1440"/>
  <anchor x="601" y="0" name="bottom"/>
  <anchor x="1359" y="0" name="cnct"/>
  <anchor x="1364" y="21" name="ogonek"/>
  <anchor x="1043" y="1424" name="top"/>
  <outline>
    <contour>
      <point x="605" y="-17" type="curve" smooth="yes"/>
      <point x="813" y="-17"/>
      <point x="990" y="108"/>
      <point x="1146" y="365" type="curve"/>
      <point x="1143" y="351" type="line" smooth="yes"/>
      <point x="1066" y="113"/>
      <point x="1131" y="-17"/>
      <point x="1303" y="-17" type="curve" smooth="yes"/>
      <point x="1353" y="-17"/>
      <point x="1378" y="58"/>
      <point x="1328" y="58" type="curve" smooth="yes"/>
      <point x="1201" y="58"/>
      <point x="1166" y="145"/>
      <point x="1233" y="353" type="curve" smooth="yes"/>
      <point x="1596" y="1485" type="line" smooth="yes"/>
      <point x="1603" y="1505"/>
      <point x="1588" y="1515"/>
      <point x="1558" y="1515" type="curve" smooth="yes"/>
      <point x="1528" y="1515"/>
      <point x="1511" y="1505"/>
      <point x="1506" y="1488" type="curve" smooth="yes"/>
      <point x="1441" y="1283" type="line"/>
      <point x="1366" y="1436"/>
      <point x="1244" y="1515"/>
      <point x="1078" y="1515" type="curve" smooth="yes"/>
      <point x="628" y="1515"/>
      <point x="238" y="1013"/>
      <point x="238" y="438" type="curve" smooth="yes"/>
      <point x="238" y="163"/>
      <point x="383" y="-17"/>
    </contour>
    <contour>
      <point x="331" y="443" type="curve" smooth="yes"/>
      <point x="331" y="965"/>
      <point x="678" y="1430"/>
      <point x="1065" y="1430" type="curve" smooth="yes"/>
      <point x="1246" y="1430"/>
      <point x="1348" y="1351"/>
      <point x="1401" y="1161" type="curve"/>
      <point x="1283" y="790" type="line"/>
      <point x="1090" y="301"/>
      <point x="876" y="68"/>
      <point x="621" y="68" type="curve" smooth="yes"/>
      <point x="446" y="68"/>
      <point x="331" y="216"/>
    </contour>
  </outline>
</glyph>
<glyph name="A.dec" format="2">
  <advance width="1423"/>
  <anchor x="744" y="0" name="bottom"/>
  <anchor x="1174" y="0" name="ogonek"/>
  <anchor x="1209" y="1424" name="top"/>
  <outline>
    <contour>
      <point x="171" y="-17" type="curve" smooth="yes"/>
      <point x="352" y="-17"/>
      <point x="545" y="50"/>
      <point x="1207" y="1354" type="curve"/>
      <point x="1143" y="905"/>
      <point x="1107" y="486"/>
      <point x="1115" y="15" type="curve" smooth="yes"/>
      <point x="1115" y="-7"/>
      <point x="1130" y="-19"/>
      <point x="1156" y="-16" type="curve" smooth="yes"/>
      <point x="1185" y="-14"/>
      <point x="1199" y="-2"/>
      <point x="1199" y="19" type="curve" smooth="yes"/>
      <point x="1195" y="526"/>
      <point x="1238" y="979"/>
      <point x="1306" y="1468" type="curve" smooth="yes"/>
      <point x="1311" y="1503"/>
      <point x="1294" y="1515"/>
      <point x="1253" y="1515" type="curve" smooth="yes"/>
      <point x="1216" y="1515"/>
      <point x="1201" y="1504"/>
      <point x="1185" y="1473" type="curve" smooth="yes"/>
      <point x="503" y="148"/>
      <point x="333" y="64"/>
      <point x="171" y="64" type="curve" smooth="yes"/>
      <point x="129" y="64"/>
      <point x="81" y="78"/>
      <point x="48" y="95" type="curve" smooth="yes"/>
      <point x="33" y="103"/>
      <point x="20" y="94"/>
      <point x="10" y="71" type="curve" smooth="yes"/>
      <point x="0" y="48"/>
      <point x="3" y="28"/>
      <point x="19" y="20" type="curve" smooth="yes"/>
      <point x="55" y="3"/>
      <point x="110" y="-17"/>
    </contour>
    <contour>
      <point x="1114" y="65" type="curve"/>
      <point x="1178" y="86" type="line"/>
      <point x="1173" y="465"/>
      <point x="986" y="695"/>
      <point x="685" y="695" type="curve" smooth="yes"/>
      <point x="524" y="695"/>
      <point x="380" y="589"/>
      <point x="380" y="444" type="curve" smooth="yes"/>
      <point x="380" y="311"/>
      <point x="504" y="210"/>
      <point x="726" y="210" type="curve" smooth="yes"/>
      <point x="1034" y="210"/>
      <point x="1233" y="329"/>
      <point x="1466" y="563" type="curve" smooth="yes"/>
      <point x="1483" y="579"/>
      <point x="1481" y="599"/>
      <point x="1461" y="618" type="curve" smooth="yes"/>
      <point x="1444" y="634"/>
      <point x="1425" y="636"/>
      <point x="1410" y="621" type="curve" smooth="yes"/>
      <point x="1189" y="394"/>
      <point x="1019" y="288"/>
      <point x="740" y="288" type="curve" smooth="yes"/>
      <point x="563" y="288"/>
      <point x="469" y="355"/>
      <point x="469" y="450" type="curve" smooth="yes"/>
      <point x="469" y="549"/>
      <point x="555" y="618"/>
      <point x="683" y="618" type="curve" smooth="yes"/>
      <point x="943" y="618"/>
      <point x="1106" y="409"/>
    </contour>
  </outline>
</glyph>
<glyph name="A.dec2.ini" format="2">
	<advance width="1072"/>
	<outline>
		<contour>
			<point x="962" y="-14" type="curve" smooth="yes"/>
			<point x="1002" y="-14"/>
			<point x="1022" y="46"/>
			<point x="982" y="46" type="curve" smooth="yes"/>
			<point x="921" y="46"/>
			<point x="900" y="81"/>
			<point x="912" y="176" type="curve" smooth="yes"/>
			<point x="952" y="503"/>
			<point x="1016" y="838"/>
			<point x="1096" y="1180" type="curve"/>
			<point x="1022" y="1166" type="line"/>
			<point x="944" y="822"/>
			<point x="879" y="499"/>
			<point x="843" y="169" type="curve" smooth="yes"/>
			<point x="830" y="48"/>
			<point x="870" y="-14"/>
		</contour>
		<contour>
			<point x="269" y="-14" type="curve" smooth="yes"/>
			<point x="639" y="-14"/>
			<point x="652" y="1029"/>
			<point x="1081" y="1146" type="curve" smooth="yes"/>
			<point x="1106" y="1153"/>
			<point x="1115" y="1169"/>
			<point x="1108" y="1193" type="curve" smooth="yes"/>
			<point x="1103" y="1213"/>
			<point x="1091" y="1220"/>
			<point x="1072" y="1215" type="curve" smooth="yes"/>
			<point x="606" y="1086"/>
			<point x="552" y="54"/>
			<point x="275" y="54" type="curve" smooth="yes"/>
			<point x="209" y="54"/>
			<point x="169" y="107"/>
			<point x="169" y="193" type="curve" smooth="yes"/>
			<point x="169" y="394"/>
			<point x="354" y="516"/>
			<point x="657" y="516" type="curve" smooth="yes"/>
			<point x="1041" y="516" type="line" smooth="yes"/>
			<point x="1056" y="516"/>
			<point x="1067" y="526"/>
			<point x="1071" y="548" type="curve" smooth="yes"/>
			<point x="1075" y="571"/>
			<point x="1069" y="582"/>
			<point x="1052" y="582" type="curve" smooth="yes"/>
			<point x="674" y="582" type="line" smooth="yes"/>
			<point x="314" y="582"/>
			<point x="94" y="434"/>
			<point x="94" y="191" type="curve" smooth="yes"/>
			<point x="94" y="64"/>
			<point x="160" y="-14"/>
		</contour>
	</outline>
	<anchor name="bottom" x="680" y="0"/>
	<anchor name="cnct" x="1007" y="0"/>
	<anchor name="ogonek" x="995" y="-3"/>
	<anchor name="top" x="932" y="1139"/>
</glyph>
<glyph name="A.dec_locl" format="2">
  <advance width="1573"/>
  <anchor x="731" y="0" name="bottom"/>
  <anchor x="1370" y="0" name="ogonek"/>
  <anchor x="1209" y="1424" name="top"/>
  <outline>
    <contour>
      <point x="171" y="-17" type="curve" smooth="yes"/>
      <point x="294" y="-17"/>
      <point x="422" y="14"/>
      <point x="701" y="444" type="curve"/>
      <point x="1121" y="444" type="line"/>
      <point x="1120" y="395"/>
      <point x="1119" y="346"/>
      <point x="1119" y="296" type="curve" smooth="yes"/>
      <point x="1119" y="75"/>
      <point x="1168" y="-17"/>
      <point x="1294" y="-17" type="curve" smooth="yes"/>
      <point x="1426" y="-17"/>
      <point x="1533" y="116"/>
      <point x="1643" y="378" type="curve" smooth="yes"/>
      <point x="1650" y="396"/>
      <point x="1640" y="413"/>
      <point x="1613" y="424" type="curve" smooth="yes"/>
      <point x="1593" y="433"/>
      <point x="1576" y="426"/>
      <point x="1569" y="408" type="curve" smooth="yes"/>
      <point x="1473" y="179"/>
      <point x="1381" y="63"/>
      <point x="1299" y="63" type="curve" smooth="yes"/>
      <point x="1229" y="63"/>
      <point x="1205" y="138"/>
      <point x="1205" y="296" type="curve" smooth="yes"/>
      <point x="1205" y="695"/>
      <point x="1250" y="1070"/>
      <point x="1306" y="1468" type="curve" smooth="yes"/>
      <point x="1311" y="1503"/>
      <point x="1294" y="1515"/>
      <point x="1253" y="1515" type="curve" smooth="yes"/>
      <point x="1216" y="1515"/>
      <point x="1201" y="1504"/>
      <point x="1185" y="1473" type="curve" smooth="yes"/>
      <point x="503" y="148"/>
      <point x="333" y="64"/>
      <point x="171" y="64" type="curve" smooth="yes"/>
      <point x="129" y="64"/>
      <point x="81" y="78"/>
      <point x="48" y="95" type="curve" smooth="yes"/>
      <point x="33" y="103"/>
      <point x="20" y="94"/>
      <point x="10" y="71" type="curve" smooth="yes"/>
      <point x="0" y="48"/>
      <point x="3" y="28"/>
      <point x="19" y="20" type="curve" smooth="yes"/>
      <point x="55" y="3"/>
      <point x="110" y="-17"/>
    </contour>
    <contour>
      <point x="749" y="521" type="line"/>
      <point x="872" y="718"/>
      <point x="1021" y="988"/>
      <point x="1208" y="1355" type="curve"/>
      <point x="1168" y="1072"/>
      <point x="1135" y="801"/>
      <point x="1124" y="521" type="curve"/>
    </contour>
  </outline>
</glyph>
<glyph name="A.dec_locl.ini" format="2">
  <advance width="1423"/>
  <anchor x="731" y="0" name="bottom"/>
  <anchor x="1341" y="0" name="cnct"/>
  <anchor x="1296" y="0" name="ogonek"/>
  <anchor x="1209" y="1424" name="top"/>
  <outline>
    <contour>
      <point x="171" y="-17" type="curve" smooth="yes"/>
      <point x="356" y="-17"/>
      <point x="554" y="53"/>
      <point x="1256" y="1451" type="curve"/>
      <point x="1221" y="1449" type="line"/>
      <point x="1164" y="1048"/>
      <point x="1119" y="674"/>
      <point x="1119" y="246" type="curve" smooth="yes"/>
      <point x="1119" y="68"/>
      <point x="1168" y="-17"/>
      <point x="1285" y="-17" type="curve" smooth="yes"/>
      <point x="1335" y="-17"/>
      <point x="1360" y="58"/>
      <point x="1310" y="58" type="curve" smooth="yes"/>
      <point x="1231" y="58"/>
      <point x="1205" y="111"/>
      <point x="1205" y="271" type="curve" smooth="yes"/>
      <point x="1205" y="679"/>
      <point x="1249" y="1061"/>
      <point x="1306" y="1468" type="curve" smooth="yes"/>
      <point x="1311" y="1503"/>
      <point x="1294" y="1515"/>
      <point x="1253" y="1515" type="curve" smooth="yes"/>
      <point x="1216" y="1515"/>
      <point x="1201" y="1504"/>
      <point x="1185" y="1473" type="curve" smooth="yes"/>
      <point x="503" y="148"/>
      <point x="333" y="64"/>
      <point x="171" y="64" type="curve" smooth="yes"/>
      <point x="129" y="64"/>
      <point x="81" y="78"/>
      <point x="48" y="95" type="curve" smooth="yes"/>
      <point x="33" y="103"/>
      <point x="20" y="94"/>
      <point x="10" y="71" type="curve" smooth="yes"/>
      <point x="0" y="48"/>
      <point x="3" y="28"/>
      <point x="19" y="20" type="curve" smooth="yes"/>
      <point x="55" y="3"/>
      <point x="110" y="-17"/>
    </contour>
    <contour>
      <point x="654" y="444" type="line"/>
      <point x="1169" y="444" type="line"/>
      <point x="1191" y="521" type="line"/>
      <point x="676" y="521" type="line"/>
    </contour>
  </outline>
</glyph>
<glyph name="AE.cur" format="2">
  <advance width="1607"/>
  <anchor x="1211" y="1139" name="top"/>
  <outline>
    <contour>
      <point x="113" y="-14" type="curve" smooth="yes"/>
      <point x="282" y="-14"/>
      <point x="394" y="140"/>
      <point x="1085" y="1156" type="curve"/>
      <point x="1053" y="1158" type="line"/>
      <point x="975" y="872"/>
      <point x="919" y="604"/>
      <point x="882" y="280" type="curve" smooth="yes"/>
      <point x="880" y="262"/>
      <point x="889" y="257"/>
      <point x="913" y="257" type="curve" smooth="yes"/>
      <point x="940" y="257"/>
      <point x="947" y="269"/>
      <point x="949" y="287" type="curve" smooth="yes"/>
      <point x="990" y="612"/>
      <point x="1049" y="891"/>
      <point x="1122" y="1166" type="curve" smooth="yes"/>
      <point x="1130" y="1196"/>
      <point x="1114" y="1210"/>
      <point x="1083" y="1210" type="curve" smooth="yes"/>
      <point x="1053" y="1210"/>
      <point x="1037" y="1198"/>
      <point x="1015" y="1166" type="curve" smooth="yes"/>
      <point x="356" y="198"/>
      <point x="237" y="51"/>
      <point x="116" y="51" type="curve" smooth="yes"/>
      <point x="93" y="51"/>
      <point x="69" y="55"/>
      <point x="43" y="67" type="curve" smooth="yes"/>
      <point x="27" y="74"/>
      <point x="12" y="73"/>
      <point x="3" y="52" type="curve" smooth="yes"/>
      <point x="-6" y="30"/>
      <point x="-2" y="17"/>
      <point x="18" y="7" type="curve" smooth="yes"/>
      <point x="45" y="-6"/>
      <point x="75" y="-14"/>
    </contour>
    <contour>
      <point x="519" y="381" type="line"/>
      <point x="930" y="381" type="line"/>
      <point x="942" y="443" type="line"/>
      <point x="565" y="443" type="line"/>
    </contour>
    <contour>
      <point x="1162" y="-15" type="curve" smooth="yes"/>
      <point x="1299" y="-15"/>
      <point x="1433" y="50"/>
      <point x="1549" y="173" type="curve" smooth="yes"/>
      <point x="1570" y="196"/>
      <point x="1575" y="209"/>
      <point x="1558" y="226" type="curve" smooth="yes"/>
      <point x="1542" y="242"/>
      <point x="1529" y="245"/>
      <point x="1509" y="223" type="curve" smooth="yes"/>
      <point x="1408" y="112"/>
      <point x="1294" y="53"/>
      <point x="1181" y="53" type="curve" smooth="yes"/>
      <point x="1039" y="53"/>
      <point x="955" y="127"/>
      <point x="955" y="251" type="curve" smooth="yes"/>
      <point x="955" y="432"/>
      <point x="1110" y="597"/>
      <point x="1324" y="597" type="curve" smooth="yes"/>
      <point x="1471" y="597" type="line" smooth="yes"/>
      <point x="1483" y="597"/>
      <point x="1494" y="607"/>
      <point x="1500" y="629" type="curve" smooth="yes"/>
      <point x="1506" y="651"/>
      <point x="1501" y="661"/>
      <point x="1489" y="661" type="curve" smooth="yes"/>
      <point x="1336" y="661" type="line" smooth="yes"/>
      <point x="1231" y="661"/>
      <point x="1175" y="725"/>
      <point x="1175" y="844" type="curve" smooth="yes"/>
      <point x="1175" y="1014"/>
      <point x="1296" y="1144"/>
      <point x="1461" y="1144" type="curve" smooth="yes"/>
      <point x="1565" y="1144"/>
      <point x="1634" y="1107"/>
      <point x="1692" y="1043" type="curve" smooth="yes"/>
      <point x="1708" y="1025"/>
      <point x="1720" y="1021"/>
      <point x="1736" y="1034" type="curve" smooth="yes"/>
      <point x="1758" y="1052"/>
      <point x="1754" y="1065"/>
      <point x="1744" y="1079" type="curve" smooth="yes"/>
      <point x="1686" y="1165"/>
      <point x="1593" y="1212"/>
      <point x="1478" y="1212" type="curve" smooth="yes"/>
      <point x="1259" y="1212"/>
      <point x="1100" y="1053"/>
      <point x="1100" y="843" type="curve" smooth="yes"/>
      <point x="1100" y="740"/>
      <point x="1153" y="660"/>
      <point x="1213" y="638" type="curve"/>
      <point x="1021" y="601"/>
      <point x="880" y="430"/>
      <point x="880" y="241" type="curve" smooth="yes"/>
      <point x="880" y="86"/>
      <point x="992" y="-15"/>
    </contour>
  </outline>
</glyph>
<glyph name="AE.cur.locl.ini" format="2">
  <advance width="1660"/>
  <anchor x="1400" y="1424" name="top"/>
  <outline>
    <contour>
      <point x="74" y="-17" type="curve" smooth="yes"/>
      <point x="310" y="-17"/>
      <point x="461" y="169"/>
      <point x="1348" y="1413" type="curve"/>
      <point x="1386" y="1413" type="line"/>
      <point x="1410" y="1488" type="line"/>
      <point x="1359" y="1488" type="line" smooth="yes"/>
      <point x="1319" y="1488"/>
      <point x="1296" y="1474"/>
      <point x="1268" y="1434" type="curve" smooth="yes"/>
      <point x="413" y="241"/>
      <point x="256" y="64"/>
      <point x="88" y="64" type="curve" smooth="yes"/>
      <point x="49" y="64"/>
      <point x="28" y="71"/>
      <point x="-5" y="85" type="curve" smooth="yes"/>
      <point x="-20" y="91"/>
      <point x="-40" y="84"/>
      <point x="-50" y="60" type="curve" smooth="yes"/>
      <point x="-62" y="31"/>
      <point x="-55" y="16"/>
      <point x="-35" y="6" type="curve" smooth="yes"/>
      <point x="-2" y="-10"/>
      <point x="30" y="-17"/>
    </contour>
    <contour>
      <point x="1163" y="704" type="line"/>
      <point x="1190" y="784" type="line"/>
      <point x="853" y="784" type="line"/>
      <point x="794" y="704" type="line"/>
    </contour>
    <contour>
      <point x="1375" y="0" type="line"/>
      <point x="1415" y="0"/>
      <point x="1424" y="80"/>
      <point x="1384" y="80" type="curve" smooth="yes"/>
      <point x="1006" y="80" type="line"/>
      <point x="1206" y="704" type="line"/>
      <point x="1543" y="704" type="line" smooth="yes"/>
      <point x="1558" y="704"/>
      <point x="1571" y="718"/>
      <point x="1579" y="744" type="curve" smooth="yes"/>
      <point x="1586" y="771"/>
      <point x="1580" y="784"/>
      <point x="1565" y="784" type="curve" smooth="yes"/>
      <point x="1233" y="784" type="line"/>
      <point x="1434" y="1408" type="line"/>
      <point x="1893" y="1408" type="line" smooth="yes"/>
      <point x="1908" y="1408"/>
      <point x="1921" y="1421"/>
      <point x="1929" y="1448" type="curve" smooth="yes"/>
      <point x="1936" y="1475"/>
      <point x="1930" y="1488"/>
      <point x="1915" y="1488" type="curve" smooth="yes"/>
      <point x="1410" y="1488" type="line" smooth="yes"/>
      <point x="1383" y="1488"/>
      <point x="1369" y="1478"/>
      <point x="1363" y="1460" type="curve" smooth="yes"/>
      <point x="905" y="40" type="line" smooth="yes"/>
      <point x="896" y="11"/>
      <point x="910" y="0"/>
      <point x="944" y="0" type="curve" smooth="yes"/>
    </contour>
  </outline>
</glyph>
<glyph name="B.cur" format="2">
  <advance width="1385"/>
  <guideline x="222" y="104" angle="72.99"/>
  <anchor x="770" y="0" name="bottom"/>
  <anchor x="513" y="438" name="center"/>
  <anchor x="1099" y="1424" name="top"/>
  <outline>
    <contour>
      <point x="766" y="-19" type="curve" smooth="yes"/>
      <point x="1104" y="-19"/>
      <point x="1349" y="208"/>
      <point x="1349" y="521" type="curve" smooth="yes"/>
      <point x="1349" y="670"/>
      <point x="1243" y="781"/>
      <point x="1093" y="808" type="curve"/>
      <point x="1094" y="811" type="line"/>
      <point x="1326" y="865"/>
      <point x="1494" y="1040"/>
      <point x="1494" y="1229" type="curve" smooth="yes"/>
      <point x="1494" y="1409"/>
      <point x="1328" y="1515"/>
      <point x="1045" y="1515" type="curve" smooth="yes"/>
      <point x="769" y="1515"/>
      <point x="548" y="1430"/>
      <point x="389" y="1264" type="curve" smooth="yes"/>
      <point x="374" y="1249"/>
      <point x="374" y="1234"/>
      <point x="388" y="1218" type="curve" smooth="yes"/>
      <point x="410" y="1193"/>
      <point x="430" y="1189"/>
      <point x="445" y="1206" type="curve" smooth="yes"/>
      <point x="581" y="1355"/>
      <point x="778" y="1430"/>
      <point x="1028" y="1430" type="curve" smooth="yes"/>
      <point x="1271" y="1430"/>
      <point x="1400" y="1358"/>
      <point x="1400" y="1223" type="curve" smooth="yes"/>
      <point x="1400" y="1048"/>
      <point x="1233" y="891"/>
      <point x="1000" y="851" type="curve"/>
      <point x="981" y="860"/>
      <point x="951" y="868"/>
      <point x="916" y="868" type="curve" smooth="yes"/>
      <point x="850" y="868"/>
      <point x="815" y="824"/>
      <point x="815" y="788" type="curve" smooth="yes"/>
      <point x="815" y="761"/>
      <point x="834" y="738"/>
      <point x="873" y="738" type="curve" smooth="yes"/>
      <point x="900" y="738"/>
      <point x="933" y="746"/>
      <point x="975" y="765" type="curve"/>
      <point x="1131" y="765"/>
      <point x="1255" y="669"/>
      <point x="1255" y="521" type="curve" smooth="yes"/>
      <point x="1255" y="258"/>
      <point x="1053" y="66"/>
      <point x="773" y="66" type="curve" smooth="yes"/>
      <point x="700" y="66"/>
      <point x="645" y="79"/>
      <point x="578" y="123" type="curve" smooth="yes"/>
      <point x="560" y="134"/>
      <point x="546" y="134"/>
      <point x="529" y="109" type="curve" smooth="yes"/>
      <point x="511" y="83"/>
      <point x="518" y="69"/>
      <point x="543" y="50" type="curve" smooth="yes"/>
      <point x="601" y="8"/>
      <point x="679" y="-19"/>
    </contour>
    <contour>
      <point x="220" y="-19" type="curve" smooth="yes"/>
      <point x="353" y="-19"/>
      <point x="440" y="75"/>
      <point x="508" y="285" type="curve" smooth="yes"/>
      <point x="823" y="1260" type="line" smooth="yes"/>
      <point x="830" y="1281"/>
      <point x="814" y="1290"/>
      <point x="784" y="1290" type="curve" smooth="yes"/>
      <point x="754" y="1290"/>
      <point x="739" y="1281"/>
      <point x="733" y="1263" type="curve" smooth="yes"/>
      <point x="419" y="290" type="line" smooth="yes"/>
      <point x="366" y="129"/>
      <point x="308" y="66"/>
      <point x="224" y="66" type="curve" smooth="yes"/>
      <point x="160" y="66"/>
      <point x="116" y="86"/>
      <point x="85" y="169" type="curve" smooth="yes"/>
      <point x="78" y="190"/>
      <point x="56" y="194"/>
      <point x="34" y="183" type="curve" smooth="yes"/>
      <point x="14" y="173"/>
      <point x="6" y="156"/>
      <point x="14" y="134" type="curve" smooth="yes"/>
      <point x="44" y="44"/>
      <point x="115" y="-19"/>
    </contour>
  </outline>
</glyph>
<glyph name="B.dec" format="2">
  <advance width="1424"/>
  <anchor x="770" y="0" name="bottom"/>
  <anchor x="450" y="438" name="center"/>
  <anchor x="1111" y="1424" name="top"/>
  <outline>
    <contour>
      <point x="831" y="-12" type="curve" smooth="yes"/>
      <point x="1140" y="-12"/>
      <point x="1385" y="220"/>
      <point x="1385" y="521" type="curve" smooth="yes"/>
      <point x="1385" y="669"/>
      <point x="1300" y="783"/>
      <point x="1138" y="810" type="curve"/>
      <point x="1139" y="813" type="line"/>
      <point x="1376" y="863"/>
      <point x="1524" y="1033"/>
      <point x="1524" y="1244" type="curve" smooth="yes"/>
      <point x="1524" y="1410"/>
      <point x="1423" y="1515"/>
      <point x="1235" y="1515" type="curve" smooth="yes"/>
      <point x="1086" y="1515"/>
      <point x="905" y="1434"/>
      <point x="753" y="1234" type="curve"/>
      <point x="834" y="1485" type="line" smooth="yes"/>
      <point x="841" y="1506"/>
      <point x="825" y="1515"/>
      <point x="795" y="1515" type="curve" smooth="yes"/>
      <point x="768" y="1515"/>
      <point x="751" y="1508"/>
      <point x="743" y="1488" type="curve" smooth="yes"/>
      <point x="656" y="1300"/>
      <point x="539" y="1181"/>
      <point x="346" y="1099" type="curve" smooth="yes"/>
      <point x="321" y="1088"/>
      <point x="313" y="1074"/>
      <point x="321" y="1045" type="curve" smooth="yes"/>
      <point x="330" y="1019"/>
      <point x="344" y="1006"/>
      <point x="373" y="1019" type="curve" smooth="yes"/>
      <point x="485" y="1069"/>
      <point x="580" y="1131"/>
      <point x="656" y="1218" type="curve"/>
      <point x="269" y="16" type="line" smooth="yes"/>
      <point x="261" y="-5"/>
      <point x="278" y="-14"/>
      <point x="308" y="-14" type="curve" smooth="yes"/>
      <point x="338" y="-14"/>
      <point x="353" y="-5"/>
      <point x="359" y="14" type="curve" smooth="yes"/>
      <point x="621" y="826" type="line" smooth="yes"/>
      <point x="765" y="1263"/>
      <point x="1039" y="1430"/>
      <point x="1224" y="1430" type="curve" smooth="yes"/>
      <point x="1361" y="1430"/>
      <point x="1431" y="1361"/>
      <point x="1431" y="1234" type="curve" smooth="yes"/>
      <point x="1431" y="1023"/>
      <point x="1250" y="886"/>
      <point x="1045" y="853" type="curve"/>
      <point x="1019" y="864"/>
      <point x="988" y="869"/>
      <point x="956" y="869" type="curve" smooth="yes"/>
      <point x="900" y="869"/>
      <point x="858" y="835"/>
      <point x="858" y="790" type="curve" smooth="yes"/>
      <point x="858" y="760"/>
      <point x="884" y="741"/>
      <point x="921" y="741" type="curve" smooth="yes"/>
      <point x="951" y="741"/>
      <point x="991" y="754"/>
      <point x="1026" y="769" type="curve"/>
      <point x="1178" y="756"/>
      <point x="1291" y="671"/>
      <point x="1291" y="514" type="curve" smooth="yes"/>
      <point x="1291" y="273"/>
      <point x="1088" y="73"/>
      <point x="841" y="73" type="curve" smooth="yes"/>
      <point x="750" y="73"/>
      <point x="689" y="90"/>
      <point x="623" y="140" type="curve" smooth="yes"/>
      <point x="606" y="153"/>
      <point x="589" y="149"/>
      <point x="573" y="129" type="curve" smooth="yes"/>
      <point x="554" y="105"/>
      <point x="554" y="86"/>
      <point x="574" y="70" type="curve" smooth="yes"/>
      <point x="645" y="14"/>
      <point x="739" y="-12"/>
    </contour>
  </outline>
</glyph>
<glyph name="C.cur" format="2">
	<advance width="960"/>
	<outline>
		<contour>
			<point x="534" y="-15" type="curve" smooth="yes"/>
			<point x="662" y="-15"/>
			<point x="791" y="52"/>
			<point x="918" y="183" type="curve" smooth="yes"/>
			<point x="935" y="200"/>
			<point x="930" y="215"/>
			<point x="918" y="228" type="curve" smooth="yes"/>
			<point x="904" y="244"/>
			<point x="889" y="244"/>
			<point x="875" y="230" type="curve" smooth="yes"/>
			<point x="764" y="115"/>
			<point x="663" y="53"/>
			<point x="544" y="53" type="curve" smooth="yes"/>
			<point x="375" y="53"/>
			<point x="278" y="178"/>
			<point x="278" y="380" type="curve" smooth="yes"/>
			<point x="278" y="730"/>
			<point x="519" y="1144"/>
			<point x="855" y="1144" type="curve" smooth="yes"/>
			<point x="956" y="1144"/>
			<point x="1036" y="1109"/>
			<point x="1088" y="1046" type="curve" smooth="yes"/>
			<point x="1104" y="1027"/>
			<point x="1116" y="1019"/>
			<point x="1134" y="1031" type="curve" smooth="yes"/>
			<point x="1157" y="1046"/>
			<point x="1157" y="1057"/>
			<point x="1147" y="1074" type="curve" smooth="yes"/>
			<point x="1091" y="1164"/>
			<point x="991" y="1212"/>
			<point x="864" y="1212" type="curve" smooth="yes"/>
			<point x="455" y="1212"/>
			<point x="203" y="748"/>
			<point x="203" y="374" type="curve" smooth="yes"/>
			<point x="203" y="139"/>
			<point x="333" y="-15"/>
		</contour>
	</outline>
	<anchor name="bottom" x="477" y="0"/>
	<anchor name="top" x="831" y="1139"/>
</glyph>
<glyph name="D.cur" format="2">
	<advance width="1238"/>
	<outline>
		<contour>
			<point x="613" y="-15" type="curve" smooth="yes"/>
			<point x="982" y="-15"/>
			<point x="1300" y="365"/>
			<point x="1300" y="795" type="curve" smooth="yes"/>
			<point x="1300" y="1057"/>
			<point x="1128" y="1212"/>
			<point x="836" y="1212" type="curve" smooth="yes"/>
			<point x="615" y="1212"/>
			<point x="438" y="1144"/>
			<point x="311" y="1011" type="curve" smooth="yes"/>
			<point x="299" y="999"/>
			<point x="299" y="987"/>
			<point x="310" y="974" type="curve" smooth="yes"/>
			<point x="328" y="954"/>
			<point x="344" y="951"/>
			<point x="356" y="965" type="curve" smooth="yes"/>
			<point x="465" y="1084"/>
			<point x="622" y="1144"/>
			<point x="822" y="1144" type="curve" smooth="yes"/>
			<point x="1075" y="1144"/>
			<point x="1224" y="1013"/>
			<point x="1224" y="792" type="curve" smooth="yes"/>
			<point x="1224" y="403"/>
			<point x="940" y="53"/>
			<point x="618" y="53" type="curve" smooth="yes"/>
			<point x="560" y="53"/>
			<point x="516" y="63"/>
			<point x="462" y="98" type="curve" smooth="yes"/>
			<point x="448" y="107"/>
			<point x="437" y="107"/>
			<point x="423" y="87" type="curve" smooth="yes"/>
			<point x="409" y="66"/>
			<point x="414" y="55"/>
			<point x="434" y="40" type="curve" smooth="yes"/>
			<point x="481" y="6"/>
			<point x="543" y="-15"/>
		</contour>
		<contour>
			<point x="176" y="-15" type="curve" smooth="yes"/>
			<point x="282" y="-15"/>
			<point x="352" y="60"/>
			<point x="406" y="228" type="curve" smooth="yes"/>
			<point x="658" y="1008" type="line" smooth="yes"/>
			<point x="664" y="1025"/>
			<point x="651" y="1032"/>
			<point x="627" y="1032" type="curve" smooth="yes"/>
			<point x="603" y="1032"/>
			<point x="591" y="1025"/>
			<point x="586" y="1010" type="curve" smooth="yes"/>
			<point x="335" y="232" type="line" smooth="yes"/>
			<point x="293" y="103"/>
			<point x="246" y="53"/>
			<point x="179" y="53" type="curve" smooth="yes"/>
			<point x="128" y="53"/>
			<point x="93" y="69"/>
			<point x="68" y="135" type="curve" smooth="yes"/>
			<point x="62" y="152"/>
			<point x="45" y="155"/>
			<point x="27" y="146" type="curve" smooth="yes"/>
			<point x="11" y="138"/>
			<point x="5" y="125"/>
			<point x="11" y="107" type="curve" smooth="yes"/>
			<point x="35" y="35"/>
			<point x="92" y="-15"/>
		</contour>
	</outline>
	<anchor name="bottom" x="622" y="0"/>
	<anchor name="center" x="572" y="595"/>
	<anchor name="top" x="943" y="1139"/>
</glyph>
<glyph name="D.dec" format="2">
  <advance width="1548"/>
  <anchor x="778" y="0" name="bottom"/>
  <anchor x="715" y="744" name="center"/>
  <anchor x="1179" y="1424" name="top"/>
  <outline>
    <contour>
      <point x="276" y="-21" type="curve" smooth="yes"/>
      <point x="406" y="-21"/>
      <point x="493" y="76"/>
      <point x="575" y="333" type="curve" smooth="yes"/>
      <point x="873" y="1259" type="line" smooth="yes"/>
      <point x="880" y="1280"/>
      <point x="864" y="1289"/>
      <point x="834" y="1289" type="curve" smooth="yes"/>
      <point x="804" y="1289"/>
      <point x="789" y="1280"/>
      <point x="783" y="1261" type="curve" smooth="yes"/>
      <point x="489" y="351" type="line" smooth="yes"/>
      <point x="420" y="140"/>
      <point x="369" y="60"/>
      <point x="289" y="60" type="curve" smooth="yes"/>
      <point x="244" y="60"/>
      <point x="211" y="86"/>
      <point x="211" y="123" type="curve" smooth="yes"/>
      <point x="211" y="169"/>
      <point x="253" y="203"/>
      <point x="310" y="203" type="curve" smooth="yes"/>
      <point x="473" y="203"/>
      <point x="599" y="-11"/>
      <point x="884" y="-11" type="curve" smooth="yes"/>
      <point x="1256" y="-11"/>
      <point x="1601" y="380"/>
      <point x="1601" y="870" type="curve" smooth="yes"/>
      <point x="1601" y="1286"/>
      <point x="1343" y="1515"/>
      <point x="966" y="1515" type="curve" smooth="yes"/>
      <point x="666" y="1515"/>
      <point x="509" y="1389"/>
      <point x="406" y="1163" type="curve" smooth="yes"/>
      <point x="396" y="1140"/>
      <point x="396" y="1120"/>
      <point x="421" y="1109" type="curve" smooth="yes"/>
      <point x="448" y="1098"/>
      <point x="464" y="1100"/>
      <point x="478" y="1126" type="curve" smooth="yes"/>
      <point x="585" y="1339"/>
      <point x="709" y="1430"/>
      <point x="964" y="1430" type="curve" smooth="yes"/>
      <point x="1288" y="1430"/>
      <point x="1508" y="1230"/>
      <point x="1508" y="866" type="curve" smooth="yes"/>
      <point x="1508" y="424"/>
      <point x="1201" y="74"/>
      <point x="891" y="74" type="curve" smooth="yes"/>
      <point x="628" y="74"/>
      <point x="516" y="284"/>
      <point x="311" y="284" type="curve" smooth="yes"/>
      <point x="199" y="284"/>
      <point x="118" y="214"/>
      <point x="118" y="118" type="curve" smooth="yes"/>
      <point x="118" y="38"/>
      <point x="184" y="-21"/>
    </contour>
  </outline>
</glyph>
